<svg width="56" height="32" viewBox="0 0 56 32" fill="none" xmlns="http://www.w3.org/2000/svg">
<path d="M41.0732 0.115353C36.1327 0.115353 31.2156 4.67616 27.961 9.27C24.761 3.67855 19.7444 0.0625 14.9268 0.0625C6.5561 0.0625 0 7.02814 0 15.9185C0 24.8089 6.3239 31.7503 14.7083 31.8846H14.8098C17.8927 31.8846 21.7659 29.5899 26.3219 25.0622C26.8976 24.4896 27.4498 23.9148 27.9746 23.3488C28.5151 23.9324 29.0849 24.5248 29.678 25.115C34.2341 29.6428 38.1073 31.9375 41.1902 31.9375H41.2898C49.6761 31.801 56 24.9388 56 15.9714C56 7.00391 49.4439 0.115353 41.0732 0.115353ZM32.7902 17.5834L37.8146 11.9127L37.8966 11.8114C37.9063 11.7982 38.8195 10.6244 40.1932 10.1531V22.8049C40.1932 23.7166 40.8488 24.4565 41.6566 24.4565C42.4644 24.4565 43.12 23.7166 43.12 22.8049V6.77488L41.7541 6.67138C38.398 6.41592 36.1522 9.04537 35.7073 9.61575L30.6712 15.2997L30.5776 15.4164C30.562 15.4384 29.5473 16.817 27.9766 18.6691C26.4312 16.8435 25.4361 15.4891 25.4205 15.4693L20.2907 9.67081C19.8459 9.10043 17.6059 6.47758 14.2439 6.72643L12.878 6.82994V22.8577C12.878 23.7694 13.5337 24.5094 14.3415 24.5094C15.1493 24.5094 15.8049 23.7694 15.8049 22.8577V10.2059C17.1785 10.675 18.0898 11.8466 18.0976 11.8576L23.2098 17.6363C23.4205 17.9225 24.4215 19.2637 25.9044 21.0101C25.5434 21.3999 25.1688 21.7918 24.7844 22.1838C20.6712 26.3703 17.2234 28.5813 14.8059 28.5813C14.7883 28.5813 14.7707 28.5813 14.7532 28.5813C8.01171 28.4734 2.92683 23.0295 2.92683 15.9185C2.92683 12.45 4.17171 9.25899 6.43317 6.93564C8.67317 4.63212 11.6898 3.36584 14.9268 3.36584C19.2195 3.36584 23.9766 7.33645 26.4956 13.0226C26.4956 13.0248 26.4976 13.027 26.4995 13.0314C26.5151 13.0688 26.5346 13.1041 26.5541 13.1393C26.56 13.1503 26.5659 13.1613 26.5717 13.1723C26.5893 13.2032 26.6068 13.2318 26.6263 13.2604C26.6361 13.2758 26.6459 13.2935 26.6576 13.3089C26.6712 13.3287 26.6868 13.3485 26.7024 13.3683C26.72 13.3904 26.7376 13.4146 26.7571 13.4366C26.7668 13.4476 26.7766 13.4564 26.7863 13.4674C26.8117 13.4961 26.839 13.5247 26.8663 13.5511C26.8722 13.5555 26.878 13.5599 26.882 13.5665C26.9132 13.5952 26.9463 13.6238 26.9815 13.6502C26.9815 13.6502 26.9834 13.6524 26.9854 13.6546C26.9912 13.659 26.999 13.6634 27.0049 13.6678C27.0361 13.6899 27.0673 13.7119 27.0985 13.7339C27.12 13.7471 27.1395 13.7581 27.161 13.7691C27.1805 13.7802 27.2 13.7912 27.2195 13.8022C27.2546 13.8198 27.2898 13.8352 27.3249 13.8484C27.3307 13.8506 27.3366 13.855 27.3424 13.8572H27.3463C27.3873 13.8727 27.4302 13.8859 27.4732 13.8969C27.4771 13.8969 27.481 13.8991 27.4849 13.8991C27.5239 13.9101 27.5629 13.9167 27.6039 13.9233C27.6137 13.9233 27.6215 13.9277 27.6312 13.9277C27.6624 13.9321 27.6937 13.9343 27.7229 13.9365C27.7424 13.9365 27.76 13.9387 27.7795 13.9409C27.801 13.9409 27.8205 13.9409 27.842 13.9409C27.8712 13.9409 27.9005 13.9409 27.9278 13.9365C27.9415 13.9365 27.9532 13.9321 27.9668 13.9321C28.002 13.9277 28.0371 13.9233 28.0722 13.9145C28.0741 13.9145 28.078 13.9145 28.08 13.9145C28.0898 13.9145 28.0995 13.9079 28.1093 13.9057C28.1424 13.8969 28.1756 13.8903 28.2088 13.8793C28.2322 13.8727 28.2537 13.8616 28.2771 13.855C28.2966 13.8462 28.318 13.8396 28.3376 13.8308C28.3727 13.8154 28.4059 13.7978 28.439 13.7802C28.4449 13.7758 28.4527 13.7736 28.4585 13.7691C28.4585 13.7691 28.4624 13.7691 28.4624 13.7669C28.4995 13.7471 28.5346 13.7229 28.5698 13.6987C28.5756 13.6943 28.5834 13.6899 28.5893 13.6855C28.6185 13.6634 28.6478 13.6414 28.6771 13.6172C28.6888 13.6084 28.7005 13.5996 28.7102 13.5886C28.7298 13.5709 28.7493 13.5511 28.7688 13.5313C28.7863 13.5137 28.8059 13.4961 28.8234 13.4762C28.8351 13.463 28.8449 13.4498 28.8566 13.4366C28.88 13.4102 28.9034 13.3816 28.9249 13.3529C28.9307 13.3441 28.9366 13.3353 28.9424 13.3265C28.9659 13.2935 28.9893 13.2582 29.0127 13.223C29.0127 13.223 29.0146 13.2186 29.0166 13.2164C33.0888 6.45115 38.0078 3.42089 41.0751 3.42089C44.3122 3.42089 47.3288 4.68937 49.5707 6.9907C51.8302 9.31404 53.0751 12.5029 53.0751 15.9736C53.0751 23.0846 47.9902 28.5285 41.2507 28.6364H41.1883C38.7785 28.6364 35.3307 26.4253 31.2195 22.2389C30.8176 21.8293 30.4273 21.4197 30.0527 21.0145C31.559 19.2417 32.5795 17.8741 32.7922 17.5856L32.7902 17.5834Z" fill="#00AEFF"/>
</svg>
