<svg width="30" height="30" viewBox="0 0 30 30" fill="none" xmlns="http://www.w3.org/2000/svg">
<g clip-path="url(#clip0_120_35720)">
<path d="M15 30C23.2843 30 30 23.2843 30 15C30 6.71573 23.2843 0 15 0C6.71573 0 0 6.71573 0 15C0 23.2843 6.71573 30 15 30Z" fill="#0D1E30"/>
<g filter="url(#filter0_d_120_35720)">
<path d="M14.7423 5.68123C15.1913 5.44966 15.7398 5.98498 15.5016 6.42654C15.3619 6.78654 14.836 6.88216 14.5679 6.60748C14.2838 6.34498 14.3766 5.82373 14.7423 5.68029V5.68123ZM9.90945 6.1931C10.1823 6.08248 10.5282 6.3281 10.5001 6.62154C10.5282 6.93841 10.1344 7.17279 9.85601 7.02185C9.48757 6.88123 9.52976 6.29248 9.90945 6.1931ZM19.8076 7.03029C19.381 6.97966 19.3135 6.31966 19.7232 6.18654C20.0419 6.03466 20.3344 6.3206 20.3813 6.61779C20.3138 6.87091 20.0982 7.10341 19.8076 7.03029ZM11.0091 8.21623C11.4657 7.93216 12.1163 8.35498 12.046 8.87716C12.0226 9.4031 11.3119 9.70873 10.9107 9.35248C10.5226 9.0731 10.5816 8.43185 11.0091 8.21623ZM17.9748 8.5181C18.1782 8.00248 19.0032 7.9856 19.2348 8.4881C19.4644 8.87904 19.1823 9.36373 18.7744 9.49685C18.2335 9.59623 17.7207 9.0206 17.9748 8.5181ZM14.1601 9.46779C14.1554 9.02341 14.566 8.69341 14.9944 8.66248C15.2794 8.71873 15.5888 8.83779 15.7107 9.11998C15.9385 9.50998 15.736 10.0453 15.3263 10.2244C15.1388 10.3275 14.9157 10.289 14.7113 10.2769C14.3991 10.1269 14.1357 9.82966 14.1601 9.46779ZM6.9732 10.1147C7.39038 9.86154 7.95288 10.3209 7.79445 10.7672C7.7082 11.1525 7.18132 11.309 6.88038 11.0634C6.55882 10.8328 6.60945 10.2787 6.97413 10.1137L6.9732 10.1147ZM22.4063 10.1128C22.7598 9.84279 23.3438 10.1531 23.3007 10.5919C23.3251 10.9922 22.8198 11.295 22.4691 11.0887C22.0829 10.9172 22.0426 10.3322 22.4063 10.1137V10.1128ZM16.1813 10.9106C16.7644 10.7043 17.4582 10.9509 17.7901 11.4637C18.2288 12.089 17.9963 13.0415 17.3148 13.4006C16.6098 13.8253 15.5794 13.4662 15.3179 12.69C15.0226 11.9962 15.4538 11.1281 16.1804 10.9106H16.1813ZM12.7566 10.979C13.4035 10.679 14.2744 10.9303 14.5866 11.5809C14.9541 12.2147 14.6701 13.0969 14.0129 13.424C13.3548 13.7925 12.4257 13.5131 12.1079 12.8334C11.7507 12.1753 12.0676 11.2819 12.7566 10.979ZM9.3282 12.1312C9.37788 11.7215 9.7707 11.4543 10.1673 11.4262C10.3741 11.4481 10.5674 11.5394 10.7155 11.6854C10.8637 11.8313 10.9579 12.0232 10.9829 12.2297C10.9548 12.6515 10.6238 13.0622 10.1701 13.0603C9.67038 13.1025 9.23257 12.6131 9.3282 12.1312ZM19.4551 11.5162C19.9679 11.2228 20.6794 11.6493 20.6569 12.2287C20.6916 12.8428 19.9041 13.275 19.3941 12.915C18.8635 12.615 18.9048 11.7712 19.4551 11.5162ZM11.3644 13.679C11.9626 13.5168 12.6488 13.7943 12.9423 14.3362C13.2638 14.8818 13.1326 15.6394 12.6329 16.0406C11.9907 16.6275 10.8085 16.3912 10.4673 15.5906C10.0744 14.8565 10.5516 13.8722 11.3635 13.6781L11.3644 13.679ZM17.8585 13.6762C18.4407 13.5122 19.1251 13.7325 19.4382 14.2547C19.8526 14.8518 19.6548 15.7434 19.0388 16.1278C18.3919 16.575 17.3926 16.3406 17.0363 15.6412C16.6051 14.9184 17.0391 13.8965 17.8585 13.6762ZM7.50851 14.3568C8.02601 14.1647 8.59976 14.7262 8.38976 15.2315C8.26226 15.6909 7.6032 15.8615 7.26288 15.5222C6.86445 15.2034 7.01163 14.4956 7.50851 14.3568ZM21.5419 15.09C21.5322 14.8836 21.6044 14.6817 21.7427 14.5283C21.8811 14.3748 22.0744 14.2822 22.2807 14.2706C22.6351 14.3268 22.9801 14.6081 22.9519 14.9878C22.9848 15.4894 22.3707 15.8297 21.9357 15.5944C21.7323 15.4922 21.6282 15.2869 21.5419 15.09ZM4.9632 14.6062C5.27445 14.4722 5.65976 14.7375 5.58851 15.0778C5.57163 15.4631 4.9932 15.6122 4.78132 15.2897C4.59382 15.0656 4.70632 14.7215 4.9632 14.6053V14.6062ZM24.6029 14.5978C24.8223 14.445 25.1748 14.5547 25.261 14.8068C25.4082 15.0825 25.1382 15.4593 24.8232 15.4134C24.3807 15.4528 24.2382 14.79 24.6029 14.5978ZM13.0557 16.4475C13.8751 16.2384 14.7563 16.9106 14.7619 17.7412C14.8144 18.5803 13.9463 19.3237 13.1082 19.1306C12.4594 19.0275 11.9504 18.4125 11.9719 17.7684C11.9701 17.1515 12.4426 16.5778 13.0557 16.4475ZM16.3013 16.4465C17.1329 16.2178 18.0404 16.9022 18.0273 17.7515C18.0713 18.5747 17.2304 19.2937 16.4091 19.1297C15.6357 19.0322 15.0657 18.1968 15.2813 17.4581C15.3901 16.9668 15.8082 16.5675 16.3013 16.4456V16.4465ZM10.0426 16.9575C10.6182 16.8609 11.1582 17.4918 10.9248 18.03C10.7541 18.6037 9.90663 18.7584 9.53163 18.2906C9.09288 17.8406 9.42101 17.0193 10.0426 16.9575ZM19.5619 16.9828C20.0757 16.7709 20.7057 17.2078 20.6663 17.7562C20.6869 18.359 19.9088 18.7753 19.4073 18.4228C18.8382 18.1068 18.9423 17.1759 19.5619 16.9828ZM22.2226 19.6078C22.0219 19.2394 22.3866 18.7509 22.8038 18.8193C23.0101 18.8156 23.1554 18.9759 23.2876 19.1109C23.3148 19.3293 23.3607 19.59 23.176 19.7578C22.9257 20.07 22.3585 19.9809 22.2226 19.6078ZM6.97132 18.9215C7.36038 18.6675 7.92007 19.0472 7.83195 19.4934C7.78507 19.89 7.27882 20.1159 6.94601 19.8909C6.58788 19.6875 6.60101 19.1072 6.97132 18.9215ZM14.6523 19.7493C15.1613 19.529 15.8101 19.965 15.7613 20.5162C15.7988 21.1256 14.9973 21.5475 14.4994 21.1819C13.9463 20.8678 14.0391 19.9434 14.6523 19.7493ZM11.0954 20.5659C11.5285 20.3419 12.1098 20.729 12.0704 21.2072C12.0835 21.599 11.6954 21.9328 11.3016 21.8747C10.9763 21.8681 10.7644 21.5803 10.6594 21.3075C10.6651 21.0103 10.7898 20.6793 11.0954 20.5668V20.5659ZM18.301 20.5734C18.7473 20.3015 19.381 20.6915 19.3388 21.2015C19.3501 21.7359 18.6338 22.0772 18.2185 21.7265C17.8173 21.4518 17.866 20.7918 18.301 20.5734ZM19.5544 23.6203C19.3557 23.3259 19.5891 22.9706 19.9107 22.9031C20.1704 22.9547 20.4451 23.1469 20.3898 23.4412C20.3523 23.8415 19.7579 23.9634 19.5544 23.6212V23.6203ZM9.60663 23.3644C9.68538 23.13 9.87663 22.8984 10.1569 22.9594C10.5648 22.9875 10.6857 23.5931 10.3285 23.7797C10.0079 23.9925 9.63476 23.7009 9.60663 23.3644ZM14.4066 23.6334C14.4844 23.2865 14.9391 23.1187 15.2391 23.3025C15.4379 23.3869 15.496 23.6043 15.5466 23.79C15.5199 23.8864 15.4949 23.9833 15.4716 24.0806C15.3488 24.2231 15.1904 24.3665 14.986 24.3619C14.6063 24.4059 14.2632 23.9831 14.4057 23.6334H14.4066Z" fill="black"/>
</g>
<path d="M14.7423 5.68123C15.1913 5.44966 15.7398 5.98498 15.5016 6.42654C15.3619 6.78654 14.836 6.88216 14.5679 6.60748C14.2838 6.34498 14.3766 5.82373 14.7423 5.68029V5.68123ZM9.90945 6.1931C10.1823 6.08248 10.5282 6.3281 10.5001 6.62154C10.5282 6.93841 10.1344 7.17279 9.85601 7.02185C9.48757 6.88123 9.52976 6.29248 9.90945 6.1931ZM19.8076 7.03029C19.381 6.97966 19.3135 6.31966 19.7232 6.18654C20.0419 6.03466 20.3344 6.3206 20.3813 6.61779C20.3138 6.87091 20.0982 7.10341 19.8076 7.03029ZM11.0091 8.21623C11.4657 7.93216 12.1163 8.35498 12.046 8.87716C12.0226 9.4031 11.3119 9.70873 10.9107 9.35248C10.5226 9.0731 10.5816 8.43185 11.0091 8.21623ZM17.9748 8.5181C18.1782 8.00248 19.0032 7.9856 19.2348 8.4881C19.4644 8.87904 19.1823 9.36373 18.7744 9.49685C18.2335 9.59623 17.7207 9.0206 17.9748 8.5181ZM14.1601 9.46779C14.1554 9.02341 14.566 8.69341 14.9944 8.66248C15.2794 8.71873 15.5888 8.83779 15.7107 9.11998C15.9385 9.50998 15.736 10.0453 15.3263 10.2244C15.1388 10.3275 14.9157 10.289 14.7113 10.2769C14.3991 10.1269 14.1357 9.82966 14.1601 9.46779ZM6.9732 10.1147C7.39038 9.86154 7.95288 10.3209 7.79445 10.7672C7.7082 11.1525 7.18132 11.309 6.88038 11.0634C6.55882 10.8328 6.60945 10.2787 6.97413 10.1137L6.9732 10.1147ZM22.4063 10.1128C22.7598 9.84279 23.3438 10.1531 23.3007 10.5919C23.3251 10.9922 22.8198 11.295 22.4691 11.0887C22.0829 10.9172 22.0426 10.3322 22.4063 10.1137V10.1128ZM16.1813 10.9106C16.7644 10.7043 17.4582 10.9509 17.7901 11.4637C18.2288 12.089 17.9963 13.0415 17.3148 13.4006C16.6098 13.8253 15.5794 13.4662 15.3179 12.69C15.0226 11.9962 15.4538 11.1281 16.1804 10.9106H16.1813ZM12.7566 10.979C13.4035 10.679 14.2744 10.9303 14.5866 11.5809C14.9541 12.2147 14.6701 13.0969 14.0129 13.424C13.3548 13.7925 12.4257 13.5131 12.1079 12.8334C11.7507 12.1753 12.0676 11.2819 12.7566 10.979ZM9.3282 12.1312C9.37788 11.7215 9.7707 11.4543 10.1673 11.4262C10.3741 11.4481 10.5674 11.5394 10.7155 11.6854C10.8637 11.8313 10.9579 12.0232 10.9829 12.2297C10.9548 12.6515 10.6238 13.0622 10.1701 13.0603C9.67038 13.1025 9.23257 12.6131 9.3282 12.1312ZM19.4551 11.5162C19.9679 11.2228 20.6794 11.6493 20.6569 12.2287C20.6916 12.8428 19.9041 13.275 19.3941 12.915C18.8635 12.615 18.9048 11.7712 19.4551 11.5162ZM11.3644 13.679C11.9626 13.5168 12.6488 13.7943 12.9423 14.3362C13.2638 14.8818 13.1326 15.6394 12.6329 16.0406C11.9907 16.6275 10.8085 16.3912 10.4673 15.5906C10.0744 14.8565 10.5516 13.8722 11.3635 13.6781L11.3644 13.679ZM17.8585 13.6762C18.4407 13.5122 19.1251 13.7325 19.4382 14.2547C19.8526 14.8518 19.6548 15.7434 19.0388 16.1278C18.3919 16.575 17.3926 16.3406 17.0363 15.6412C16.6051 14.9184 17.0391 13.8965 17.8585 13.6762ZM7.50851 14.3568C8.02601 14.1647 8.59976 14.7262 8.38976 15.2315C8.26226 15.6909 7.6032 15.8615 7.26288 15.5222C6.86445 15.2034 7.01163 14.4956 7.50851 14.3568ZM21.5419 15.09C21.5322 14.8836 21.6044 14.6817 21.7427 14.5283C21.8811 14.3748 22.0744 14.2822 22.2807 14.2706C22.6351 14.3268 22.9801 14.6081 22.9519 14.9878C22.9848 15.4894 22.3707 15.8297 21.9357 15.5944C21.7323 15.4922 21.6282 15.2869 21.5419 15.09ZM4.9632 14.6062C5.27445 14.4722 5.65976 14.7375 5.58851 15.0778C5.57163 15.4631 4.9932 15.6122 4.78132 15.2897C4.59382 15.0656 4.70632 14.7215 4.9632 14.6053V14.6062ZM24.6029 14.5978C24.8223 14.445 25.1748 14.5547 25.261 14.8068C25.4082 15.0825 25.1382 15.4593 24.8232 15.4134C24.3807 15.4528 24.2382 14.79 24.6029 14.5978ZM13.0557 16.4475C13.8751 16.2384 14.7563 16.9106 14.7619 17.7412C14.8144 18.5803 13.9463 19.3237 13.1082 19.1306C12.4594 19.0275 11.9504 18.4125 11.9719 17.7684C11.9701 17.1515 12.4426 16.5778 13.0557 16.4475ZM16.3013 16.4465C17.1329 16.2178 18.0404 16.9022 18.0273 17.7515C18.0713 18.5747 17.2304 19.2937 16.4091 19.1297C15.6357 19.0322 15.0657 18.1968 15.2813 17.4581C15.3901 16.9668 15.8082 16.5675 16.3013 16.4456V16.4465ZM10.0426 16.9575C10.6182 16.8609 11.1582 17.4918 10.9248 18.03C10.7541 18.6037 9.90663 18.7584 9.53163 18.2906C9.09288 17.8406 9.42101 17.0193 10.0426 16.9575ZM19.5619 16.9828C20.0757 16.7709 20.7057 17.2078 20.6663 17.7562C20.6869 18.359 19.9088 18.7753 19.4073 18.4228C18.8382 18.1068 18.9423 17.1759 19.5619 16.9828ZM22.2226 19.6078C22.0219 19.2394 22.3866 18.7509 22.8038 18.8193C23.0101 18.8156 23.1554 18.9759 23.2876 19.1109C23.3148 19.3293 23.3607 19.59 23.176 19.7578C22.9257 20.07 22.3585 19.9809 22.2226 19.6078ZM6.97132 18.9215C7.36038 18.6675 7.92007 19.0472 7.83195 19.4934C7.78507 19.89 7.27882 20.1159 6.94601 19.8909C6.58788 19.6875 6.60101 19.1072 6.97132 18.9215ZM14.6523 19.7493C15.1613 19.529 15.8101 19.965 15.7613 20.5162C15.7988 21.1256 14.9973 21.5475 14.4994 21.1819C13.9463 20.8678 14.0391 19.9434 14.6523 19.7493ZM11.0954 20.5659C11.5285 20.3419 12.1098 20.729 12.0704 21.2072C12.0835 21.599 11.6954 21.9328 11.3016 21.8747C10.9763 21.8681 10.7644 21.5803 10.6594 21.3075C10.6651 21.0103 10.7898 20.6793 11.0954 20.5668V20.5659ZM18.301 20.5734C18.7473 20.3015 19.381 20.6915 19.3388 21.2015C19.3501 21.7359 18.6338 22.0772 18.2185 21.7265C17.8173 21.4518 17.866 20.7918 18.301 20.5734ZM19.5544 23.6203C19.3557 23.3259 19.5891 22.9706 19.9107 22.9031C20.1704 22.9547 20.4451 23.1469 20.3898 23.4412C20.3523 23.8415 19.7579 23.9634 19.5544 23.6212V23.6203ZM9.60663 23.3644C9.68538 23.13 9.87663 22.8984 10.1569 22.9594C10.5648 22.9875 10.6857 23.5931 10.3285 23.7797C10.0079 23.9925 9.63476 23.7009 9.60663 23.3644ZM14.4066 23.6334C14.4844 23.2865 14.9391 23.1187 15.2391 23.3025C15.4379 23.3869 15.496 23.6043 15.5466 23.79C15.5199 23.8864 15.4949 23.9833 15.4716 24.0806C15.3488 24.2231 15.1904 24.3665 14.986 24.3619C14.6063 24.4059 14.2632 23.9831 14.4057 23.6334H14.4066Z" fill="white"/>
</g>
<defs>
<filter id="filter0_d_120_35720" x="3.68799" y="5.12537" width="22.6143" height="20.7396" filterUnits="userSpaceOnUse" color-interpolation-filters="sRGB">
<feFlood flood-opacity="0" result="BackgroundImageFix"/>
<feColorMatrix in="SourceAlpha" type="matrix" values="0 0 0 0 0 0 0 0 0 0 0 0 0 0 0 0 0 0 127 0" result="hardAlpha"/>
<feOffset dy="0.5"/>
<feGaussianBlur stdDeviation="0.5"/>
<feColorMatrix type="matrix" values="0 0 0 0 0 0 0 0 0 0 0 0 0 0 0 0 0 0 0.204257 0"/>
<feBlend mode="normal" in2="BackgroundImageFix" result="effect1_dropShadow_120_35720"/>
<feBlend mode="normal" in="SourceGraphic" in2="effect1_dropShadow_120_35720" result="shape"/>
</filter>
<clipPath id="clip0_120_35720">
<rect width="30" height="30" fill="white"/>
</clipPath>
</defs>
</svg>
