<svg width="31" height="30" viewBox="0 0 31 30" fill="none" xmlns="http://www.w3.org/2000/svg">
<g clip-path="url(#clip0_120_35700)">
<path d="M15.4443 30C23.7286 30 30.4443 23.2843 30.4443 15C30.4443 6.71573 23.7286 0 15.4443 0C7.16006 0 0.444336 6.71573 0.444336 15C0.444336 23.2843 7.16006 30 15.4443 30Z" fill="#F3BA2F"/>
<path d="M11.8031 13.5038L15.4443 9.8625L19.0875 13.5056L21.2062 11.3869L15.4443 5.625L9.68434 11.385L11.8031 13.5038ZM6.06934 15L8.18809 12.8812L10.3068 15L8.18809 17.1188L6.06934 15ZM11.8031 16.4963L15.4443 20.1375L19.0875 16.4944L21.2062 18.6122L15.4443 24.375L9.68434 18.615L9.68152 18.6122L11.8031 16.4963ZM20.5818 15L22.7006 12.8812L24.8193 15L22.7006 17.1188L20.5818 15ZM17.5931 14.9981H17.595V15L15.4443 17.1506L13.2965 15.0037L13.2928 15L13.2965 14.9972L13.6725 14.6203L13.8553 14.4375L15.4443 12.8494L17.594 14.9991L17.5931 14.9981Z" fill="white"/>
</g>
<defs>
<clipPath id="clip0_120_35700">
<rect width="30" height="30" fill="white" transform="translate(0.444336)"/>
</clipPath>
</defs>
</svg>
