<svg width="31" height="30" viewBox="0 0 31 30" fill="none" xmlns="http://www.w3.org/2000/svg">
<g clip-path="url(#clip0_120_35712)">
<path d="M15.7773 29.9917C24.0616 29.9917 30.7773 23.276 30.7773 14.9917C30.7773 6.70743 24.0616 -0.00830078 15.7773 -0.00830078C7.49307 -0.00830078 0.777344 6.70743 0.777344 14.9917C0.777344 23.276 7.49307 29.9917 15.7773 29.9917Z" fill="#988430"/>
<path d="M15.7773 29.5113C23.7962 29.5113 30.2969 23.0107 30.2969 14.9918C30.2969 6.9729 23.7962 0.47229 15.7773 0.47229C7.75842 0.47229 1.25781 6.9729 1.25781 14.9918C1.25781 23.0107 7.75842 29.5113 15.7773 29.5113Z" fill="#7A6A2A"/>
<path d="M15.7773 29.2054C23.6273 29.2054 29.9909 22.8418 29.9909 14.9918C29.9909 7.14184 23.6273 0.778198 15.7773 0.778198C7.92737 0.778198 1.56372 7.14184 1.56372 14.9918C1.56372 22.8418 7.92737 29.2054 15.7773 29.2054Z" fill="#BA9F33"/>
<path fill-rule="evenodd" clip-rule="evenodd" d="M7.33564 13.3898C7.25068 13.3122 7.16092 13.2344 7.07836 13.1568C6.9958 13.0792 6.911 13.0015 6.82604 12.9239L6.57356 12.6839C6.53228 12.6426 6.4886 12.6063 6.44732 12.5648C6.40604 12.5285 6.35756 12.4872 6.31628 12.4507C5.98124 12.1328 5.64428 11.8149 5.31388 11.4968C5.65612 11.8099 5.99116 12.1208 6.3334 12.4386L6.45228 12.5576C6.49356 12.5987 6.53724 12.6352 6.57852 12.6765L6.83084 12.9095C6.9158 12.9871 6.99836 13.0648 7.08332 13.1495C7.16828 13.2341 7.25084 13.312 7.3358 13.3895L7.33564 13.3898ZM2.88908 13.3418C2.88908 13.3418 4.10748 13.4679 4.7022 13.5528C5.25308 13.6306 6.97644 13.8951 6.97644 13.8951L2.88908 13.3418ZM2.88908 13.3418C3.23132 13.3709 3.57356 13.4072 3.9158 13.4437C4.09052 13.4607 4.25804 13.48 4.42556 13.497L4.68268 13.5263C4.76764 13.5383 4.8502 13.5504 4.93516 13.5626L5.95468 13.7251L6.46428 13.8101C6.6318 13.8392 6.79932 13.8709 6.97404 13.9C6.80652 13.8831 6.6318 13.8587 6.46428 13.8344L5.95468 13.7616L4.93516 13.6112C4.8502 13.5991 4.76764 13.5819 4.68268 13.5699L4.4254 13.5403C4.25788 13.5234 4.08316 13.4991 3.91564 13.4795C3.5734 13.4384 3.23116 13.3946 2.88892 13.3413L2.88908 13.3418ZM6.85516 14.2125C6.85516 14.2125 5.5542 14.5427 5.11484 14.669C4.68284 14.7879 3.37452 15.1859 3.37452 15.1859L6.855 14.2127L6.85516 14.2125Z" fill="#CFB66C"/>
<path fill-rule="evenodd" clip-rule="evenodd" d="M6.855 14.2125C6.5662 14.2975 6.279 14.38 5.98604 14.4578L5.11708 14.6908C4.82828 14.7757 4.54108 14.8583 4.25308 14.9432L3.82108 15.0621C3.67788 15.1034 3.53228 15.1397 3.38428 15.1812C3.52732 15.1332 3.67308 15.084 3.81628 15.0428L4.24828 14.9045C4.53708 14.8146 4.82428 14.7296 5.11228 14.6399C5.40588 14.5671 5.69484 14.4893 5.98844 14.4189C6.26748 14.3485 6.56124 14.2783 6.855 14.2127V14.2125ZM3.5566 15.9869C3.69964 15.9335 5.3502 15.1642 5.73372 14.9845C5.92572 14.8946 6.4838 14.6965 6.4838 14.6965L3.5566 15.9869Z" fill="#CFB66C"/>
<path fill-rule="evenodd" clip-rule="evenodd" d="M3.55656 15.987C3.68264 15.939 3.80168 15.8802 3.92296 15.8244L4.28216 15.6569L5.00312 15.3098C5.24312 15.1958 5.4764 15.0698 5.72392 14.9626C5.85016 14.9094 5.9764 14.8657 6.10248 14.8244L6.29448 14.7638C6.35992 14.7468 6.42072 14.7273 6.48648 14.7103C6.24648 14.8244 5.99384 14.9215 5.75352 15.033C5.51352 15.1521 5.26808 15.2492 5.0204 15.3559L4.28744 15.6786C4.04136 15.7783 3.80136 15.885 3.5564 15.987H3.55656ZM3.71656 16.659C3.71656 16.659 5.2116 15.7828 5.72616 15.5012C5.9956 15.3508 6.86696 14.9186 6.86696 14.9186L3.71656 16.659Z" fill="#CFB66C"/>
<path fill-rule="evenodd" clip-rule="evenodd" d="M3.7168 16.6593C3.96912 16.5039 4.2264 16.3462 4.48368 16.186L4.86768 15.9529C4.99872 15.8753 5.12496 15.8025 5.25856 15.7249C5.3896 15.6471 5.51584 15.5695 5.64928 15.4967C5.7128 15.4575 5.77936 15.4234 5.84832 15.3948L6.05216 15.2929C6.3216 15.1619 6.59104 15.0283 6.87504 14.9142C6.61776 15.0769 6.35312 15.2153 6.08864 15.3583C5.9576 15.4311 5.824 15.4967 5.69296 15.5695C5.56192 15.6423 5.43568 15.7201 5.30208 15.7905C5.17104 15.8681 5.0448 15.9409 4.91136 16.0113L4.51568 16.2273L3.71712 16.6593H3.7168ZM6.85504 15.1107C6.85504 15.1107 5.92544 15.8243 5.62448 16.0524C5.32352 16.2806 4.4376 16.9214 4.4376 16.9214L6.85504 15.1107Z" fill="#CFB66C"/>
<path fill-rule="evenodd" clip-rule="evenodd" d="M12.19 20.8655L11.7144 19.9651L11.991 18.8388L13.9643 18.0767L13.1244 16.3535L13.5395 14.6132L14.3187 13.0548L16.7265 12.6763L18.4958 10.9894L22.3163 11.2782L23.0662 15.3631L21.622 20.5063L20.7993 23.1691L17.4643 23.2953L15.9158 22.2225L14.1027 21.4651L12.19 20.8655Z" fill="#E2CC85"/>
<path fill-rule="evenodd" clip-rule="evenodd" d="M18.0396 20.8364C18.0396 20.8364 17.5783 21.0476 16.7916 20.999C16.5639 20.6932 14.9694 20.55 14.9694 20.55C14.9694 20.55 14.7703 20.4894 14.4183 20.635C14.0641 20.779 13.729 20.7612 13.4159 20.8388C13.1028 20.9164 12.7919 20.5088 12.5519 20.4238C12.3119 20.334 11.9937 20.118 11.9937 20.118L11.3217 20.0524L9.97224 19.482L7.8284 17.3462L7.24584 18.2582L7.06616 19.3868L7.71432 20.7243L9.45944 22.314L12.8623 23.178L14.8793 22.5838L17.406 21.5158L18.0396 20.8363V20.8364Z" fill="#F1D789"/>
<path fill-rule="evenodd" clip-rule="evenodd" d="M5.9498 13.2879L6.3818 11.9798L6.89652 11.135L8.55412 10.9966L8.05652 12.4481L6.67076 14.9142L7.24596 17.1156L6.2266 17.6252L5.91332 17.1447L5.661 16.0428L5.64404 14.8049L5.9498 13.2879Z" fill="#F4ECB4"/>
<path fill-rule="evenodd" clip-rule="evenodd" d="M7.809 20.7467L7.49108 20.3025C7.49108 20.3025 7.40612 20.0913 7.45476 19.9068C7.50276 19.72 7.49588 19.7078 7.47172 19.6374C7.44756 19.567 7.24356 19.3243 7.25572 19.1155C7.26772 18.9043 7.23876 18.8339 7.39396 18.6665C7.55652 18.504 7.50804 18.2224 7.50804 18.2224L7.71924 18.3534L7.76724 18.2806C7.76724 18.2806 7.84484 18.3412 7.84484 18.436C7.8618 18.3049 7.7914 17.698 7.95156 17.5598C8.11172 17.4216 8.39572 18.2078 8.39572 18.2078L8.221 17.067L7.77188 15.8972L6.97332 14.8292L6.92532 13.652V13.55C6.92532 13.55 6.55876 14.1132 6.45684 14.558C6.38404 14.8638 6.55876 15.2352 6.52244 15.6745C6.49316 16.1115 6.45684 16.0774 6.56356 16.2505C6.67028 16.4236 6.93012 16.7796 6.8282 17.0369C6.73844 17.2579 6.43252 17.1025 6.43252 17.1025C6.43252 17.1025 6.37188 17.282 6.28932 17.3476C6.2602 17.2409 6.22868 17.1729 6.17044 17.1076C6.16548 17.1489 6.15348 17.2048 6.15348 17.2048C6.15348 17.2048 6.10004 17.0372 6.0466 16.826C5.97396 16.5446 5.8962 16.1732 5.8258 15.9742C5.79668 16.0883 5.72388 16.4353 5.72388 16.4353L5.76516 16.9694L5.9642 17.7024L6.1562 18.1824L6.34308 18.7697L6.50548 19.1643L6.63652 19.4652L6.7506 20.1425L7.30148 20.7249L7.59524 20.8561L7.80868 20.7468L7.809 20.7467Z" fill="#F3E19D"/>
<path fill-rule="evenodd" clip-rule="evenodd" d="M6.23842 12.2199C6.23842 12.2199 5.84274 12.8919 5.72882 13.5694C5.6149 14.2468 5.51282 14.9626 5.58482 15.8849C5.65762 16.8146 5.79602 17.3849 5.9077 17.7927C6.0997 18.47 6.59698 19.4118 6.59698 19.4118L6.61394 19.3753C6.53035 19.2168 6.46364 19.0501 6.4149 18.8777C6.3493 18.6204 6.32498 18.3146 6.26434 18.1762C6.2109 18.038 6.12114 17.919 6.07746 17.749C6.03618 17.5865 6.02946 17.3292 5.90274 17.1375C5.8493 17.0598 5.7837 16.8559 5.76434 16.6521C5.74002 16.3462 5.7765 16.0039 5.74738 15.7225C5.69394 15.254 5.65762 14.9361 5.7061 14.6908C5.75458 14.4455 6.00722 13.7492 6.16258 13.1958C6.2645 12.8414 6.2037 12.5428 6.39058 12.2345C6.57746 11.9287 6.6917 11.6593 6.73282 11.4724C6.78082 11.3025 6.23778 12.2199 6.23778 12.2199H6.23842Z" fill="#F2E8B0"/>
<path fill-rule="evenodd" clip-rule="evenodd" d="M8.11492 11.9504C8.11492 11.9504 7.91108 12.0112 7.81396 12.118C7.71684 12.2199 7.67556 12.3048 7.54452 12.4772C7.41348 12.6495 7.40612 12.7903 7.29924 13.0063C7.19252 13.2175 6.957 13.5354 6.92788 13.6495C6.89876 13.7636 6.85028 14.2975 6.78964 14.55C6.7362 14.8024 6.85028 15.1132 6.85028 15.1132L6.98852 15.0839C6.98852 15.0839 6.98852 15.2636 7.12692 15.385C7.26516 15.5039 7.28948 14.982 7.28948 14.982L7.80644 13.2368L8.58548 12.7077L8.67044 12.2805L8.1146 11.9504H8.11492Z" fill="#F5EEC0"/>
<path fill-rule="evenodd" clip-rule="evenodd" d="M8.49341 12.7418C8.49341 12.7418 8.12685 12.766 7.94733 12.8972C7.87453 12.9505 7.84541 12.9942 7.76781 13.0598C7.62461 13.1786 7.47885 13.2879 7.40861 13.4438C7.33085 13.599 7.24589 13.8345 7.18765 14.2786C7.16333 14.4655 7.16333 14.6378 7.14637 14.7884C7.12205 14.9922 7.08573 15.1548 7.10509 15.2684C7.12941 15.5014 7.36973 15.6228 7.39309 15.8873L7.89069 15.635L8.35917 13.7878L9.35437 13.1638L8.79117 12.5327L8.49277 12.7407L8.49341 12.7418Z" fill="#E6DB9D"/>
<path fill-rule="evenodd" clip-rule="evenodd" d="M5.86832 25.1804C5.8704 25.1621 5.87248 25.1439 5.87456 25.1252C5.9472 24.5012 5.95952 24.0282 6.0128 23.7321C6.0904 23.3122 6.14384 23.156 6.13168 22.9989C6.11472 22.7466 6.09536 22.5621 6.11968 22.3679C6.156 22.1106 6.40848 21.8049 6.40128 21.5937C6.39632 21.4261 6.31136 21.317 6.23856 21.2151C6.16576 21.1132 6.10752 21.0282 6.10752 21.0282C6.10752 21.0282 6.60512 20.686 6.60032 19.3073C6.61049 19.3101 6.62026 19.3142 6.62944 19.3194L6.87456 20.0159L7.04208 20.2197L7.68528 21.4188L8.51296 22.2223L9.73616 23.045L10.5032 23.8797L10.5808 26.1055L9.5784 27.4065L9.41424 27.7037C8.11004 27.049 6.91408 26.1979 5.86816 25.1802L5.86832 25.1804Z" fill="#E5CB7A"/>
<path fill-rule="evenodd" clip-rule="evenodd" d="M8.93042 27.3096C8.93042 27.3096 8.94738 27.033 9.17554 26.8533C9.21202 26.9139 9.23618 26.9723 9.22898 27.0159C9.27026 26.9432 9.55906 26.4771 10.212 26.3557C10.865 26.2368 11.0227 25.7611 11.0227 25.7611L12.4085 24.5015L13.9935 23.0427L15.9207 22.3655L16.8213 22.1445C16.8213 22.1445 16.8383 22.2101 16.8043 22.3557C16.9717 22.3437 17.3431 22.2587 17.729 22.1227C17.8843 22.0621 18.0301 22.0378 18.1077 22.1179C18.2218 22.2247 18.2387 22.4771 18.2459 22.6275C18.4328 22.5863 18.6488 22.4067 18.8219 22.4237C19.0987 22.4528 19.3439 22.7781 19.6255 22.7781C19.9968 22.7781 20.1642 22.5499 20.424 22.3703C20.5794 22.2635 20.8026 22.1303 20.9288 22.0402C21.2298 21.8192 24.4143 20.8459 24.4143 20.8459L25.5307 20.9187L25.7104 22.1178L25.6144 25.2522C25.6026 25.2635 25.5907 25.2754 25.5787 25.2867L20.5023 27.9381L13.4655 29.0168C11.8892 28.7593 10.3681 28.2361 8.9669 27.4695L8.9309 27.3095L8.93042 27.3096Z" fill="#D8C173"/>
<path fill-rule="evenodd" clip-rule="evenodd" d="M6.29492 25.5791C6.39492 25.37 6.48484 25.1951 6.50068 25.1326C6.51316 25.2586 6.53604 25.5353 6.58212 25.8294C6.48537 25.7471 6.38964 25.6637 6.29492 25.579V25.5791Z" fill="#F1D789"/>
<path fill-rule="evenodd" clip-rule="evenodd" d="M11.4352 28.5289L12.3453 28.2758L12.4229 28.3001C12.4229 28.3001 12.4642 28.3245 12.4642 28.4069C12.5782 28.3414 12.6754 28.3534 12.7458 28.3099C12.7821 28.3875 12.8184 28.6448 12.9787 28.6763C13.1461 28.7128 13.3258 28.6035 13.5078 28.4653C13.6874 28.3221 13.8918 28.1424 14.0466 28.0696C14.1033 28.174 14.1536 28.2817 14.1971 28.3923C14.401 28.2297 14.7554 27.5696 15.2602 27.5816C15.4061 27.2368 15.6498 26.9423 15.9613 26.7345C16.4298 26.4166 16.7234 26.3923 17.0899 26.4214C17.2355 26.2323 17.4149 26.0718 17.619 25.9481C17.6797 25.9725 17.8472 26.0744 18.056 25.9773C18.2672 25.8803 18.505 25.504 18.8181 25.4555C18.9868 25.4323 19.1584 25.4683 19.3035 25.5574C19.3035 25.5574 20.2155 24.652 20.8448 24.351C20.8205 24.2782 20.772 24.004 21.5098 23.3971C21.551 23.4336 21.5219 23.5355 21.551 23.5411C21.563 23.5411 21.743 23.4635 21.9709 23.2886C22.2525 23.0776 22.5898 22.8566 22.7936 22.796C23.1776 22.6819 23.585 22.9149 23.585 22.9149C23.6196 22.8906 23.6582 22.8725 23.699 22.8614C23.796 22.8445 23.8664 22.8323 23.9198 22.8134C23.915 22.9397 23.9854 23.1557 23.9198 23.3425C23.9958 23.3853 24.0763 23.4195 24.1598 23.4445C24.1187 23.5342 24.0288 23.7624 23.8784 23.8717C24.0045 23.9323 24.0214 24.0027 24.2011 24.0637C24.1283 24.1656 24.0091 24.3405 23.956 24.4477C23.9026 24.5617 23.7107 25.035 23.6258 25.2145C23.536 25.3942 23.4147 25.7243 23.3563 25.7905C23.2979 25.8568 23.0869 26.1376 22.9243 26.2758C23.0683 26.2224 23.6574 26.0429 23.9074 25.9749C23.833 26.084 23.4558 26.6435 23.0933 27.1816C21.3574 28.222 19.4196 28.8806 17.4092 29.1133C15.3988 29.3461 13.3618 29.1477 11.4341 28.5313L11.4352 28.5289Z" fill="#E0CD81"/>
<path fill-rule="evenodd" clip-rule="evenodd" d="M8.55348 12.6763C8.55348 12.6763 8.34244 12.6763 8.30116 12.7054C8.25988 12.7345 8.51236 12.7953 8.58996 12.8244C8.66756 12.8535 8.83508 12.987 8.87876 13.0939C8.92004 13.1958 10.3957 13.7903 10.3957 13.7903L11.4394 13.7369L11.7992 13.2398L11.1148 12.6403L11.5948 11.2252L10.9589 11.3271L9.4298 12.2391L8.66276 12.5329L8.55348 12.6763Z" fill="#DFC57C"/>
<path fill-rule="evenodd" clip-rule="evenodd" d="M10.8455 13.1447C10.8606 13.1691 10.8818 13.1892 10.9071 13.2028C10.9324 13.2164 10.9608 13.2231 10.9895 13.2223C11.2055 13.2223 11.4044 13.2757 11.4869 13.3849C11.6253 13.5597 12.0088 14.118 12.0088 14.118L12.9263 14.4481L12.9855 13.3677L11.9831 12.6713L10.8423 13.0911V13.1445H10.8448L10.8455 13.1447Z" fill="#E5CC7C"/>
<path fill-rule="evenodd" clip-rule="evenodd" d="M10.6654 13.5452C10.6654 13.5452 10.8327 13.5574 11.0439 13.4796C11.2551 13.4018 11.6022 13.2345 11.7527 13.3001C11.9638 13.3898 11.9201 13.6714 12.1484 13.9241C12.2866 14.0794 12.5391 14.0746 12.6823 14.2422C12.8255 14.4097 13.3182 14.3319 13.3182 14.3319L13.505 15.3399L12.7551 16.3012L12.5098 17.4953H11.4958L10.5694 17.1278L10.113 16.0238L10.3412 14.9073L10.6654 13.5452Z" fill="#D2C281"/>
<path fill-rule="evenodd" clip-rule="evenodd" d="M12.6269 13.5937C12.6521 13.6014 12.6782 13.6055 12.7045 13.6058C12.6754 13.6301 12.6146 13.6834 12.6389 13.8218C12.6632 13.9602 12.7408 14.1349 12.6754 14.2417C12.7276 14.2988 12.7666 14.3668 12.7895 14.4407C12.8307 14.5597 12.8429 14.6689 13.1122 14.686C13.0733 14.7099 13.0375 14.7384 13.0055 14.7709C13.0055 14.7709 13.1923 14.9335 13.2871 15.0839C13.384 15.0797 13.6413 14.9997 13.6413 14.9997L13.6947 15.0362L13.8088 14.9882C13.8088 14.9882 13.7021 14.9469 13.7797 14.6873C13.8525 14.4591 13.9181 14.4713 13.9237 14.4543C13.9293 14.4373 13.9771 14.197 13.9771 14.0999C14.0135 13.9738 14.0426 13.5903 14.0426 13.5903L13.965 12.7433L13.5282 12.4786L13.173 12.1357L12.8379 12.7668L12.6173 12.9868L12.6003 13.5329L12.6269 13.5937Z" fill="#E2C270"/>
<path fill-rule="evenodd" clip-rule="evenodd" d="M13.6777 12.8851C13.6777 12.8851 13.7553 13.1059 13.7846 13.2758C13.7949 13.2428 13.8006 13.2085 13.8016 13.1739C13.8016 13.1739 13.8622 13.5089 13.8742 13.6473C13.8985 13.6424 13.9222 13.6352 13.9277 13.6593C13.9331 13.6835 13.9885 13.9531 13.9757 14.1035C14.0767 13.9367 14.2166 13.7969 14.3833 13.6958C14.4805 13.635 14.5945 13.5696 14.7136 13.5646C14.9005 13.5598 15.0363 13.6836 15.2597 13.6836C15.7984 13.6836 16.2864 13.288 16.6456 13.1667C16.9101 13.0768 17.1382 13.0113 17.2984 12.8656C17.3761 12.8001 17.5145 12.6545 17.6406 12.4384C17.8081 12.1504 17.9829 11.8996 18.1577 11.8681C18.0786 11.8827 17.9981 11.8884 17.9177 11.8851C17.9177 11.8851 17.9712 11.8316 18.0617 11.7588C18.1523 11.686 18.2608 11.5963 18.416 11.5963C18.6928 11.5963 18.831 11.6374 18.9864 11.6374C19.1417 11.6326 19.2315 11.5963 19.2315 11.5963C19.2315 11.5963 19.3942 11.7104 19.7606 11.7104C20.1272 11.7152 20.3723 11.7467 20.5641 11.7638C20.756 11.7809 21.399 11.7104 21.5835 11.7158C21.7038 11.7204 21.8219 11.7493 21.9307 11.8008L21.336 10.0728L19.1997 8.20557L17.9278 9.10605L15.9713 11.0624L14.0782 11.7638L13.6825 12.208V12.8851H13.6777Z" fill="#CCB360"/>
<path fill-rule="evenodd" clip-rule="evenodd" d="M17.9256 11.8946C17.9256 11.8946 17.979 11.8413 18.0686 11.7685C18.1582 11.6957 18.2678 11.6058 18.423 11.6058C18.6997 11.6058 18.8381 11.6471 18.9934 11.6471C19.1488 11.6423 19.2386 11.6058 19.2386 11.6058C19.2386 11.6058 19.4014 11.7197 19.7677 11.7197C20.1342 11.7245 20.3794 11.7561 20.5712 11.773C20.763 11.79 21.4061 11.7197 21.5906 11.725C21.7108 11.7295 21.8289 11.7584 21.9376 11.81L21.6682 11.0308L21.3552 10.4362L20.4619 9.45797C20.4619 9.45797 19.3899 8.82693 19.3818 8.82213C19.377 8.81733 19.0104 8.72021 19.0104 8.72021L18.0395 9.30757L17.1586 11.5868L17.1416 12.0668L17.7118 12.3362C17.855 12.0962 18.013 11.9042 18.161 11.8799C18.0274 11.8945 17.9254 11.8945 17.9254 11.8945L17.9256 11.8946Z" fill="#D5B457"/>
<path fill-rule="evenodd" clip-rule="evenodd" d="M17.9134 12.0574C17.8285 12.0622 17.7582 12.0453 17.7387 11.9846C17.6659 11.7808 17.6077 11.7517 17.5467 11.7517C17.4857 11.7517 17.4035 11.8827 17.3547 11.8947C17.3059 11.9067 17.248 11.7443 17.248 11.7443L17.1945 11.72C17.1945 11.72 16.8814 11.9238 16.6606 12.1641C16.4398 12.4045 16.0781 12.8123 15.9155 12.8849C15.7529 12.9576 15.1945 12.9821 15.0035 13.0233C14.8125 13.0646 14.6006 13.203 14.5715 13.2345C14.5424 13.2661 14.6566 13.3 14.6736 13.3315C14.6905 13.3606 14.4865 13.3485 14.4696 13.3795C14.4576 13.4038 14.5176 13.5421 14.5473 13.6125C14.5994 13.5866 14.6566 13.5725 14.7147 13.5712C14.9016 13.5664 15.0376 13.6902 15.2608 13.6902C15.7997 13.6902 16.2875 13.2945 16.6467 13.1731C16.9113 13.0833 17.1395 13.0177 17.2997 12.8721C17.3773 12.8067 17.5157 12.6609 17.6419 12.4449C17.7341 12.2969 17.824 12.1585 17.9139 12.0566L17.9134 12.0574Z" fill="#D2B257"/>
<path fill-rule="evenodd" clip-rule="evenodd" d="M10.1853 24.0695C10.1853 24.0695 10.1373 23.8898 9.69246 23.4263C9.56622 23.2953 9.48862 23.1863 9.40366 23.1084C9.19246 22.9092 9.06862 22.8559 8.91822 22.7418C8.58814 22.4967 8.22894 22.4967 7.9523 22.1957C7.67566 21.8948 7.35326 21.3197 7.12926 20.7321C6.90846 20.1447 6.84766 19.9578 6.84766 19.9409C6.84766 19.9239 6.90846 19.8098 6.98606 19.8268C7.06366 19.8437 7.06366 19.9941 7.08318 20.0306C7.12184 20.0902 7.16569 20.1462 7.21422 20.198C7.3283 20.3292 7.49086 20.486 7.57342 20.7199C7.55646 20.5209 7.48846 20.3001 7.48846 20.3001C7.48846 20.3001 7.91566 20.5695 8.27966 20.8509C8.64622 21.1325 8.79662 21.2297 8.90366 21.4092C9.0107 21.5887 9.26286 22.0621 9.38366 22.2005C9.50446 22.3389 11.1597 22.8607 11.1597 22.8607L11.947 23.4477L12.3379 24.3045L12.032 24.7845L11.4446 24.9108L10.4907 24.4836L10.1853 24.0693V24.0695Z" fill="#D2B159"/>
<path fill-rule="evenodd" clip-rule="evenodd" d="M8.06616 21.118C8.06616 21.118 8.2652 21.4359 8.75064 21.7369C9.1876 22.0015 9.87928 22.2419 10.4959 22.3851C10.8502 22.47 11.2046 22.5355 11.5225 22.5404C12.3793 22.5524 12.969 22.3075 13.6998 22.2273C14.0954 22.186 14.5809 22.1545 15.0857 22.0353C15.7337 21.8799 16.1172 21.7051 16.6391 21.4593C17.0177 21.2846 17.3649 21.1535 17.6463 20.986C18.042 20.7531 18.3308 20.4934 18.6658 20.4158C18.6246 20.5299 18.5809 20.7337 18.2508 20.9449C18.4255 20.9399 18.6658 20.9279 18.6658 20.9279C18.6658 20.9279 18.4329 21.0662 18.0226 21.3769C17.7702 21.5689 17.4353 21.8939 17.093 22.1099C16.8721 22.2483 16.6318 22.3499 16.474 22.4327C16.09 22.6439 15.9351 22.7507 15.6828 23.0087C15.7726 23.0039 15.7799 23.0087 15.7799 23.0087C15.7799 23.0087 15.4618 23.05 15.2338 23.1713C15.1858 23.1713 15.1026 23.1543 14.957 23.1956C14.843 23.2319 14.6924 23.3147 14.5372 23.3582C14.3162 23.4238 14.2436 23.3947 14.2436 23.3947L14.2799 23.4675C14.2799 23.4675 13.9919 23.4625 13.8959 23.4723C13.9129 23.4771 13.9081 23.4844 13.9081 23.4844C13.8912 23.4872 13.875 23.493 13.8601 23.5014C13.8139 23.5313 13.7631 23.5534 13.7097 23.5668C13.6806 23.5716 13.6562 23.5716 13.6198 23.579C13.6319 23.6081 13.7266 23.771 13.7703 23.867C13.734 23.8913 13.1878 24.3039 13.1878 24.3039C13.2047 24.3306 13.2186 24.3591 13.229 24.3889C13.246 24.4422 13.2534 24.5199 13.2703 24.5563C13.3114 24.6291 13.3358 24.6412 13.3358 24.6412C13.3358 24.6412 13.2703 24.6534 13.1561 24.6825C13.0591 24.7068 12.9401 24.7479 12.7721 24.7723C12.7205 24.779 12.6687 24.783 12.6167 24.7844C12.641 24.8379 12.7478 25.0417 12.5511 25.2771C12.3545 25.5124 12.2938 25.5467 12.2332 25.6971C12.2027 25.674 12.1702 25.6536 12.1361 25.6363C12.0706 25.6071 11.9807 25.5636 11.9492 25.5052C11.9308 25.583 11.9065 25.6593 11.8764 25.7334C11.8158 25.8959 11.726 26.0563 11.709 26.1775C11.6434 26.1047 11.5222 25.9615 11.3546 25.9907C11.1871 26.0198 11.0537 26.2479 11.0246 26.3135C11.0246 26.2723 10.9954 26.2407 10.9882 26.2892C10.9833 26.3427 10.8911 26.9007 10.3766 27.3523C10.3718 27.2382 10.3718 26.9857 10.3596 26.9033C10.3116 26.9513 10.2529 27.0222 9.90328 27.1727C9.56104 27.3231 9.61528 27.4737 9.61528 27.4737C9.61528 27.4737 9.58616 27.2337 9.77064 26.9809C9.95752 26.7286 10.0716 26.6095 10.0716 26.5902C10.0686 26.5705 10.0602 26.552 10.0473 26.5367C10.023 26.5124 9.97448 26.4833 9.97448 26.4639C10.0036 26.4519 10.2924 26.3135 10.2754 26.027C10.2585 25.7699 10.1494 25.6363 10.0716 25.5417C10.0596 25.5295 10.1858 25.4398 10.1687 25.4107C10.1566 25.3937 10.0014 25.2795 9.98184 25.2187C9.98643 25.1824 9.99458 25.1466 10.0062 25.1119C10.0231 25.0585 10.0353 25.022 10.0305 24.9857C10.0183 24.9251 9.95272 24.7575 9.93336 24.7406C9.95032 24.7454 10.0716 24.7406 10.0716 24.7406C10.0716 24.7406 9.97464 24.5852 9.95752 24.5124C9.9404 24.4396 9.90408 24.2478 9.88472 24.2115C9.926 24.2163 10.0279 24.2235 10.0279 24.2115C10.0329 24.175 9.93816 24.1143 9.97992 24.0675C10.009 24.0723 10.0649 24.0966 10.1182 24.1646C10.089 24.0868 10.0406 23.9364 9.93848 23.8758C9.98648 23.8588 10.1497 23.815 10.2929 23.8999C10.4361 23.9849 10.4849 24.1038 10.4849 24.1038C10.4849 24.1038 10.5698 24.1694 10.701 24.2665C10.8514 24.3854 11.0431 24.5545 11.349 24.6742C11.4146 24.7107 11.582 24.7107 11.7034 24.6863C11.7563 24.6737 11.807 24.6533 11.8538 24.6257C11.8708 24.6157 11.8887 24.6076 11.9073 24.6014C11.8812 24.549 11.8512 24.4987 11.8175 24.4508C11.8588 24.4508 11.9073 24.4558 11.9073 24.4558C11.9073 24.4558 11.9364 24.3902 11.8054 24.2638C11.8345 24.2347 11.871 24.2158 11.871 24.1667C11.8297 24.1619 11.7569 24.1012 11.7399 24.0769C11.7641 24.0599 11.8006 24.0041 11.8418 23.9871C11.8054 23.958 11.7156 23.8366 11.6743 23.8246C11.7138 23.8099 11.7519 23.7921 11.7884 23.7711C11.7884 23.7711 11.5846 23.7177 11.519 23.674C11.4534 23.626 11.3564 23.543 11.2982 23.5187C11.2374 23.4943 11.1306 23.4823 11.087 23.4337C11.1281 23.4459 11.1937 23.4337 11.2423 23.4337C11.2786 23.4337 11.2958 23.4385 11.3078 23.4385C11.303 23.4215 11.303 23.3851 11.3977 23.3731C11.4432 23.3662 11.4875 23.3523 11.5287 23.3318C11.5287 23.3318 11.4388 23.327 11.3367 23.2299C11.2346 23.1327 11.1498 23.0551 11.0916 23.043C11.031 23.0308 10.9169 23.0843 10.8465 23.0793C10.7494 23.0673 10.7081 23.0187 10.7081 23.0187C10.7081 23.0187 10.3854 23.0478 9.66936 22.611C9.05032 22.2323 8.78088 21.8974 8.78088 21.8974C8.72295 21.8763 8.66695 21.8503 8.61352 21.8196C8.38056 21.6983 8.05768 21.4459 8.06744 21.1156L8.06616 21.118Z" fill="#C2A44D"/>
<path fill-rule="evenodd" clip-rule="evenodd" d="M16.9959 6.54997C17.052 6.56822 17.1019 6.60187 17.1399 6.64709C17.254 6.77813 17.3268 7.02565 17.0671 7.29029C17.169 7.32661 17.2111 7.33829 17.3001 7.32661C17.2103 7.43349 17.0065 7.66165 16.9943 7.86069C16.9821 8.02325 17.084 8.07189 17.084 8.07189C17.084 8.07189 16.9287 8.25141 16.9215 8.55189C16.9949 8.46916 17.0751 8.39283 17.1615 8.32373C17.3412 8.18053 17.5887 8.01797 17.7562 7.91605C17.7539 7.95877 17.7597 8.00154 17.7732 8.04213C17.7732 8.04213 18.0861 7.78485 18.3492 7.89909C18.4681 7.95253 18.4146 8.11989 18.4146 8.11989C18.4146 8.11989 18.5773 8.05925 18.6914 8.17333C18.8055 8.28741 18.9668 8.58165 19.0495 8.69573C19.0858 8.74917 19.1805 8.85109 19.2775 9.00885C19.41 9.22972 19.5206 9.46299 19.6077 9.70533C19.6125 9.57909 19.6441 9.38261 20.0034 9.50629C20.3626 9.63253 20.7703 9.89717 21.1125 10.4183C21.4548 10.9394 21.5396 11.5277 21.7119 11.7517C21.8866 11.9677 22.0663 12.3269 22.0785 12.4775C22.0906 12.6281 22.025 13.1133 22.3842 14.4265C22.4861 14.0188 22.6415 13.1133 22.6415 13.1133L22.7265 12.3148L22.8236 9.84389L20.2434 7.70037L18.2265 6.23669L16.9133 6.36293L16.9957 6.54981L16.9959 6.54997Z" fill="#CAA13E"/>
<path fill-rule="evenodd" clip-rule="evenodd" d="M21.7896 10.2272C21.7896 10.2272 21.7532 9.98716 21.1464 9.57916C20.5396 9.17628 20.0663 9.17628 19.6295 8.83404C19.2944 8.5646 18.945 7.94556 18.7175 7.74172C18.4965 7.54028 18.4602 6.95772 18.4602 6.95772L19.2053 6.33372L20.3135 4.73196L21.2503 3.70044L21.6992 4.32444L22.3232 5.0574L22.6703 6.52828L22.7965 8.68124L21.7885 10.2273L21.7896 10.2272Z" fill="#B59544"/>
<path fill-rule="evenodd" clip-rule="evenodd" d="M22.5395 12.8078C22.5579 12.4813 22.5176 12.1541 22.4205 11.8418C22.2605 11.3442 21.9109 10.4607 21.7485 10.1298C21.6829 9.76329 21.7315 9.73417 21.8019 9.69289C21.8723 9.65161 22.137 9.50089 22.2819 8.97209C22.4269 8.44329 22.8766 8.42601 22.8766 8.42601L23.1533 8.22217L23.5733 9.27305L23.9397 10.2222L24.0538 10.9479L24.1387 11.5668L23.9397 12.8751L22.9568 13.7634L22.5394 12.8078H22.5395Z" fill="#C89D3A"/>
<path fill-rule="evenodd" clip-rule="evenodd" d="M8.82373 27.39V27.3631C8.84416 27.3504 8.86219 27.3341 8.87701 27.3151C8.89397 27.2908 8.90629 27.2617 8.91829 27.2545C8.94261 27.2423 9.05669 27.2065 9.11733 27.218C9.17797 27.2295 9.33829 27.2956 9.42325 27.2908C9.59797 27.286 9.80181 27.1524 10.1247 27.2132C10.6101 27.303 10.7242 27.6331 11.0058 27.8199C11.1978 27.9511 11.3965 27.8927 11.4257 27.8927H11.4911C11.5032 27.8927 11.593 27.7908 11.6417 27.7958C11.7388 27.8006 11.7484 27.8807 11.809 27.8855C11.9522 27.9025 12.229 27.8127 12.3674 27.8492C12.4084 27.8621 12.4458 27.8847 12.4762 27.9151C12.5066 27.9455 12.5292 27.9828 12.5421 28.0238C12.5712 28.1135 12.5469 28.2276 12.4765 28.2932C12.3261 28.4315 12.1829 28.5627 12.1538 28.6772C12.1908 28.7055 12.2264 28.7356 12.2604 28.7675C11.0594 28.4615 9.90398 27.9988 8.82373 27.3915V27.39Z" fill="#CEB052"/>
<path fill-rule="evenodd" clip-rule="evenodd" d="M21.7483 22.5404C21.7483 22.5404 22.1269 22.0356 22.2581 21.7855C22.3891 21.5278 21.843 18.2638 21.843 18.2638L22.9401 14.6692L22.9108 13.4993C22.9108 13.4993 22.9643 12.4191 23.0905 11.9506C23.2411 12.2201 23.7096 12.5454 23.8115 12.7177C23.8595 12.3874 24.0225 11.691 23.9984 10.9482C24.0881 11.0865 24.3041 12.4774 24.3041 12.4774L24.5201 13.4142L24.8017 14.4094L25.1148 15.4604L25.3017 16.1862L25.4084 16.3609L25.4984 16.6666L25.5833 16.9969L25.8284 17.7711L25.9724 18.407L26.0865 19.5599C26.1113 19.6482 26.1292 19.7383 26.14 19.8294C26.1448 19.9556 26.123 20.0284 26.123 20.0503C26.123 20.0722 26.1643 20.327 26.1473 20.5188C26.123 20.7108 26.123 20.861 25.9724 20.9988C25.8219 21.1366 25.7273 21.9599 25.7273 21.9599L25.4579 21.7804C25.4579 21.7804 25.5113 21.5351 25.3851 21.3119C25.2588 21.0887 25.0137 21.0425 24.8753 21.079C24.7371 21.1081 24.4604 21.1516 24.3705 21.2294C24.2856 21.307 24.0769 21.5473 23.8851 21.6566C23.6451 21.8006 23.254 21.8119 23.0454 21.8604C22.8342 21.9084 22.6013 22.0524 22.356 22.2196C22.1637 22.3441 21.9606 22.4512 21.7492 22.5396L21.7483 22.5404Z" fill="#CCA847"/>
<path fill-rule="evenodd" clip-rule="evenodd" d="M21.7483 27.8438C21.7483 27.8438 21.7643 27.8542 21.7952 27.8711C23.5196 27.0632 25.0646 25.918 26.3392 24.5031C26.3252 24.0119 26.3072 23.5084 26.2873 23.3219C26.2462 22.9262 26.2753 22.5233 26.2632 22.2903C26.251 22.0574 26.12 21.1083 26.0593 20.8631C25.9937 20.618 25.8673 20.4966 25.8481 20.4966C25.8312 20.5015 25.7291 20.9579 25.7291 21.0726C25.7291 21.1873 25.7048 21.4635 25.7048 21.5339C25.6878 21.5289 25.6806 21.4859 25.6806 21.4683C25.6563 21.5289 25.6272 21.6358 25.615 21.6479C25.6028 21.6601 25.632 21.546 25.615 21.5217C25.598 21.4974 25.567 21.5095 25.5737 21.4489C25.5766 21.4129 25.5823 21.3773 25.5907 21.3422C25.5907 21.3422 25.5179 21.4489 25.4646 21.7207C25.4112 21.9902 25.4112 21.9975 25.3918 22.0217C25.3748 22.051 25.2777 22.1479 25.2728 22.1844C25.268 22.2499 25.3627 22.3155 25.3699 22.3518C25.3747 22.4126 25.2849 22.694 25.2558 22.8318C25.2267 22.9695 25.2388 23.2395 25.2078 23.3779C25.1835 23.5041 25.1598 23.5769 25.0768 23.6302C25.1374 23.6423 25.1956 23.6593 25.1956 23.6593C25.1956 23.6593 25.2806 24.0185 25.0646 24.3244C24.987 24.4311 24.9676 24.4798 24.8851 24.5769C24.7224 24.7564 24.5961 24.9609 24.584 25.0939C24.5756 25.0546 24.5699 25.0148 24.567 24.9748C24.567 24.9748 24.3147 25.2686 24.2078 25.4361C24.0696 25.6521 23.8777 25.6399 23.8238 25.6934C23.7699 25.7468 23.7582 25.8438 23.7758 25.9215C23.7278 25.9335 23.6376 25.9507 23.5768 26.1375C23.5476 26.2345 23.4748 26.3295 23.3608 26.3948C23.2467 26.4601 23.1083 26.4798 23.0379 26.4967C23.0985 26.5137 23.1229 26.5137 23.152 26.5331C23.1157 26.5937 22.9481 26.6884 22.7612 26.8099C22.5744 26.9239 22.4845 27.0913 22.4384 27.2006C22.3904 27.3025 22.3195 27.3681 22.2054 27.3803C22.2534 27.4094 22.3244 27.4772 22.3608 27.4991C22.3073 27.5113 22.2168 27.5113 22.055 27.6497C21.8851 27.7905 21.8268 27.8318 21.7491 27.8439L21.7483 27.8438Z" fill="#C39D3C"/>
<path fill-rule="evenodd" clip-rule="evenodd" d="M18.3709 28.9686C18.4639 28.9034 18.5645 28.8501 18.6706 28.8097C19.0492 28.6593 19.4496 28.6302 19.6074 28.5817C19.758 28.5337 19.8768 28.4675 20.0637 28.4312C20.0588 28.4737 20.0546 28.5137 20.0501 28.5515C19.4992 28.7247 18.9381 28.864 18.3701 28.9686H18.3709Z" fill="#D2BA6B"/>
<path fill-rule="evenodd" clip-rule="evenodd" d="M25.3534 19.0113C25.3534 19.0113 25.2758 19.4312 25.1374 19.6958C24.999 19.9605 24.8494 20.3268 24.8494 20.3268C24.8503 20.2443 24.8601 20.1621 24.8785 20.0816C24.7038 20.1835 24.279 20.4288 24.1585 20.5379C24.0445 20.6398 23.8526 20.8195 23.8041 20.9045C23.9182 20.5696 24.0371 20.2686 24.0566 20.1302C23.8819 20.2565 23.0662 20.9288 22.6416 21.3729L21.3187 22.4433C21.166 22.5257 21.0088 22.5993 20.8478 22.6638C20.6198 22.7608 20.3504 22.8433 20.1513 22.9211C20.2048 22.7779 20.2896 22.6515 20.4086 22.5302C20.5349 22.4113 20.9134 22.0011 20.9717 21.8102C21.0251 21.6112 21.0373 21.4923 20.9669 21.3248C20.9013 21.3417 20.7509 21.3491 20.6489 21.3782C20.547 21.4073 20.4377 21.5165 20.4377 21.5165C20.4377 21.5165 20.5153 21.0723 20.6829 20.6525C20.5566 20.6573 20.3406 20.6936 20.3406 20.6936C20.3406 20.6936 20.6416 20.1888 21.1566 19.8369C20.9989 19.8705 20.8445 19.9184 20.6955 19.98C20.3945 20.1062 20.0645 20.2931 19.8193 20.395C19.9576 20.203 20.9285 18.8174 21.5062 17.5261C22.0822 16.2373 22.2974 15.9072 22.4237 15.2155C22.4891 14.8733 22.4717 14.3675 22.4891 13.9145C22.5061 13.4654 22.5619 13.0625 22.5256 12.7931C22.676 12.98 23.2392 13.5067 23.2585 14.684C23.2755 15.8611 22.7198 17.451 22.1299 18.3077C22.2739 18.3489 22.647 18.3976 23.0304 17.7316C23.4137 17.0657 23.4091 16.8798 23.5475 16.603C23.5645 16.7414 23.5595 16.7899 23.5595 16.7899C23.5595 16.7899 24.1179 16.1128 24.3824 15.2608C24.4358 15.6273 24.5936 15.9502 24.3459 16.6225C24.1251 17.2293 23.8363 17.3774 23.8363 17.3774C23.8363 17.3774 23.9795 17.3531 24.1905 17.2268C24.227 17.3166 24.2198 17.4188 24.2805 17.455C24.3411 17.4912 24.4237 17.5521 24.4358 17.6104C24.5013 17.5133 24.6032 17.3894 24.6349 17.2972C24.6105 17.4892 24.5936 18.3288 24.6829 18.756C24.8699 18.739 25.0616 18.7268 25.1926 18.3894C25.1029 18.7196 25.1029 18.9185 25.1635 19.2001C25.263 19.1323 25.3528 19.0108 25.3528 19.0108L25.3534 19.0113Z" fill="#C0993A"/>
<path fill-rule="evenodd" clip-rule="evenodd" d="M19.0469 5.63251C19.0469 5.63251 18.86 5.71011 18.5421 5.71011C18.2655 5.71011 18.3431 5.60339 17.9111 5.60339C17.2461 5.60339 14.9232 5.98739 14.5154 5.98195C14.2508 5.97715 15.4085 6.09603 15.4085 6.09603L18.3674 6.13731L18.962 6.08931L19.1829 5.63971L19.0469 5.63251Z" fill="#A88F33"/>
<path fill-rule="evenodd" clip-rule="evenodd" d="M11.3745 11.4166C11.3745 11.4166 10.9958 11.7054 10.8356 11.9264C10.6755 12.1473 10.5905 12.2928 10.4084 12.4724C10.4512 12.4741 10.4939 12.4683 10.5347 12.4555C10.5347 12.4555 10.5347 12.5035 10.5056 12.5161C10.5307 12.5133 10.5562 12.5162 10.5801 12.5245C10.604 12.5328 10.6258 12.5463 10.6438 12.5641C10.5904 12.5932 10.4448 12.739 10.5588 12.9113C10.6438 13.0424 10.8235 13.0544 10.8235 13.0544C10.8235 13.0544 10.7822 13.1734 10.9545 13.1612C11.3259 13.1443 11.7409 12.9816 11.9326 13.0228C12.1246 13.0708 12.2337 13.0884 12.3696 13.324C12.5136 13.5569 12.639 13.5934 12.639 13.5934C12.639 13.5934 12.724 13.3772 12.7046 13.0545C12.7743 12.8806 12.8129 12.6957 12.8187 12.5084L12.6924 11.5788L12.1416 10.8822L11.428 11.2779L11.3745 11.4161V11.4166Z" fill="#E3C571"/>
<path fill-rule="evenodd" clip-rule="evenodd" d="M12.0515 11.2782C12.0515 11.2782 12.105 11.4044 12.3283 11.4164C12.304 11.4699 12.304 11.4772 12.3114 11.5183C12.3162 11.5596 12.3234 11.6203 12.3234 11.6203C12.3479 11.6084 12.3702 11.5921 12.389 11.5723C12.4011 11.6257 12.3768 11.7105 12.389 11.7713C12.3965 11.8083 12.4087 11.8442 12.4253 11.878C12.4288 11.8697 12.4329 11.8617 12.4374 11.8539C12.4422 11.8417 12.4854 11.9849 12.605 12.0939C12.6048 12.0771 12.609 12.0606 12.617 12.0459C12.6188 12.0763 12.6289 12.1057 12.6461 12.1308C12.6371 12.1266 12.629 12.1208 12.6219 12.1139C12.6219 12.1139 12.6339 12.4979 12.6995 12.6964C12.7105 12.6836 12.7202 12.6698 12.7286 12.6551C12.7286 12.6431 12.7238 12.762 12.7117 12.8471C12.6947 12.9321 12.7069 13.051 12.7069 13.051C12.7506 13.0165 12.7987 12.988 12.8499 12.966C12.9227 12.9367 13.0419 12.847 13.1146 12.6479C13.1567 12.5352 13.1892 12.4191 13.2117 12.3009C13.2351 12.3461 13.2513 12.3947 13.2597 12.4449C13.2646 12.5055 13.3787 12.474 13.3787 12.474L13.403 12.2094L13.547 11.6099L13.6781 11.2385L14.3091 10.2556L15.4493 9.37755L16.4445 9.60571L17.2842 8.46491L15.8376 7.59595L14.4686 7.73915L13.2262 9.45995L12.2312 11.0207L12.0515 11.278V11.2782Z" fill="#D8B65B"/>
<path fill-rule="evenodd" clip-rule="evenodd" d="M19.2215 8.78793C19.2215 8.78793 19.1365 8.80489 18.8914 8.93193C18.6463 9.05897 18.4764 9.09929 18.3816 9.28617C18.2869 9.47305 18.2797 9.62121 18.2797 9.62121C18.2797 9.62121 18.4472 9.54841 18.5444 9.52409C18.6463 9.49993 18.7604 9.50713 18.7482 9.54841C18.7365 9.57672 18.7203 9.60293 18.7002 9.62601C18.7002 9.62601 18.8922 9.62121 18.8871 9.71593C18.882 9.81065 18.8508 9.91497 18.8144 9.96105C18.778 10.0091 18.6276 10.0801 18.6106 10.1359C18.5693 10.25 18.6276 10.2548 18.6056 10.347C18.5887 10.4369 18.5087 10.6116 18.2464 10.9174C17.977 11.2233 17.8624 11.4393 17.8624 11.4393C17.8624 11.4393 17.7314 11.1942 17.6634 10.983C17.6154 11.0071 17.3576 11.1503 17.3576 11.1503L16.7605 9.07033L16.7725 8.93193C16.7725 8.93193 16.826 8.86649 16.8381 8.74505C16.7484 8.71593 16.7362 8.69161 16.6172 8.57769C16.4981 8.46377 16.4012 8.32521 16.2023 8.23049C16.1732 8.17705 16.1367 8.10441 15.9911 8.07513C15.8455 8.04585 15.7581 8.02185 15.7581 8.02185C15.7581 8.02185 15.8357 7.99257 15.8722 7.93193C15.7823 7.94409 15.7096 7.97321 15.513 7.96841C15.314 7.96345 15.292 7.95625 15.1829 7.97321C15.0738 7.99017 14.9429 8.03881 14.8941 7.87129C14.8407 7.83001 14.7266 7.86649 14.6295 8.00953C14.5324 8.15257 14.4984 8.26681 14.3116 8.32265C14.2984 8.40503 14.2696 8.48411 14.2266 8.55561C14.1732 8.64553 14.0882 8.73529 13.9741 8.86873C13.7944 9.07993 13.8236 9.42697 13.5372 9.69161C13.2484 9.95609 13.5852 8.95849 13.5852 8.95849L14.0463 7.85449L15.3594 6.57049L17.3983 6.43225L17.5973 7.48825L18.5925 7.83049L19.2212 8.78921L19.2215 8.78793Z" fill="#D3AE4D"/>
<path fill-rule="evenodd" clip-rule="evenodd" d="M19.5444 9.02083L18.6876 7.78547L18.0881 7.3242C18.0881 7.3242 17.6609 6.53796 17.6318 6.51364C17.6075 6.49668 17.2046 6.453 16.9473 6.43604L16.9953 6.55492C17.0515 6.57316 17.1013 6.60681 17.1393 6.65204C17.2534 6.78308 17.3262 7.0306 17.0665 7.29524C17.1684 7.33156 17.2105 7.34324 17.2995 7.33156C17.2097 7.43843 17.0059 7.66659 16.9937 7.86564C16.9815 8.02819 17.0835 8.07667 17.0835 8.07667C17.0835 8.07667 16.9281 8.25635 16.9209 8.55667C16.9943 8.47394 17.0746 8.39761 17.1609 8.32851C17.3406 8.18451 17.5881 8.0226 17.7556 7.92068C17.7533 7.96345 17.7591 8.00626 17.7726 8.04692C17.7726 8.04692 18.0855 7.78964 18.3486 7.90372C18.4675 7.95715 18.414 8.12468 18.414 8.12468C18.414 8.12468 18.5767 8.06403 18.6908 8.17811C18.8049 8.29219 18.9675 8.5858 19.05 8.70004C19.0863 8.75348 19.1811 8.8554 19.278 9.013C19.4105 9.23391 19.5211 9.46723 19.6083 9.70963C19.6131 9.61251 19.6326 9.47667 19.8003 9.47667L19.5454 9.02035L19.5444 9.02083Z" fill="#CAA13E"/>
<path fill-rule="evenodd" clip-rule="evenodd" d="M6.6998 12.5306C6.6998 12.5306 6.63916 12.3801 6.6998 12.0865C6.76044 11.7929 6.85516 11.6545 6.88668 11.2225C6.9182 10.7905 7.1998 10.2516 7.1998 10.2516L7.97884 9.89734L8.52988 10.0477L8.69244 10.7857L7.9958 11.1697C7.9958 11.1697 7.95948 11.3322 7.76284 11.4633C7.5662 11.5943 7.29436 11.6962 7.22892 11.8298C7.1898 11.9116 7.16125 11.9981 7.14396 12.0871C7.14396 12.0871 6.94492 12.0458 6.82604 12.1769C6.6998 12.3105 6.7046 12.4293 6.6998 12.5313V12.5306Z" fill="#F4EFC8"/>
<path fill-rule="evenodd" clip-rule="evenodd" d="M8.27249 12.334C8.27249 12.334 8.20689 12.3753 8.15841 12.478C8.11041 12.4004 7.99569 11.9391 7.99089 11.5241C7.98609 11.1091 7.96129 11.0062 8.05729 10.8631C8.15329 10.7201 8.52977 10.5694 8.47633 10.3118C8.42289 10.0667 8.19953 9.96475 7.92529 10.0351C7.73329 10.0831 7.59041 10.4915 7.39137 10.6953C7.24081 10.8507 7.06129 10.8263 7.01281 10.9113C6.94721 11.0254 7.00785 11.1395 6.98849 11.2123C6.98353 11.2366 6.92289 11.3676 6.81361 11.5254C6.59281 11.8433 6.21905 12.2924 6.17041 12.6953C6.18737 12.4671 6.17537 12.4623 6.23601 12.2099L6.19953 12.1492L6.43953 11.3628L6.59489 10.7148L6.94209 9.62971L7.55361 8.52059L8.14833 7.85547L8.76721 7.89675L8.84001 8.82635L9.19441 10.5716L9.93953 11.4891L8.74529 12.2927L8.27201 12.334H8.27249Z" fill="#EBCC73"/>
<path fill-rule="evenodd" clip-rule="evenodd" d="M8.64389 12.6637C8.64389 12.6637 8.54197 12.6881 8.50549 12.6687C8.46901 12.6493 8.43285 12.6274 8.44485 12.6031C8.45685 12.5788 8.52245 12.5377 8.52245 12.5181C8.52379 12.5005 8.51821 12.483 8.50689 12.4694C8.49557 12.4559 8.4794 12.4472 8.46181 12.4453C8.40597 12.4381 8.38901 12.4745 8.38901 12.4745C8.38901 12.4745 8.33557 12.4333 8.29205 12.4265C8.3178 12.4233 8.34371 12.4217 8.36965 12.4215C8.30257 12.3911 8.23142 12.3707 8.15845 12.3609C8.21909 12.3245 8.33813 12.2177 8.41573 12.2177C8.49333 12.2177 8.54197 12.2057 8.52981 12.1644C8.51765 12.1231 8.45701 12.0625 8.39157 12.0381C8.41573 12.009 8.43285 11.9653 8.37461 11.8461C8.31381 11.7273 8.33813 11.6471 8.35765 11.6181C8.37461 11.5817 8.43525 11.5162 8.46437 11.4749C8.49349 11.4337 8.51781 11.3778 8.56629 11.3487C8.59061 11.3317 8.66821 11.3007 8.74597 11.2711C8.83093 11.242 8.90133 11.2055 8.94981 11.242C9.00325 11.2783 8.97893 11.3269 8.97893 11.3269C8.97893 11.3269 9.14645 11.2661 9.29685 11.3439C9.44741 11.4165 9.81397 11.4628 9.81397 11.4628L9.94533 11.7274L9.07637 12.4725L8.71717 12.6522L8.64437 12.6642L8.64389 12.6637Z" fill="#E5C66B"/>
<path fill-rule="evenodd" clip-rule="evenodd" d="M9.85016 11.4457C9.85016 11.4457 9.58072 11.6254 9.52008 11.6908C9.5564 11.6958 9.61704 11.7201 9.59272 11.7564C9.5636 11.7927 9.38888 11.919 9.29176 12.038C9.18984 12.1569 9.09272 12.3075 9.0588 12.3803C9.02248 12.4457 8.74568 12.6375 8.65112 12.6617C8.85016 12.6617 9.25064 12.4166 9.40104 12.4166C9.39624 12.4894 9.44232 12.5719 9.52728 12.5791C9.61224 12.5863 9.85736 12.6326 10.1874 12.4287C10.5175 12.2297 10.4084 12.0815 10.5466 11.9846C10.8113 11.8097 10.918 11.6543 11.0636 11.5574C11.2092 11.4604 11.2846 11.4383 11.2846 11.4383C11.2846 11.4383 11.2894 11.3655 11.3326 11.3729C11.3444 11.3743 11.3556 11.3788 11.365 11.3861C11.3745 11.3934 11.3817 11.4031 11.386 11.4142C11.386 11.4142 11.6385 11.2345 11.962 11.186C11.9545 11.1827 11.9484 11.1766 11.945 11.1691C11.945 11.1691 11.9692 11.1569 11.9742 11.1447C11.9742 11.1447 11.9911 11.1204 12.0033 11.1326C12.0154 11.1447 12.0324 11.2345 12.0567 11.271C12.1102 11.2467 12.2121 11.0185 12.2121 11.0185L12.4574 10.3171V9.67627L12.2654 9.71275L10.8254 10.3243L9.95144 11.2297L9.84952 11.4457H9.85016Z" fill="#E6BD62"/>
<path fill-rule="evenodd" clip-rule="evenodd" d="M13.9958 8.30246C14.0737 8.28356 14.1484 8.25326 14.2174 8.21254C14.1883 8.2903 14.1883 8.37526 14.0621 8.55974C13.9358 8.74422 13.931 8.77094 13.8291 8.96262C13.7272 9.16166 13.715 9.44806 13.6179 9.57414C13.6615 9.55299 13.7081 9.5391 13.7562 9.53302C13.7562 9.53302 13.6592 9.61798 13.6179 9.70774C13.5766 9.7975 13.5038 9.98438 13.3243 10.0986C13.1448 10.2129 12.9165 10.2855 12.6714 10.5549C12.4261 10.8194 12.1738 11.1545 12.0474 11.2749C12.113 11.1609 12.2027 10.9327 12.227 10.7823C12.2514 10.6319 12.2221 10.4521 12.2634 10.2532C12.3046 10.0543 12.3046 9.91094 12.5034 9.56374C12.7021 9.21654 13.0422 8.0103 13.0422 8.0103L13.7752 7.77734L13.9962 8.30166L13.9958 8.30246Z" fill="#B6933F"/>
<path fill-rule="evenodd" clip-rule="evenodd" d="M13.4667 7.85833C13.4667 7.85833 13.2459 8.17625 13.1853 8.45785C13.1246 8.73945 13.1803 8.71513 13.144 8.85353C13.1223 8.93791 13.1223 9.02642 13.144 9.11081C13.2204 8.98761 13.3251 8.8844 13.4494 8.80969C13.6582 8.68361 13.8281 8.59369 13.9294 8.48697C14.0313 8.37289 14.1163 8.18601 14.3371 8.04281C14.2473 8.03065 14.1211 7.98937 14.0971 7.99481C14.187 7.89289 14.4563 7.73753 14.7281 7.55065C14.9976 7.35865 14.9806 7.28121 15.4176 7.08953C15.2744 7.11385 15.2064 7.07737 15.0873 7.08953C15.1353 6.98761 15.3033 6.93897 15.4713 6.77161C15.6393 6.60425 15.3646 6.35657 15.3646 6.35657L14.0846 7.13081L13.4657 7.85897L13.4667 7.85833Z" fill="#C49937"/>
<path fill-rule="evenodd" clip-rule="evenodd" d="M9.99341 7.28051L10.0225 7.04755L10.3891 6.46019L10.7726 5.42867V4.01843L10.7435 3.20291L10.8041 2.66883L10.8502 2.49907L10.8988 2.43347L11.2118 2.59603L11.644 3.18339L11.6852 4.31699L11.2652 6.10579L10.0662 7.41411L9.99341 7.28051Z" fill="#DFC068"/>
<path fill-rule="evenodd" clip-rule="evenodd" d="M10.9472 2.36795C10.9472 2.36795 10.7552 2.37291 10.7143 3.17147C10.6733 3.97003 10.6535 4.38987 10.6244 4.78555C10.5952 5.18123 10.5274 5.42139 10.4933 5.65451C10.4592 5.88763 10.4399 6.20539 10.3308 6.39963C10.2828 6.48939 10.1802 6.77099 9.93988 6.98219C9.67044 7.21515 9.26788 7.37787 9.20692 7.39003C9.10004 7.41419 8.55876 7.46763 8.33796 7.58907C8.26036 7.63035 8.12676 7.67883 7.97876 7.81723C7.685 8.08171 7.29428 8.55499 7.01268 9.12539C6.58068 9.97739 6.14868 12.3827 6.14868 12.3827L6.2458 12.2201C6.2458 12.2201 6.25796 12.0041 6.47396 11.6254C6.68516 11.2468 6.62452 10.822 6.91812 10.0963C7.0322 9.81963 7.1754 9.46043 7.35012 9.15451C7.62692 8.65691 7.9618 8.22971 8.29924 7.99675C8.85012 7.61819 9.457 7.53563 9.457 7.53563L10.11 7.10363C10.11 7.10363 10.224 6.88283 10.3746 6.63035C10.5856 6.27611 10.8546 5.88043 10.9133 5.30523C11.0032 4.45323 10.7871 3.89499 10.7992 3.39019C10.8114 2.88539 10.8162 2.51403 10.9183 2.42411C11.0204 2.33419 10.9474 2.36827 10.9474 2.36827L10.9472 2.36795Z" fill="#A88F33"/>
<path fill-rule="evenodd" clip-rule="evenodd" d="M10.9473 6.17864C10.9473 6.17864 11.2353 5.46984 11.3672 4.8412C11.3915 4.71496 11.44 4.58888 11.4521 4.48696C11.5128 3.89224 11.5297 3.64712 11.4521 3.32184C11.3915 3.08184 11.1585 2.86552 11.0371 2.69784C10.9182 2.52296 10.8624 2.45784 10.8867 2.42104C10.911 2.38424 11.0056 2.32408 11.0977 2.33128C11.1957 2.33413 11.2921 2.35688 11.381 2.39814C11.4699 2.4394 11.5494 2.4983 11.6149 2.57128C11.8017 2.78728 11.9497 3.5204 11.9497 3.5204L12.1054 4.48776L12.5011 5.70616L10.9477 6.1796L10.9473 6.17864Z" fill="#C99E3D"/>
<path fill-rule="evenodd" clip-rule="evenodd" d="M13.6535 5.44083C13.6535 5.44083 13.6 5.46499 13.5031 5.44083C13.5072 5.48046 13.5003 5.52045 13.4832 5.55642C13.466 5.59238 13.4393 5.62292 13.4059 5.64467C13.304 5.60339 12.3499 5.68595 12.3499 5.68595C12.3499 5.68595 11.9058 5.60819 11.7674 5.02083C11.6704 4.62995 11.8402 4.09123 11.7843 3.73683C11.6994 3.21491 11.5805 3.11283 11.5683 2.95043C11.5562 2.78803 11.544 2.74659 11.544 2.64467C11.4906 2.63251 11.4591 2.61555 11.4058 2.61555C11.3936 2.56755 11.4178 2.52563 11.3645 2.44067C11.3936 2.45283 11.5927 2.47715 11.8256 2.69795C12.0176 2.87763 12.0176 2.94307 12.0466 2.97955C12.0829 3.01587 12.3767 3.26755 12.5029 3.51843C12.6291 3.76931 12.8743 4.56931 12.9301 4.70035C12.9471 4.75379 12.9835 4.80723 13.0741 4.92851C13.2149 5.10339 13.4211 5.39251 13.6541 5.44051L13.6535 5.44083Z" fill="#B58634"/>
<path fill-rule="evenodd" clip-rule="evenodd" d="M12.0808 2.9917C12.2278 3.22922 12.3599 3.47567 12.4763 3.72962C12.6195 4.05234 12.7045 4.31698 12.8842 4.53298C12.7871 4.25154 12.6147 3.6981 12.5128 3.50146C12.3987 3.29346 12.1658 3.06946 12.0808 2.99186V2.9917Z" fill="#A88F33"/>
<path fill-rule="evenodd" clip-rule="evenodd" d="M10.4304 6.98222C10.4304 6.98222 10.1853 7.04286 9.72895 7.28318C9.57839 7.36078 9.43535 7.42622 9.29695 7.48702C8.93743 7.64958 8.55183 7.79982 8.24591 7.8827C8.27023 7.91182 8.28223 7.92382 8.28223 7.92382C8.28223 7.92382 8.28223 8.04286 8.34783 8.1107C8.31151 8.14718 7.82591 8.47726 7.96927 9.58158C8.06623 9.54526 8.18031 9.49662 8.19727 9.49662C8.22655 9.50158 8.23375 9.58158 8.27007 9.58158C8.30639 9.58158 8.42543 9.53358 8.55167 9.37038C8.54687 9.43598 8.47407 10.0961 8.86479 10.5403C8.93759 10.4553 9.12207 10.1737 9.12207 10.1737L9.12687 10.084C9.12687 10.084 9.14383 9.77086 9.24591 9.48446C9.34799 9.19806 9.54687 8.98686 9.54687 8.98686L10.5854 7.50382L10.4301 6.98206L10.4304 6.98222Z" fill="#E6C367"/>
<path fill-rule="evenodd" clip-rule="evenodd" d="M9.4594 9.15975C9.41185 9.19335 9.35946 9.21952 9.30404 9.23735C9.28708 9.17671 9.26276 8.96791 9.40596 8.76407C9.57348 8.51879 9.93988 8.20087 10.0418 7.94807C10.1074 7.78535 10.0783 7.37767 10.6608 6.85575C11.2434 6.33383 11.4714 6.15431 11.4714 6.15431L12.4132 5.68103L13.5709 6.13735L12.9957 8.39175L12.5492 9.44775L10.7732 9.11287L9.45924 9.15975H9.4594Z" fill="#DCBA5A"/>
<path fill-rule="evenodd" clip-rule="evenodd" d="M10.1375 8.54761L10.3584 8.27097V8.07433C10.3584 8.07433 10.6035 8.00873 10.868 7.73929C11.1325 7.46985 11.4991 6.95289 11.8219 6.98441C12.1448 7.02089 12.1763 7.68585 12.1885 7.87289C12.2007 8.05993 12.2419 8.48441 12.3074 8.71273C12.3802 8.94089 11.521 9.80489 11.521 9.80489L10.9375 10.2491L10.1375 8.54761Z" fill="#E9CE77"/>
<path fill-rule="evenodd" clip-rule="evenodd" d="M10.821 10.851C10.821 10.851 11.0007 10.5694 10.869 10.5087C10.9466 10.334 11.0898 10.1495 11.0898 10.1495C11.0898 10.1495 11.1918 9.8972 11.5218 9.58648C11.8519 9.27576 12.0559 9.06936 12.1094 8.86072C12.1423 8.72474 12.1602 8.58556 12.1628 8.44568C12.1985 8.47483 12.2367 8.5008 12.2769 8.52328C12.3303 8.5476 12.5826 8.75624 12.5463 9.17624C12.51 9.59624 12.3543 9.77096 12.3543 9.77096C12.3543 9.77096 12.2039 9.92136 12.0972 9.99912C11.983 10.0767 11.9418 10.1665 11.75 10.1738C11.7697 10.1582 11.7919 10.1458 11.8156 10.1374C11.8156 10.1374 11.6166 10.1132 11.5097 10.2102C11.4028 10.3071 11.1756 10.6058 11.0615 10.6958C10.9474 10.7686 10.8215 10.8511 10.8215 10.8511L10.821 10.851Z" fill="#CDAE50"/>
<path fill-rule="evenodd" clip-rule="evenodd" d="M18.8914 6.13006C18.6046 6.02555 18.3033 5.96659 17.9982 5.95534C17.4885 5.93838 16.7434 5.9675 16.0128 5.9723C15.2264 5.9771 14.5128 5.70286 13.5226 5.65438C13.36 5.55726 12.9466 5.13246 11.656 6.03294C11.7336 6.02814 12.593 5.8339 12.8914 6.20782C13.1923 6.57918 13.1074 7.21022 13.0662 7.36062C12.9885 7.69566 12.736 8.1835 12.6342 8.52574C12.5325 8.86798 12.5565 9.04782 12.4837 9.28782C12.4109 9.52782 12.2507 9.64702 12.3453 9.92366C12.4715 9.84606 12.5373 9.84606 12.7482 9.37278C12.959 8.8995 12.9157 8.56206 13.2653 8.16158C13.6075 7.7587 14.1773 7.20766 14.3939 7.06926C14.6106 6.93086 16.3307 6.03774 18.1318 6.88974C18.5662 6.84366 18.8915 6.1299 18.8915 6.1299L18.8914 6.13006Z" fill="#D2A83E"/>
<path fill-rule="evenodd" clip-rule="evenodd" d="M12.3818 5.79973C12.38 5.78149 12.376 5.76354 12.3698 5.74629C12.3529 5.71079 12.3308 5.67805 12.3042 5.64917C12.3042 5.64917 11.877 5.57157 11.661 5.59573C11.2823 5.63701 10.94 6.10549 10.7799 6.34581C10.6197 6.58613 10.4207 6.95733 10.2047 7.14917C10.207 7.13048 10.2027 7.11155 10.1925 7.09573C10.1925 7.09573 10.2047 7.11269 10.1805 7.13701C10.1563 7.16133 10.1562 7.17333 10.1683 7.18501L10.2048 7.22133C10.2168 7.22133 10.5519 7.07077 11.0082 6.64533C11.4936 6.20117 11.865 5.97333 12.0592 5.89525C12.1628 5.85123 12.2711 5.81918 12.3819 5.79973H12.3818Z" fill="#C29637"/>
<path fill-rule="evenodd" clip-rule="evenodd" d="M20.6683 3.97485C20.6683 3.97485 20.5905 4.07181 20.4934 4.17869C20.2774 4.40685 19.9958 4.66397 19.7555 4.92861C19.5275 5.18109 19.2702 5.37773 18.9812 5.70781C18.6923 6.03789 18.3572 6.40429 18.2724 6.51117C18.1948 6.61805 18.1342 6.79277 18.1342 6.88253C18.0929 6.85341 18.0444 6.82189 18.0444 6.82189C18.0648 6.86 18.0892 6.89583 18.1172 6.92877C18.1779 7.01373 18.2724 7.12077 18.3211 7.18605C18.3807 7.26916 18.4236 7.36314 18.4472 7.46269C18.4763 7.46749 18.6632 7.50397 18.8963 7.12045C19.1294 6.73693 19.435 6.31709 19.435 6.31709L19.9204 5.59613L20.2264 4.98461L20.6104 4.30013L20.6688 3.97485H20.6683Z" fill="#AC8132"/>
<path fill-rule="evenodd" clip-rule="evenodd" d="M21.1659 3.48462C21.1659 3.48462 20.8721 3.72462 20.758 3.86862C20.6439 4.01262 20.374 4.39054 20.374 4.39054L20.4711 4.37838L20.9639 3.94158L21.1559 3.59934L21.1657 3.48526L21.1659 3.48462Z" fill="#A88F33"/>
<path fill-rule="evenodd" clip-rule="evenodd" d="M21.076 22.7734C21.076 22.7734 21.0712 22.5743 21.1829 22.4555C21.2969 22.3364 21.5857 22.1617 21.8673 21.5063C22.1489 20.851 22.1803 20.703 22.1803 20.703C22.1803 20.703 21.6755 21.135 21.3643 21.2369C21.4371 21.0863 21.4784 20.9796 21.5149 20.9019C21.4736 20.8655 21.2989 20.8242 21.2819 20.8049C21.3789 20.7078 21.4323 20.4699 21.6289 20.3121C21.8814 20.1201 22.3425 19.7902 22.7009 19.4961C23.0593 19.202 23.764 18.518 23.8539 18.319C23.9073 18.3966 23.9193 18.445 23.9193 18.445C23.9193 18.445 23.5651 18.9063 23.3806 19.1999C23.2179 19.4524 23.2301 19.5956 23.2301 19.5956L23.5651 19.4516C23.5651 19.4516 23.6621 19.8108 23.2229 20.3571C23.4149 20.2843 23.4923 20.3279 23.6014 20.2671C23.4217 20.3814 23.1742 20.5367 22.9413 20.9638C22.7131 21.391 22.4024 21.8886 21.8782 22.1991C21.3685 22.5268 21.0747 22.7719 21.0747 22.7719L21.076 22.7734Z" fill="#A67A2E"/>
<path fill-rule="evenodd" clip-rule="evenodd" d="M19.7603 6.38265C19.7603 6.38265 19.5613 6.79753 19.5322 7.12041C19.5274 7.19817 19.5078 7.25881 19.5078 7.34857C19.503 7.63737 19.5248 7.96025 19.4598 8.11065C19.4355 8.05001 19.4234 8.00873 19.399 7.98457C19.3627 8.08649 19.2971 8.40441 19.2437 8.52329C19.2195 8.44569 19.1661 8.17625 19.171 7.85833C19.176 7.54041 19.183 7.47961 19.183 7.41417C19.171 7.51113 19.1054 7.64233 19.0811 7.71993C19.0448 7.65449 19.0035 7.56953 18.9549 7.49913C18.9258 7.54713 18.8894 7.61801 18.8579 7.65449C18.853 7.62537 18.841 7.54761 18.8336 7.43849C18.8288 7.31225 18.8214 7.14969 18.8288 7.11561C18.8408 7.05017 18.9429 6.79289 19.1589 6.55737C19.4162 6.27577 19.6808 5.73465 19.7584 5.56713C19.836 5.39961 20.1661 4.70312 20.1661 4.70312H20.4186L20.052 5.53801C20.052 5.53801 19.8312 5.99433 19.7171 6.16201C19.603 6.32969 19.3627 6.81017 19.2558 6.99705C19.3334 6.89513 19.399 6.84169 19.4768 6.74457C19.552 6.67657 19.7606 6.38297 19.7606 6.38297L19.7603 6.38265Z" fill="#8C6228"/>
<path fill-rule="evenodd" clip-rule="evenodd" d="M21.1706 3.45288C21.1294 3.57981 21.0642 3.69767 20.9786 3.80008C20.828 3.97976 20.5052 4.21992 20.3476 4.4116C20.2036 4.59848 19.9156 5.10824 20.0464 5.71256C20.0944 5.58152 20.1848 5.32184 20.4252 5.02808C20.6655 4.73432 20.9228 4.39704 21.0492 4.13496C21.1752 3.87032 21.1922 3.66168 21.1922 3.66168L21.2402 3.60104L21.2111 3.46264L21.1698 3.45288H21.1706Z" fill="#CBA94C"/>
<path fill-rule="evenodd" clip-rule="evenodd" d="M26.0856 19.5525C26.0856 19.5525 25.9885 19.288 25.9594 19.0477C25.9302 18.8073 26.0074 18.7597 25.9181 18.4846C25.8646 18.3171 25.7677 18.3406 25.7434 18.3171C25.719 18.2936 25.7021 18.0405 25.7069 17.9021C25.7117 17.7637 25.7021 17.5841 25.6778 17.5064C25.6414 17.4773 25.6171 17.4529 25.5637 17.2734C25.503 17.0937 25.4739 17.004 25.4448 16.9507C25.4157 16.8974 25.3305 16.8488 25.3305 16.7953C25.3305 16.6885 25.4277 16.6328 25.4277 16.6033C25.4229 16.5427 25.3501 16.5913 25.3305 16.5742C25.3064 16.5451 25.3914 16.3704 25.3598 16.3461C25.3477 16.3341 25.2627 16.436 25.2408 16.4068C25.2165 16.3776 25.1874 16.0888 25.1437 15.8971C25.1026 15.7102 25.0587 15.5744 25.0539 15.5185C25.0491 15.4651 24.7189 14.5233 24.6389 14.2952C24.5744 14.1024 24.5201 13.9063 24.4763 13.7078C24.452 13.5937 24.435 13.3606 24.4229 13.3849C24.4107 13.4093 24.4181 13.5281 24.3986 13.5233C24.3816 13.5184 24.321 13.1035 24.3016 13.0379C24.2846 12.9723 24.1826 12.7499 24.1576 12.5889C24.1333 12.4262 24.08 12.0014 24.0435 11.7126C24.007 11.4238 23.9901 11.3049 23.9901 11.2326C23.996 11.0557 23.9863 10.8787 23.961 10.7035C23.913 10.3976 23.817 10.0262 23.7328 9.81037C23.5702 9.40253 23.1381 8.35885 23.0608 8.09917C23.0608 8.03357 23.1458 8.07005 23.1458 8.07005C23.1458 8.07005 23.3568 8.59917 23.5122 9.00685C23.6627 9.41469 23.8059 9.77389 23.8424 9.81037C23.8715 9.84669 24.0997 10.2472 24.2016 10.9025C24.3035 11.5579 24.3398 12.1622 24.4006 12.5651C24.4298 12.7571 24.4541 12.9608 24.5147 13.1646C24.5802 13.3856 24.6821 13.6137 24.8157 13.9632C24.9298 14.2569 25.0147 14.5021 25.0608 14.7133C25.1142 14.9827 25.1142 15.1865 25.1458 15.3201C25.175 15.4342 25.2185 15.6622 25.3206 15.9921C25.4227 16.3221 25.573 16.747 25.6749 17.0115C25.8741 17.5406 25.9629 17.9824 25.9929 18.2179C26.0195 18.4606 26.1094 19.3005 26.0851 19.5528L26.0856 19.5525Z" fill="#A88F33"/>
<path fill-rule="evenodd" clip-rule="evenodd" d="M21.1829 3.42378L21.1707 3.4529C21.1707 3.4529 21.2071 3.46506 21.1999 3.5137C21.2004 3.58025 21.1963 3.64675 21.1877 3.71274C21.1757 3.7977 21.1514 3.86314 21.1466 3.91658C21.1466 4.03066 21.1635 4.1617 21.0026 4.48698C20.9546 4.57674 20.925 4.65434 20.9007 4.70778C20.84 4.83882 20.8279 4.85834 20.7744 4.91898C20.8594 4.87098 21.1653 4.67898 21.3205 4.70778C21.2138 4.76842 21.0511 4.88746 20.9491 5.04282C20.9735 5.04762 21.0754 5.06714 21.2371 5.04282C21.5066 5.00154 21.8075 4.90442 22.072 4.92378C22.361 4.94074 22.2469 4.57674 22.2469 4.57674L21.9135 3.84378L21.2824 3.39978L21.1829 3.42394V3.42378Z" fill="#BE9C44"/>
<path fill-rule="evenodd" clip-rule="evenodd" d="M22.8285 8.91412C22.8285 8.91412 22.5469 8.63252 22.4328 7.66612C22.3187 6.69524 22.3431 5.26612 22.3431 5.26612L22.1149 4.70788C22.1149 4.70788 22.0669 4.33652 21.9474 4.19828C21.8279 4.06004 21.5931 3.82692 21.4863 3.71284C21.3794 3.59876 21.2581 3.4434 21.1853 3.41908C21.2216 3.35844 21.3843 3.0162 22.008 3.0114C22.6317 3.0066 22.824 3.35364 22.8891 3.47988C22.9543 3.60612 23.2483 4.15188 23.3575 5.19188C23.4594 6.2306 23.4643 6.30836 23.4474 6.66756C23.4352 6.8666 23.3696 7.32772 23.2554 7.82036C23.1511 8.23796 23.037 8.70404 22.8282 8.91508L22.8285 8.91412Z" fill="#A17C34"/>
<path fill-rule="evenodd" clip-rule="evenodd" d="M21.9454 9.7419C22.0392 9.74867 22.133 9.72752 22.2148 9.6811C22.3046 9.6763 22.6298 9.71758 22.8798 9.39966C22.8967 9.4723 22.9406 9.6691 22.8263 9.84382C22.8871 9.78302 22.9769 9.75886 22.989 9.7419C22.9938 9.83166 23.0788 10.1083 22.7196 10.7806C22.8166 10.6739 22.9306 10.6787 23.0326 10.6665C23.0375 10.7928 23.1054 11.2174 22.9258 11.4457C22.807 11.6011 22.6127 11.5525 22.6127 11.5525C22.6156 11.5185 22.6156 11.4845 22.6127 11.4505C22.6079 11.3849 22.5836 11.3195 22.6007 11.2758C22.5069 11.2329 22.4214 11.1737 22.3482 11.1009C22.137 10.9019 21.8628 10.5622 21.8434 10.3097C21.8191 10.0281 22.0716 9.9675 22.0716 9.9675C22.0505 9.94858 22.0324 9.92644 22.0182 9.9019C22.006 9.86078 21.9938 9.79518 21.9454 9.7419Z" fill="#8C6228"/>
<path fill-rule="evenodd" clip-rule="evenodd" d="M20.0734 6.68835C20.0734 6.68835 20.0613 6.67139 19.9958 6.74899C20.008 6.67139 20.0202 6.59843 20.025 6.52803C20.0559 6.46286 20.096 6.40241 20.144 6.34851C20.1075 6.42115 20.0832 6.48675 20.0832 6.48675C20.0832 6.48675 20.1731 6.31923 20.3042 6.21731C20.3939 6.14451 20.508 6.11059 20.5565 6.04259C20.6099 5.96979 20.5978 5.95763 20.6099 5.94547C20.6099 5.94547 20.729 5.86787 20.911 5.63955C20.9352 5.61043 20.9717 5.57891 20.996 5.54979C21.0371 5.53283 21.1343 5.48915 21.2483 5.43075C21.3674 5.36531 21.5008 5.27555 21.5834 5.23875C21.7459 5.16595 21.9184 5.17331 21.9984 5.05907C22.0591 5.04211 22.1245 4.86003 22.1125 4.70483C22.2022 4.74115 22.6634 5.02755 22.8213 5.65379C22.9354 6.09795 22.7314 6.78243 22.6464 7.11267C22.5615 7.44291 22.5495 7.68787 22.4304 7.83827C22.2799 8.03747 21.7946 8.31827 21.6755 8.45731C21.5736 8.57139 21.2679 8.86019 21.2799 9.06883C21.292 9.22419 21.4837 9.30883 21.5251 9.33827C21.5666 9.36771 21.5663 9.40387 21.644 9.38627C21.7218 9.36867 21.7507 9.33283 21.7824 9.33283C21.8187 9.33763 21.8187 9.34499 21.8357 9.34499C21.848 9.34463 21.8602 9.34297 21.8722 9.34003C21.8722 9.34003 21.86 9.56099 21.343 9.62803C21.3066 9.63299 21.2703 9.64499 21.224 9.65235C21.2848 9.62323 21.3211 9.62323 21.3867 9.53347C21.3139 9.52131 21.1051 9.50915 21.0517 9.49219C21.0687 9.46307 21.1245 9.38531 21.1706 9.34899C21.2118 9.31267 21.1658 9.30099 21.1294 9.31987C21.0669 9.36242 21.0069 9.40858 20.9498 9.45811C20.8891 9.51155 20.8357 9.58435 20.7386 9.65011C20.7094 9.55299 20.7142 9.36851 20.8285 9.23507C20.7992 9.23987 20.7434 9.32483 20.6901 9.30787C20.6805 9.21934 20.6862 9.12981 20.707 9.04323C20.7362 8.93395 20.8939 8.74227 20.8939 8.74227L21.656 7.38051L21.8186 6.34899L20.0734 6.68803V6.68835Z" fill="#92723A"/>
<path fill-rule="evenodd" clip-rule="evenodd" d="M20.0322 6.7466C20.0322 6.7466 19.991 6.77572 20.0735 6.83156C20.0614 6.84852 20.0322 6.90916 19.9958 6.95044C19.9546 6.99844 19.9108 7.0282 19.8938 7.06948C19.8575 7.15444 19.8284 7.21268 19.8284 7.24916C19.8284 7.28564 19.8162 7.5186 19.7143 7.669C19.6778 7.72244 19.6366 7.8122 19.6074 7.87284C19.5468 7.97956 19.4934 8.06484 19.4812 8.11284C19.457 8.1978 19.4401 8.43076 19.4401 8.43076C19.4401 8.43076 19.4935 8.36516 19.5129 8.341C19.4836 8.40164 19.4521 8.46708 19.406 8.51572C19.4351 8.4914 19.5201 8.43076 19.6633 8.30452C19.8623 8.13716 20.173 7.85556 20.5518 7.63252C20.4375 7.6738 20.3406 7.6738 20.263 7.68596C20.3236 7.62532 20.8697 6.98452 21.1561 6.92388C21.1735 6.90183 21.1821 6.87415 21.1804 6.84612L20.9351 6.82196L20.4375 6.92868L20.3649 6.54468L20.0322 6.74612V6.7466Z" fill="#B18E3E"/>
<path fill-rule="evenodd" clip-rule="evenodd" d="M20.8235 8.93113C20.8235 8.93113 20.7579 8.99657 20.6973 9.15929C20.6506 9.11054 20.6105 9.05583 20.5782 8.99657C20.4885 8.84617 20.3502 8.65433 20.0273 8.76361C20.0225 8.66169 20.0152 8.60825 20.0273 8.53545C20.0808 8.52345 20.2433 8.39241 20.4059 8.20057C20.5201 8.06953 20.6269 7.91897 20.6997 7.72729C20.7477 7.69081 20.8307 7.63017 20.9397 7.55977C21.095 7.45305 21.2819 7.30729 21.311 7.14473C21.2382 7.17385 21.0829 7.24665 20.8497 7.23465C20.9397 7.19337 21.0779 7.14969 21.0609 6.97001C21.0974 6.94569 21.1265 6.92873 21.1265 6.92873C21.0992 6.91961 21.0704 6.91549 21.0416 6.91657C21.0366 6.89961 21.0294 6.87545 20.9881 6.88745C20.9469 6.89945 20.9401 6.89961 20.9347 6.91657C20.9177 6.92153 20.8619 6.91657 20.8206 6.94585C20.7793 6.97513 20.6653 7.07193 20.6216 7.08889C20.6385 7.05977 20.6627 7.01625 20.6627 7.01625C20.6627 7.01625 20.5438 7.02825 20.4589 7.06425C20.3035 7.11769 20.124 7.21481 19.9419 7.30937C19.9589 7.28025 19.9662 7.26137 19.9782 7.25593C19.9902 7.25049 20.0195 7.24393 20.0195 7.23897C20.0195 7.23401 20.0075 7.19097 20.0147 7.17353C20.0691 7.05821 20.1334 6.94778 20.2067 6.84345C20.2917 6.72921 20.3086 6.56665 20.3086 6.56665L20.68 6.37977L21.7237 6.13977L22.4009 6.18105L22.316 6.64953L21.916 7.46745L21.5737 8.21257L21.1829 8.66905L20.8237 8.93113H20.8235Z" fill="#543E26"/>
<path fill-rule="evenodd" clip-rule="evenodd" d="M22.5153 6.9037C22.5153 6.9037 22.1075 7.4085 21.9934 7.48626C22.0662 7.3309 22.5153 6.4061 22.6779 6.14882C22.6415 6.1197 22.5929 6.1197 22.707 5.66882C22.61 5.89682 22.5759 6.01586 22.4959 6.0765C22.4159 6.13714 22.406 6.11778 22.3519 6.11778C22.3622 6.09931 22.3664 6.07811 22.3639 6.05714C22.3639 6.05714 22.0217 6.01586 21.7879 6.01586C21.5542 6.01586 21.0915 6.1421 20.834 6.24402C20.6302 6.32898 20.5161 6.32898 20.4433 6.38226C20.3705 6.4429 20.3292 6.5085 20.2927 6.52546C20.2636 6.54242 20.1254 6.5861 20.0937 6.63218C20.0646 6.68018 20.0161 6.7341 20.0161 6.74626C20.0161 6.75842 20.0039 6.77554 20.0404 6.76322C20.0524 6.75842 20.1423 6.70978 20.2443 6.64914C20.3825 6.57154 20.55 6.48178 20.6715 6.42834C21.0185 6.28994 21.1278 6.31426 21.283 6.28514C21.4455 6.25602 21.6787 6.18802 21.8339 6.18802C21.9892 6.18322 22.283 6.18802 22.351 6.20018C22.3219 6.2245 22.2975 6.25362 22.3097 6.35554C22.3097 6.38466 22.2854 6.41618 22.2617 6.48658C22.1891 6.68562 22.0507 7.0157 21.9737 7.18322C21.867 7.41122 21.7457 7.60306 21.6857 7.72194C21.6257 7.84082 21.4937 8.15394 21.363 8.32146C21.2323 8.48898 21.1639 8.5909 21.123 8.62738C21.082 8.66386 20.7879 8.8797 20.8099 8.95746C20.8633 8.9405 21.2007 8.81346 21.4457 8.53762C21.6907 8.26178 21.7395 8.09346 21.9311 7.9429C22.1228 7.79234 22.2734 7.54002 22.3631 7.33138C22.4383 7.13714 22.4214 7.0765 22.5159 6.90418L22.5153 6.9037Z" fill="#806031"/>
<path fill-rule="evenodd" clip-rule="evenodd" d="M13.7264 10.6714C13.7264 10.6714 13.673 10.8922 13.5515 11.0015C13.4326 11.1084 13.2214 11.2005 13.1973 11.3802C13.1682 11.5597 13.4085 11.6496 13.4085 11.6496C13.4085 11.6496 13.2773 11.8656 13.2773 12.0282C13.2773 12.1957 13.2725 12.2272 13.2894 12.3874C13.2702 12.3998 13.2538 12.4162 13.2414 12.4354C13.2414 12.4354 13.2534 12.5908 13.3725 12.6877C13.4915 12.7847 13.5933 12.8431 13.6539 12.8188C13.6632 12.8385 13.6713 12.8588 13.6782 12.8796C13.6782 12.8796 13.7682 12.6514 13.8288 12.4524C13.8894 12.2485 13.9429 12.2775 13.967 12.0032C13.9912 11.729 14.255 11.2581 14.255 11.2581L14.435 10.8557L14.1414 10.6276L13.7264 10.6712V10.6714Z" fill="#B6903C"/>
<path fill-rule="evenodd" clip-rule="evenodd" d="M14.2725 11.067C14.212 11.1292 14.1561 11.1957 14.1053 11.2661C14.0277 11.3729 13.9671 11.4699 13.853 11.5113C13.7389 11.5528 13.6661 11.5525 13.6733 11.6667C13.6805 11.7809 13.7874 11.8293 13.8481 11.8875C13.9137 11.9481 13.9671 12.0501 13.938 12.1643C13.9743 12.1473 14.0399 12.1278 14.1005 11.9968C14.1612 11.8657 14.5853 11.0672 14.5853 11.0672H14.2725V11.067Z" fill="#685026"/>
<path fill-rule="evenodd" clip-rule="evenodd" d="M15.9454 9.22471C15.9454 9.22471 15.9817 9.12775 15.9454 9.05735C15.9089 8.98455 15.6881 8.96023 15.5788 8.87767C15.4648 8.79271 15.3264 8.73367 15.2123 8.77095C15.2292 8.72967 15.2972 8.63975 15.2414 8.62039C15.188 8.60343 14.9891 8.69319 14.9356 8.73447C14.8822 8.77575 14.7608 8.82423 14.7366 8.85351C14.7124 8.88279 14.671 8.93847 14.6467 8.91415C14.6224 8.89719 14.6104 8.85351 14.5691 8.87767C14.5278 8.90183 14.3291 9.06455 14.2924 9.15927C14.2558 9.25399 14.1734 9.46519 13.9259 9.70535C13.6784 9.94551 13.5715 10.101 13.6443 10.1908C13.7171 10.2806 13.7512 10.2151 13.7633 10.2927C13.7727 10.3689 13.7686 10.4461 13.7512 10.5209C13.722 10.6471 13.6736 10.766 13.739 10.7903C13.9065 10.8438 14.0692 10.7423 14.1056 10.7734C14.1784 10.8388 14.0643 11.0743 14.2366 11.1204C14.4115 11.1684 14.5838 11.0791 14.5838 11.0791L15.2196 10.7369L15.8313 10.4142L16.1443 9.79511L15.9764 9.27815L15.9444 9.22471H15.9454Z" fill="#D4B968"/>
<path fill-rule="evenodd" clip-rule="evenodd" d="M15.3455 10.7029C15.3455 10.7029 15.2386 10.5404 15.3698 10.397C15.501 10.2536 15.6877 10.1932 15.7605 10.1034C15.7467 10.0863 15.7281 10.0737 15.7071 10.0671C15.7554 9.98061 15.8291 9.91107 15.9183 9.86788C15.882 9.83156 15.8333 9.80244 15.78 9.80244C15.661 9.80244 15.588 9.87524 15.4789 9.87524C15.3722 9.87524 15.36 9.8218 15.36 9.8218C15.36 9.8218 15.5397 9.80484 15.5226 9.72468C15.5056 9.63972 15.4746 9.63972 15.4746 9.63972C15.4746 9.63972 15.8216 9.49572 15.8823 9.41892C15.9429 9.34212 15.9357 9.2514 15.9479 9.21508C15.989 9.21508 16.2293 9.08884 16.3264 9.14228C16.4236 9.19572 16.3556 9.34132 16.3556 9.34132C16.3556 9.34132 16.6495 9.12036 16.7992 8.90372C16.9303 8.91588 16.9912 8.81396 17.0872 8.81396C17.2063 8.81396 17.3932 8.97652 17.4295 9.32356C17.4538 9.5226 17.4901 9.63668 17.4538 9.98868C17.4368 10.1877 17.4416 10.6127 17.5018 10.8236C17.5429 10.9911 17.64 10.9741 17.64 10.9741C17.6251 11.0252 17.5956 11.0707 17.5551 11.1052C17.4895 11.1658 17.4823 11.3261 17.4895 11.3868C17.4992 11.4311 17.5113 11.4748 17.526 11.5178C17.526 11.5178 17.4484 11.6076 17.4288 11.6684C17.4119 11.729 17.3319 11.7703 17.2735 11.7703C17.2151 11.7703 17.2444 11.7653 17.1668 11.7703C17.0892 11.7752 17.0648 11.7872 17.0162 11.7703C16.9676 11.7533 16.9312 11.7338 16.9508 11.5783C16.9677 11.4229 16.3512 11.0613 16.3512 11.0613L15.3432 10.7021L15.3455 10.7029Z" fill="#CCA849"/>
<path fill-rule="evenodd" clip-rule="evenodd" d="M14.1876 12.2369C14.1876 12.2369 14.4084 12.5306 15.3162 12.5306C15.7482 12.5306 15.8988 12.4894 15.9882 12.465C16.0853 12.4407 16.4493 12.2977 16.8159 11.8655C17.146 11.4748 17.0732 11.3146 17.0732 11.3146L16.8812 11.2855L16.2572 11.3705L14.4108 12.1569L14.1868 12.2369H14.1876Z" fill="#585136"/>
<path fill-rule="evenodd" clip-rule="evenodd" d="M14.8648 12.3096C14.8648 12.3096 14.0784 12.4845 14.0784 11.9869C14.0784 11.5015 14.5638 10.9917 14.6852 10.902C14.8115 10.812 15.1124 10.71 15.1124 10.71H15.8382L15.9764 11.0765L15.9158 11.8677L14.8648 12.3095V12.3096Z" fill="#252211"/>
<path fill-rule="evenodd" clip-rule="evenodd" d="M15.5906 10.8583C15.5906 10.8583 15.4402 10.7199 15.0979 10.9063C14.7557 11.0927 14.4789 11.4823 14.4619 11.836C14.445 12.149 14.7192 12.3821 15.1464 12.3943C15.4643 12.4063 15.6562 12.3699 15.7533 12.3463C15.729 12.3171 15.6027 12.1594 15.6027 12.1594L15.5907 10.8584L15.5906 10.8583Z" fill="#C3B378"/>
<path fill-rule="evenodd" clip-rule="evenodd" d="M15.4425 10.9357C15.4425 10.9357 15.4062 10.9066 15.2985 10.9649C15.2088 11.0129 15.0777 11.1397 14.9758 11.2295C14.9102 11.2829 14.8689 11.3071 14.8318 11.3484C14.6812 11.5281 14.555 11.8218 14.628 11.9674C14.7009 12.113 14.9411 12.2805 15.5528 12.1665L15.4408 10.9359L15.4425 10.9357Z" fill="#E6D89C"/>
<path fill-rule="evenodd" clip-rule="evenodd" d="M15.2433 11.2368C15.2433 11.2368 15.1462 11.3874 15.1462 11.6277C15.1462 11.8728 15.2846 12.2636 15.7944 12.2927C16.1851 12.317 16.4472 11.7296 16.7312 11.5015C16.9472 11.3268 17.0782 11.3218 17.0782 11.3218C17.0782 11.3218 16.8574 11.0818 16.2677 10.7709C15.6851 10.4578 15.0321 10.4165 14.6777 10.8972C14.8453 10.885 15.3865 10.7466 15.3865 10.7466L15.6512 10.8316L15.2433 11.237V11.2368Z" fill="#252211"/>
<path fill-rule="evenodd" clip-rule="evenodd" d="M16.0056 11.5548C15.9887 11.5185 15.9765 11.4698 16.0469 11.4578C16.1173 11.4458 16.1488 11.4529 16.1731 11.5058C16.1975 11.5588 16.2211 11.6029 16.1851 11.6249C16.1488 11.6442 16.0541 11.6249 16.0055 11.5545L16.0056 11.5548ZM15.8915 11.2125C15.8915 11.2125 15.8672 11.2295 15.8794 11.1956C15.8842 11.1545 15.9159 11.0815 15.9935 11.0986C16.0711 11.1157 16.0543 11.2005 16.0415 11.2249C16.0287 11.2492 15.9639 11.2903 15.9152 11.2729C15.9091 11.2713 15.9033 11.2683 15.8986 11.2641C15.8938 11.2599 15.89 11.2546 15.8877 11.2487C15.8853 11.2428 15.8844 11.2364 15.8849 11.2301C15.8855 11.2237 15.8875 11.2176 15.8909 11.2122L15.8915 11.2125Z" fill="#6F674D"/>
<path fill-rule="evenodd" clip-rule="evenodd" d="M9.32129 11.3677C9.32129 11.3677 9.51329 11.5117 9.73633 11.5061C9.95713 11.5012 10.2411 11.2732 10.3722 11.1274C10.4498 11.0425 10.5162 10.9527 10.5882 10.8823C10.649 10.8217 10.6901 10.7925 10.7192 10.7513C10.7605 10.7033 10.8042 10.613 10.8261 10.5837C10.7726 10.625 10.695 10.698 10.6149 10.7465C10.5373 10.7945 10.3698 10.8847 10.3018 10.909C10.2363 10.9333 9.55665 11.293 9.55665 11.293L9.32129 11.3677Z" fill="#AC924C"/>
<path fill-rule="evenodd" clip-rule="evenodd" d="M9.61475 9.57436C9.61475 9.57436 9.72147 9.50156 9.92787 9.45532C10.1269 9.40732 10.5274 9.37036 10.5274 9.37036L10.8575 9.51436L10.9885 10.012L10.7485 10.5291L10.4427 10.7211L10.0955 10.1628L9.61555 9.57532L9.61475 9.57436Z" fill="#9F8E57"/>
<path fill-rule="evenodd" clip-rule="evenodd" d="M9.18284 10.0185L9.0686 10.1038C9.0686 10.1038 9.09788 10.0504 9.12204 9.88779C9.1462 9.72524 9.2726 9.32955 9.45708 9.10139C9.64156 8.87323 9.63676 8.88539 9.63676 8.88539C9.61979 8.88229 9.60235 8.88284 9.5856 8.88701C9.56885 8.89117 9.55319 8.89886 9.53964 8.90956C9.56396 8.8558 9.71932 8.6638 9.87468 8.5678C10.03 8.4718 10.0907 8.44156 10.2532 8.5198C10.4158 8.59804 10.4571 8.63868 10.5761 8.63388C10.6952 8.62908 10.7969 8.50284 10.7969 8.50284C10.7969 8.50284 10.8212 8.58044 10.7315 8.76012C10.6417 8.9398 10.2873 9.3062 10.2873 9.3062L9.5494 9.811L9.18284 10.019V10.0185Z" fill="#EAC970"/>
<path fill-rule="evenodd" clip-rule="evenodd" d="M9.72867 9.51374C9.72867 9.51374 10.2627 9.58654 10.4253 9.43614C10.4301 9.4531 10.4496 9.4531 10.4496 9.46526C10.4483 9.47443 10.4441 9.48291 10.4375 9.48942C10.4552 9.4866 10.473 9.485 10.4909 9.48462C10.5123 9.49098 10.5343 9.49506 10.5565 9.49678C10.5744 9.49639 10.5923 9.49474 10.6099 9.49182C10.6083 9.50389 10.6042 9.51549 10.5979 9.52593C10.5916 9.53638 10.5833 9.54546 10.5735 9.55262C10.5978 9.55262 10.6215 9.55742 10.6215 9.57678C10.6215 9.59614 10.6263 9.65454 10.5971 9.6667C10.573 9.67337 10.5473 9.67162 10.5243 9.66174C10.5263 9.7077 10.5388 9.75259 10.5608 9.79294C10.6088 9.8827 10.7112 9.98494 10.8488 9.9555C10.8488 9.9555 10.9215 10.1302 10.6157 10.5185C10.5746 10.572 10.5307 10.6448 10.4775 10.7054C10.4564 10.7513 10.4403 10.7993 10.4295 10.8486C10.4295 10.8486 10.9466 10.6496 11.0946 10.1957C11.2451 9.73934 11.2743 9.29038 11.2451 8.87054C11.2402 8.7515 11.2208 8.6667 11.1917 8.6059C11.1189 8.45534 10.9149 8.47966 10.8325 8.56462C10.7135 8.68366 10.5144 8.97966 10.2378 9.1835C9.95619 9.38734 9.94419 9.4235 9.72803 9.51374H9.72867Z" fill="#D7BC6B"/>
<path fill-rule="evenodd" clip-rule="evenodd" d="M9.08815 10.169C9.08815 10.169 8.98623 10.2296 8.93279 10.457C8.87935 10.69 8.98079 10.974 9.03951 11.0637C9.09823 11.1535 9.23151 11.3988 9.50799 11.4109C9.57642 11.4106 9.64409 11.3965 9.70703 11.3696C9.80354 11.3254 9.89408 11.2691 9.97647 11.2021C10.0955 11.1124 10.1925 11.0348 10.1803 11.0274C10.1512 11.0152 9.44735 10.4327 9.44735 10.4327L9.18271 10.1373L9.08799 10.1693L9.08815 10.169Z" fill="#585136"/>
<path fill-rule="evenodd" clip-rule="evenodd" d="M9.75333 11.135C9.75333 11.135 9.89653 11.123 9.98149 11.0695C10.0664 11.0161 9.48389 10.4385 9.48389 10.4385L9.52517 11.0625L9.75333 11.135Z" fill="#453A25"/>
<path fill-rule="evenodd" clip-rule="evenodd" d="M9.13429 10.1252C9.13429 10.1252 9.06149 10.2636 9.06149 10.3001C9.04933 10.419 9.08581 10.7928 9.11493 10.9116C9.14405 11.0379 9.30181 11.2296 9.50581 11.2296C9.63189 11.2296 9.80677 11.152 9.80677 11.1326C9.80677 11.1083 9.62709 11.0846 9.57861 10.9942C9.54949 10.9462 9.53733 10.8268 9.53061 10.7062C9.52581 10.6286 9.52581 10.5436 9.55493 10.5142C9.62053 10.4414 9.63253 10.2326 9.63253 10.2326L9.86549 9.7998H9.55908L9.19253 10.028L9.13429 10.1252Z" fill="#84754B"/>
<path fill-rule="evenodd" clip-rule="evenodd" d="M9.04443 10.2588C9.04443 10.2588 9.28443 9.94083 9.50075 9.86787C9.71707 9.79491 9.81387 9.83875 9.81387 9.83875L9.68763 10.1616L9.50795 10.3607L9.52011 10.4626C9.52011 10.4626 9.49083 10.732 9.67051 10.9189C9.85019 11.1058 9.98363 11.0986 10.0614 11.0986C10.1392 11.0986 10.3624 11.033 10.4764 10.7636C10.5784 10.5112 10.6633 10.1876 10.4595 9.86307C10.2603 9.54019 9.90843 9.52771 9.84043 9.52771C9.77243 9.52771 9.23851 9.55443 9.04443 10.2583V10.2588Z" fill="#252211"/>
<path fill-rule="evenodd" clip-rule="evenodd" d="M15.2069 11.3389C15.1171 11.2976 15.2021 11.0453 15.2919 10.9675C15.3816 10.8897 15.4957 10.8001 15.6949 10.7878C15.7675 10.783 15.8379 10.8291 15.8259 10.8777C15.809 10.9675 15.6827 11.0937 15.5687 11.1835C15.4109 11.3073 15.3088 11.3849 15.2069 11.3389Z" fill="#F7F7E7"/>
<path fill-rule="evenodd" clip-rule="evenodd" d="M10.3526 9.96258C10.4182 9.95778 10.5032 10.0106 10.5201 10.0816C10.5371 10.1592 10.4789 10.3146 10.3526 10.3146C10.2507 10.3146 10.1973 10.1883 10.1973 10.152C10.1984 10.1222 10.2068 10.093 10.2216 10.0671C10.2264 10.0597 10.2385 9.97474 10.3526 9.96258Z" fill="#F8F6DE"/>
<path fill-rule="evenodd" clip-rule="evenodd" d="M9.40597 10.0184C9.40597 10.0184 9.23844 10.096 9.16084 10.2584C9.1054 10.3784 9.08862 10.5126 9.11284 10.6424C9.125 10.7031 9.18565 10.8535 9.22693 10.9069C9.26821 10.9604 9.32405 10.9968 9.36533 10.9919C9.40661 10.9869 9.49141 10.8778 9.49141 10.8124C9.49141 10.7469 9.49637 10.4701 9.57637 10.3196C9.64677 10.1692 9.40645 10.0186 9.40645 10.0186L9.40597 10.0184Z" fill="#D4C38B"/>
<path fill-rule="evenodd" clip-rule="evenodd" d="M9.43027 10.0064C9.40115 10.0233 9.35267 10.0477 9.36467 10.0792C9.37683 10.1083 9.47875 10.1272 9.51523 10.1982C9.55651 10.271 9.55651 10.3486 9.54435 10.3851C9.57605 10.37 9.60482 10.3494 9.62931 10.3243C9.68275 10.2637 9.74819 10.1813 9.80403 10.1813C9.84051 10.1813 9.87682 10.1982 9.91091 10.1982C9.96435 10.1982 10.0176 10.1813 10.025 10.1254C10.037 10.0526 9.92307 9.98701 9.85747 9.99917C9.86963 9.95117 9.88659 9.88029 9.83315 9.83165C9.77971 9.78301 9.61234 9.86813 9.57586 9.89245C9.53938 9.91677 9.43027 10.0065 9.43027 10.0065V10.0064Z" fill="#E2D59D"/>
<path fill-rule="evenodd" clip-rule="evenodd" d="M13.2871 15.1058L13.6463 14.9998L13.7482 15.0726C13.7482 15.0726 13.8208 15.2279 13.9351 15.2473C13.8986 15.3249 13.8039 15.3913 13.8088 15.4463C13.8138 15.5014 13.8623 15.5434 13.8623 15.5434C13.8623 15.5434 13.5394 16.0774 14.1754 16.6154C14.0248 16.6761 13.8331 16.7594 13.7312 16.8074C13.8039 16.8244 13.9592 16.8554 14.0248 16.9143C14.0904 16.9732 14.0904 16.9919 14.1511 17.0284C14.2117 17.0649 14.248 17.1134 14.236 17.1351C14.1947 17.1108 14.0563 17.0382 14.0322 17.106C14.008 17.1738 13.4327 17.1473 13.4327 17.1473L12.4618 17.3342C12.4618 17.3342 12.4981 17.237 12.3962 17.1473C12.2773 17.0406 12.1317 17.1521 11.9763 17.0332C11.7725 16.8778 11.7651 16.6982 11.6997 16.6303C11.7651 16.589 11.8987 16.5284 12.2167 16.4863C12.2045 16.462 12.1632 16.3892 12.1875 16.3238C12.2167 16.2388 12.3379 16.1854 12.3016 16.0838C12.3551 16.0716 12.3792 16.0716 12.5128 15.9041C12.6391 15.7366 12.7167 15.7002 12.8138 15.6881C12.9109 15.6759 12.9691 15.6881 13.1488 15.5206C13.2749 15.4017 13.2338 15.2998 13.2338 15.2998C13.2338 15.2998 13.3162 15.273 13.2872 15.1055L13.2871 15.1058Z" fill="#CBAC5A"/>
<path fill-rule="evenodd" clip-rule="evenodd" d="M12.2264 15.1598C12.2312 15.1355 12.2507 15.1233 12.3818 15.1355C12.5128 15.1476 13.3429 15.0579 13.5686 15.0457C13.7968 15.0287 14.6002 15.0407 14.991 15.1233C15.3819 15.2059 15.7774 15.303 15.9691 15.3515C16.1611 15.4049 16.2216 15.4241 16.2142 15.4484C16.2094 15.4727 16.1662 15.4964 16.1414 15.4897C16.1173 15.4849 15.4813 15.2907 15.2848 15.2497C15.0883 15.2087 14.4085 15.0991 14.0368 15.1057C13.6898 15.1107 13.5514 15.1009 13.2578 15.1348C12.964 15.1713 12.4786 15.2198 12.333 15.2004C12.189 15.1835 12.2187 15.1835 12.2261 15.1591L12.2264 15.1598Z" fill="#D6BC6F"/>
<path fill-rule="evenodd" clip-rule="evenodd" d="M14.1803 17.0621C14.1803 17.0621 14.6779 17.3316 14.8576 17.6616C14.9886 17.9068 14.78 18.0282 14.78 18.0282C14.78 18.0282 15.0616 18.0282 15.0251 18.1836C15.0081 18.2805 14.5397 18.5426 14.2266 18.681C13.9086 18.8194 13.9208 18.8122 13.7654 18.8364C13.6149 18.8607 13.2022 18.7884 13.1173 18.9092C13.0323 19.03 13.0693 19.1544 13.0929 19.1738C13.1173 19.1908 13.3139 19.2151 13.3139 19.2151C13.3139 19.2151 13.2726 19.3292 12.8649 19.3413C12.4573 19.3535 12.3552 19.3824 12.3309 19.4263C12.3066 19.4674 12.4085 19.4432 12.5955 19.4743C12.7824 19.5034 13.0445 19.5223 13.0445 19.5223C13.0445 19.5223 12.9595 19.5951 12.7387 19.6533C12.4862 19.7188 12.0905 19.7796 11.9717 19.8524C12.0323 19.8936 12.1222 19.9543 12.1637 19.9591C12.0617 19.9834 11.9184 20.0368 11.8942 20.0562C11.9305 20.0805 11.9792 20.1096 11.9792 20.1096C11.9792 20.1096 11.7752 20.3548 11.6563 20.4156C11.5374 20.4764 10.8529 20.7941 10.6174 20.7335C10.0301 20.5781 9.95727 19.9349 9.81407 19.8864C9.59807 19.8136 9.49615 19.9591 9.30431 19.8572C9.38927 19.7965 9.43551 19.7602 9.52527 19.7189C9.42815 19.6709 8.92575 19.3524 8.92575 19.3524C8.87321 19.2378 8.8149 19.1261 8.75103 19.0175C8.65391 18.85 8.51103 18.6266 8.40383 18.43C8.17087 17.998 8.15871 17.7989 7.94751 17.5538C7.98399 17.5058 8.11007 17.5125 8.11007 17.5125L9.87967 18.0951L13.0174 18.186L13.8334 17.021L14.1805 17.0623L14.1803 17.0621Z" fill="#DFC677"/>
<path fill-rule="evenodd" clip-rule="evenodd" d="M9.53223 18.8388C9.55116 18.8599 9.57323 18.8779 9.59767 18.8923C9.65847 18.9335 9.74823 18.9822 9.80887 19.0548C9.83319 19.0185 9.89383 18.9529 10.0009 19.0548C10.1079 19.1567 10.2409 19.0841 10.3236 19.1083C10.4085 19.1375 10.4133 19.1495 10.4133 19.1495C10.4133 19.1495 10.4613 19.1083 10.5687 19.0646C10.6343 19.0403 10.7119 19.0233 10.7969 18.9991C10.8745 18.9822 10.9594 18.9579 11.0178 18.9579C11.0713 18.9942 11.2629 19.1979 12.0324 18.8972C12.7581 18.6156 12.9255 18.5841 13.0469 18.6276C13.0591 18.5985 13.0713 18.5427 13.2581 18.55C13.2581 18.4724 13.1028 18.2078 13.1028 18.2078L12.246 17.9142H11.7773L10.3721 18.1715L9.59335 18.6158L9.53271 18.8398L9.53223 18.8388Z" fill="#C4A859"/>
<path fill-rule="evenodd" clip-rule="evenodd" d="M9.06372 18.3461C9.06372 18.3461 9.08068 18.4772 9.27492 18.6156C9.46692 18.7538 9.52724 18.8364 9.52724 18.8364C9.52724 18.8364 9.56372 18.7884 9.59284 18.7394C9.62196 18.686 9.64628 18.6253 9.69476 18.6084C9.79188 18.5671 10.0127 18.6447 10.0613 18.6325C10.1026 18.6205 10.0904 18.5356 10.1341 18.5356C10.236 18.5306 10.3015 18.601 10.338 18.601C10.3744 18.601 10.464 18.5962 10.4762 18.5768C10.4884 18.5575 10.4932 18.3559 10.6316 18.2588C10.7821 18.152 10.9666 18.1981 11.0156 18.2224C11.0156 18.2588 11.0204 18.3487 11.1175 18.3535C11.2146 18.3583 11.2242 18.3413 11.3095 18.3704C11.3948 18.3996 11.4964 18.3656 11.5424 18.5087C11.5837 18.4967 11.6808 18.4845 11.6565 18.3461C11.7045 18.3098 11.7464 18.2855 11.8485 18.1423C11.8728 18.106 11.914 18.0647 11.9456 18.0112C12.0306 18.0112 12.1325 17.9943 12.2684 18.1132C12.2271 18.1423 12.2028 18.1612 12.1908 18.1908C12.2263 18.2259 12.2587 18.2641 12.2877 18.3048C12.3242 18.3528 12.3485 18.4117 12.3946 18.4239C12.4965 18.453 12.664 18.4117 12.8509 18.4239C13.0306 18.436 13.181 18.5015 13.2466 18.5428C13.2709 18.5308 13.2709 18.5258 13.3316 18.538C13.3922 18.5501 13.4383 18.5549 13.3728 18.4773C13.4092 18.4943 13.4504 18.5308 13.4869 18.4943C13.5234 18.4578 13.5524 18.4045 13.6543 18.3924C13.7562 18.3802 13.7927 18.3972 13.834 18.2904C13.8874 18.1594 13.7029 18.1594 13.7029 18.1594C13.7029 18.1594 13.7879 18.0816 13.8826 17.9797C13.9967 17.873 14.1277 17.7346 14.1592 17.5647C14.2127 17.2516 13.9069 17.2104 13.9069 17.2104L12.4239 17.6668L10.6108 17.5768L9.06468 18.3463L9.06372 18.3461Z" fill="#927D49"/>
<path fill-rule="evenodd" clip-rule="evenodd" d="M7.73142 14.0622C7.73142 14.0622 7.68342 14.1228 7.65382 14.266C7.62422 14.4092 7.63686 14.3923 7.61254 14.4942C7.58822 14.5961 7.2895 15.6107 7.4015 15.9529C7.5135 16.2951 7.70742 16.4214 7.8287 16.698C7.85302 16.7587 7.8767 16.7951 7.88934 16.8486C7.93062 17.0281 7.8943 17.1665 7.94278 17.3462C7.95974 17.4068 8.00358 17.4772 8.06902 17.55C8.21302 17.7004 8.44774 17.8436 8.54902 17.9455C8.69206 18.0961 8.89606 18.402 9.15574 18.431C9.29414 18.4479 9.49078 18.3897 9.65334 18.2927C9.79734 18.2028 9.8863 18.0767 10.0373 18.0047C10.1441 17.9513 10.2581 17.9319 10.3601 17.9076C10.5713 17.8663 10.7631 17.8596 10.8772 17.8833C11.0519 17.9198 11.4645 18.046 11.6932 18.046C11.8718 18.0431 12.0495 18.0187 12.2223 17.9732C12.5693 17.8713 12.9892 17.6964 13.266 17.6188C13.4285 17.5708 13.5596 17.5582 13.6932 17.5291C13.9213 17.4756 14.113 17.4028 14.2223 17.2644C14.1495 17.1795 14.0597 17.0484 13.5741 17.0532C13.0233 17.0654 12.3873 17.3711 12.0741 17.4198C11.761 17.4684 11.6252 17.5095 11.2756 17.3833C10.9329 17.2558 10.9215 17.1715 10.9215 17.1715C10.9215 17.1715 10.5617 16.9198 10.4111 16.2782C10.2605 15.6366 10.4111 15.1691 10.802 14.7247C10.9039 14.6107 10.8796 14.5087 10.8796 14.5087C10.8796 14.5087 11.1369 14.1617 11.0665 13.8367C10.9889 13.5139 10.4913 13.5795 10.4913 13.5795L7.73158 14.0622H7.73142Z" fill="#6E6342"/>
<path fill-rule="evenodd" clip-rule="evenodd" d="M8.1464 15.1423C8.125 15.1826 8.11493 15.2279 8.11728 15.2734C8.12208 15.3388 8.1416 15.4238 8.33808 15.6156C8.5056 15.783 8.46912 15.9699 8.46912 15.9699C8.46912 15.9699 8.55344 15.9868 8.78224 15.8798C8.96192 15.7948 9.02224 15.9454 9.02224 15.9454C9.07454 15.9179 9.13123 15.8999 9.18976 15.8919C9.24278 15.887 9.2941 15.8707 9.34016 15.8439C9.34016 15.8439 9.55136 16.0599 9.73584 16.1619C9.90336 16.2518 10.0005 16.3124 10.083 16.2518C10.1606 16.1983 10.1606 16.0891 10.1557 16.0406C10.1364 15.9958 10.112 15.9535 10.083 15.9143C10.0296 15.8367 9.94464 15.7468 9.93904 15.6743C9.92688 15.507 10.0653 15.3078 10.036 15.2593C10.0067 15.2108 9.89776 15.1987 9.62832 15.2958C9.34928 15.3879 8.14528 15.1428 8.14528 15.1428L8.1464 15.1423Z" fill="#39331F"/>
<path fill-rule="evenodd" clip-rule="evenodd" d="M8.7822 16.2273C8.7822 16.2273 8.64396 16.0963 8.69244 15.4603C8.75113 15.4594 8.80973 15.4651 8.86716 15.4772C8.86716 15.4772 8.94252 15.97 8.7822 16.2273Z" fill="#292311"/>
<path fill-rule="evenodd" clip-rule="evenodd" d="M7.79681 13.5768C7.8161 13.5625 7.83399 13.5464 7.85025 13.5288C7.80225 13.6185 7.58065 13.9777 7.76033 14.5433C7.94001 15.1064 8.39137 15.5262 8.94721 15.5457C9.50305 15.5652 9.79521 15.2932 10.1293 14.8856C10.2603 14.723 10.4109 14.519 10.5443 14.3808C10.7434 14.1646 10.8987 14.104 10.8987 13.8953C10.8987 13.4681 10.4618 13.2763 9.81857 13.0846C9.17537 12.8929 8.59521 12.9166 8.29425 13.0478C8.00065 13.1908 7.87441 13.3414 7.79665 13.5769L7.79681 13.5768Z" fill="#252211"/>
<path fill-rule="evenodd" clip-rule="evenodd" d="M9.8623 16.4189L9.9103 16.3946C9.9103 16.3946 9.9223 16.2026 10.0001 16.2077C10.0777 16.2199 10.1141 16.322 10.1068 16.3583C10.102 16.3946 10.0826 16.4554 10.0049 16.4481C9.90294 16.4505 9.86182 16.4189 9.86182 16.4189H9.8623Z" fill="#3F3824"/>
<path fill-rule="evenodd" clip-rule="evenodd" d="M9.64624 15.6035C9.64624 15.6035 9.69424 15.5865 9.75296 15.6448C9.80096 15.6448 10.0102 15.6205 10.0758 15.6617C10.1414 15.703 10.1608 15.7393 10.1608 15.7393C10.1608 15.7393 9.91568 15.7928 9.78208 15.7393C9.64624 15.6933 9.64624 15.6035 9.64624 15.6035Z" fill="#2D2815"/>
<path fill-rule="evenodd" clip-rule="evenodd" d="M10.7266 15.6398C10.7266 15.6277 10.5955 15.5379 10.4571 15.5086C10.4328 15.5038 10.4278 15.5208 10.4091 15.5208C10.397 15.516 10.3922 15.4795 10.3922 15.4795L10.3134 15.5209C10.3134 15.5209 10.3013 15.5379 10.3426 15.5689C10.3789 15.5981 10.4397 15.6224 10.4566 15.6709C10.4736 15.7193 10.4736 15.7363 10.481 15.7437C10.4858 15.7485 10.5707 15.7437 10.612 15.7193C10.6533 15.695 10.731 15.6553 10.7261 15.6393L10.7266 15.6398Z" fill="#82764F"/>
<path fill-rule="evenodd" clip-rule="evenodd" d="M9.50073 16.1325C9.50073 16.1325 9.52489 15.9652 9.68761 15.9578C9.85497 15.9456 9.88665 16.1082 9.88665 16.1082L9.78953 16.2053C9.78953 16.2029 9.71673 16.101 9.50153 16.1325H9.50073Z" fill="#2D2816"/>
<path fill-rule="evenodd" clip-rule="evenodd" d="M10.5565 15.4117C10.5565 15.4117 10.4666 15.5088 10.2677 15.5379C10.2508 15.5136 10.2143 15.4651 10.2677 15.3875C10.3212 15.3099 10.3818 15.2856 10.4425 15.3097C10.4692 15.3141 10.4942 15.326 10.5144 15.344C10.5346 15.3621 10.5492 15.3856 10.5565 15.4117Z" fill="#574F35"/>
<path fill-rule="evenodd" clip-rule="evenodd" d="M10.923 15.5306C10.9279 15.5063 10.911 15.5015 10.923 15.4893C10.935 15.4772 11.0007 15.453 11.0129 15.465C11.0177 15.47 11.0129 15.4893 11.0129 15.513C11.0129 15.5367 11.0129 15.561 11.0007 15.5785C10.9838 15.6028 10.9353 15.6149 10.911 15.6077C10.8866 15.6005 10.8818 15.5665 10.8818 15.5597C10.8938 15.5549 10.923 15.5428 10.923 15.5306ZM11.3374 15.2685C11.3374 15.2564 11.3786 15.2321 11.403 15.2321C11.4393 15.2321 11.4393 15.2612 11.4442 15.2685C11.4562 15.2733 11.4562 15.2636 11.4684 15.2855C11.4806 15.3074 11.4977 15.3461 11.4854 15.3705C11.473 15.3948 11.4247 15.4116 11.4127 15.4068C11.3958 15.3946 11.3423 15.2855 11.3374 15.2685Z" fill="#82764F"/>
<path fill-rule="evenodd" clip-rule="evenodd" d="M10.5032 15.5865C10.5032 15.5865 10.5566 15.5985 10.6294 15.6593C10.6051 15.6762 10.5686 15.6956 10.5686 15.6956C10.5686 15.6956 10.5638 15.6397 10.5032 15.5863V15.5865Z" fill="#6E6342"/>
<path fill-rule="evenodd" clip-rule="evenodd" d="M10.3842 15.0524C10.3721 15.0404 10.4206 15.0113 10.4497 15.0161C10.4788 15.0209 10.491 15.0404 10.5225 15.0452C10.554 15.05 10.559 15.0331 10.5705 15.0209C10.582 15.0088 10.6239 15.0161 10.6311 15.0209C10.6356 15.0262 10.6397 15.0319 10.6433 15.0379C10.6438 15.0286 10.6462 15.0196 10.6504 15.0114C10.6545 15.0031 10.6603 14.9958 10.6674 14.9899C10.6768 14.983 10.6875 14.9784 10.6988 14.9763C10.7102 14.9742 10.7219 14.9747 10.733 14.9777C10.7378 14.9947 10.7622 15.0553 10.7574 15.0675C10.7526 15.0796 10.6798 15.0968 10.6674 15.0844C10.6796 15.1137 10.733 15.1744 10.7402 15.1864C10.7474 15.1984 10.6868 15.2276 10.6626 15.2228C10.6287 15.2204 10.4199 15.099 10.3836 15.0529L10.3842 15.0524ZM10.7022 14.6496C10.6977 14.6373 10.6891 14.627 10.6778 14.6204C10.6609 14.6156 10.605 14.6204 10.605 14.6496C10.605 14.6787 10.653 14.8416 10.707 14.9264C10.7678 15.0113 10.8089 15.0816 10.8502 15.1011C10.8631 15.107 10.8778 15.1077 10.8913 15.1032C10.9049 15.0987 10.9162 15.0893 10.923 15.0768C10.9278 15.0646 10.9399 14.9748 10.9351 14.7636C10.9303 14.5524 10.923 14.3486 10.9108 14.3364C10.8986 14.3243 10.8502 14.3244 10.8332 14.3486C10.8162 14.3728 10.707 14.6132 10.702 14.6496H10.7022Z" fill="#585136"/>
<path fill-rule="evenodd" clip-rule="evenodd" d="M10.4862 15.8923C10.4862 15.8923 10.4013 15.8388 10.3187 15.8753C10.2411 15.9118 10.2459 16.055 10.2459 16.055C10.2634 16.0618 10.2822 16.0643 10.3009 16.0622C10.3195 16.06 10.3373 16.0534 10.3528 16.0428C10.4062 16.0065 10.4741 15.9459 10.4862 15.8924V15.8923Z" fill="#574F35"/>
<path fill-rule="evenodd" clip-rule="evenodd" d="M10.6464 16.0841C10.6416 16.0361 10.5984 16.0361 10.5984 16.0113C10.6014 15.9994 10.6082 15.9889 10.6179 15.9814C10.6276 15.9739 10.6394 15.9699 10.6517 15.97C10.676 15.97 10.6997 15.9991 10.7294 16.018C10.7585 16.0349 10.8022 16.066 10.807 16.1029C10.8118 16.1399 10.759 16.2412 10.7003 16.2412C10.6416 16.2412 10.659 16.1319 10.6469 16.0834L10.6464 16.0841ZM11.1149 16.0185C11.1149 16.0185 11.0177 16.0476 11.0249 16.0185C11.0321 15.9893 11.0542 15.9821 11.0857 15.9821C11.1018 15.9654 11.1233 15.955 11.1464 15.9529C11.1596 15.9522 11.1726 15.9565 11.1827 15.965C11.1827 15.965 11.2483 15.9359 11.2677 15.9529C11.287 15.9698 11.2726 15.9698 11.2846 15.9893C11.2999 16.011 11.3099 16.0359 11.3139 16.0621C11.3139 16.0815 11.2411 16.1228 11.1827 16.1156C11.1149 16.101 11.1269 16.0306 11.1149 16.0185ZM11.6803 15.9092C11.6803 15.9092 11.7094 15.9261 11.6853 15.9457C11.6683 15.9626 11.5833 15.9937 11.5104 15.9991C11.4376 15.9991 11.3721 16.0111 11.3721 15.9869C11.3721 15.9628 11.4328 15.9141 11.4691 15.902C11.4764 15.8929 11.4856 15.8855 11.4962 15.8804C11.5067 15.8754 11.5182 15.8728 11.5299 15.8729C11.559 15.8729 11.6729 15.8607 11.7046 15.8559C11.7337 15.8509 11.7581 15.8679 11.7409 15.8922C11.7337 15.9092 11.6803 15.9092 11.6803 15.9092ZM11.8478 15.1597C11.8478 15.1597 11.8113 15.2373 11.7702 15.2373C11.7289 15.2325 11.7289 15.2204 11.7289 15.2082C11.7289 15.1913 11.7702 15.1476 11.7653 15.1354C11.7533 15.1354 11.724 15.1354 11.7289 15.1063C11.7289 15.082 11.7702 15.0529 11.8065 15.0583C11.834 15.0357 11.8682 15.023 11.9037 15.022C11.9449 15.022 11.9813 15.034 11.9813 15.0583C11.9813 15.0826 11.9333 15.1359 11.9157 15.1482C11.8963 15.1676 11.872 15.1802 11.8478 15.1602V15.1597ZM11.2944 16.5941C11.2944 16.5941 11.2464 16.5991 11.2464 16.6233C11.2464 16.6354 11.2584 16.6354 11.2755 16.6282C11.2854 16.6277 11.2951 16.626 11.3046 16.6233C11.3094 16.6282 11.3094 16.6524 11.3459 16.6524C11.3759 16.6483 11.4047 16.6384 11.4309 16.6233C11.46 16.6113 11.4843 16.5989 11.4843 16.5753C11.4721 16.534 11.4478 16.5145 11.4115 16.5145C11.3929 16.5133 11.3743 16.5175 11.3581 16.5266C11.3581 16.5266 11.3459 16.5023 11.3046 16.5266C11.2633 16.5509 11.2681 16.5509 11.2803 16.5631C11.3021 16.5825 11.2949 16.5951 11.2949 16.5951L11.2944 16.5941ZM11.0201 16.8466C11.0201 16.8345 11.0808 16.8101 11.0977 16.8175C11.1147 16.8223 11.1632 16.9145 11.1632 16.9242C11.1632 16.9364 11.1025 16.9655 11.0782 16.9655C11.0539 16.9655 11.0128 16.9242 11.0128 16.9175C11.0128 16.9127 11.0419 16.9055 11.0419 16.9005C11.0491 16.8885 11.0201 16.8593 11.0201 16.8471V16.8466ZM10.8281 16.4922C10.8403 16.4874 10.8403 16.4753 10.8573 16.4631C10.8626 16.4596 10.8686 16.4573 10.875 16.4565C10.8813 16.4556 10.8877 16.4563 10.8937 16.4583C10.898 16.4507 10.904 16.4441 10.9111 16.439C10.9182 16.4339 10.9264 16.4305 10.935 16.429C10.9641 16.4242 10.9885 16.429 10.983 16.4412C10.983 16.4777 11.0073 16.5018 11.0073 16.5309C11.0073 16.5601 10.9904 16.5965 10.9297 16.6209C10.8691 16.6378 10.7865 16.6378 10.7744 16.633C10.7622 16.6282 10.7501 16.5796 10.7622 16.5553C10.7744 16.5309 10.8083 16.5044 10.8278 16.4922H10.8281Z" fill="#82764F"/>
<path fill-rule="evenodd" clip-rule="evenodd" d="M10.9053 16.5087C10.9053 16.5087 10.864 16.533 10.864 16.5451C10.8604 16.5569 10.8587 16.5692 10.8592 16.5815C10.8592 16.5887 10.9127 16.5767 10.9199 16.5693C10.9223 16.5645 10.9053 16.5213 10.9053 16.5087Z" fill="#6E6342"/>
<path fill-rule="evenodd" clip-rule="evenodd" d="M10.5444 16.3946C10.5686 16.3996 10.6098 16.3946 10.6414 16.4068C10.6657 16.419 10.6826 16.4433 10.6583 16.4724C10.634 16.5015 10.6103 16.5452 10.5564 16.5378C10.4958 16.533 10.4375 16.5015 10.4375 16.4772C10.4365 16.4618 10.4385 16.4464 10.4435 16.4318C10.4485 16.4172 10.4564 16.4038 10.4666 16.3922C10.491 16.3729 10.503 16.385 10.5442 16.3946H10.5444Z" fill="#585136"/>
<path fill-rule="evenodd" clip-rule="evenodd" d="M10.5152 16.4189C10.5152 16.4189 10.4376 16.4796 10.4181 16.5089C10.3938 16.538 10.2749 16.6884 10.2386 16.7199C10.2506 16.6986 10.2644 16.6783 10.2797 16.6593C10.2317 16.69 10.1957 16.7362 10.1778 16.7903C10.1487 16.8802 10.3405 16.9287 10.4666 16.9652C10.5927 17.0017 10.6415 17.0132 10.6415 17.0132C10.595 16.9434 10.5552 16.8695 10.5224 16.7924C10.4744 16.6783 10.4496 16.6661 10.4811 16.6127C10.5055 16.5593 10.5419 16.5229 10.5419 16.4817C10.5274 16.4433 10.5152 16.4189 10.5152 16.4189Z" fill="#574F35"/>
<path fill-rule="evenodd" clip-rule="evenodd" d="M7.74837 16.6108C7.76603 16.6141 7.78414 16.6141 7.80181 16.6108C7.83813 16.6058 8.21685 16.4668 8.61253 16.4918C8.90874 16.5097 9.20233 16.5579 9.48869 16.6358C9.98629 16.7668 10.6052 17.0265 11.0056 17.1746C11.1124 17.2158 11.2168 17.2887 11.2936 17.3177C11.5996 17.4367 11.6116 17.4367 11.7912 17.4682C12.0024 17.4974 12.2184 17.427 12.4442 17.3785C12.7208 17.3177 13.1941 17.2886 13.6092 17.2279C13.7434 17.2093 13.8757 17.1793 14.0048 17.1382C14.0048 17.1382 13.6748 17.4682 12.8834 17.5871C12.5635 17.6357 12.2385 17.6398 11.9175 17.5993C11.665 17.575 11.4976 17.5385 11.3714 17.5022C11.2282 17.4609 10.9344 17.3516 10.5728 17.2622C10.3204 17.1966 10.0388 17.1481 9.71605 17.0874C8.91989 16.9417 8.05589 16.7743 7.74805 16.6118L7.74837 16.6108Z" fill="#252211"/>
<path fill-rule="evenodd" clip-rule="evenodd" d="M6.85489 15.1108C6.66289 15.2734 6.45921 15.4288 6.26033 15.5792L5.66081 16.0398C5.45697 16.1902 5.25793 16.3456 5.05393 16.4961C4.84993 16.6467 4.64625 16.7897 4.42993 16.9281C4.62193 16.7656 4.82561 16.615 5.02945 16.467C5.23329 16.319 5.44465 16.1739 5.64129 16.0238L6.24081 15.5625C6.44705 15.4121 6.64609 15.2568 6.85489 15.1112V15.1108ZM5.79425 16.8099C5.79425 16.8099 6.01025 16.6302 6.27969 16.3779C6.61457 16.0649 7.02481 15.6643 7.15585 15.5916L5.79409 16.81L5.79425 16.8099Z" fill="#CFB66C"/>
<path fill-rule="evenodd" clip-rule="evenodd" d="M5.79443 16.8097C5.90131 16.7029 6.01539 16.5986 6.12947 16.4965L6.30419 16.3461C6.35763 16.2981 6.41843 16.2442 6.47171 16.1908C6.57843 16.0841 6.68291 15.9698 6.78963 15.8607C6.84253 15.8058 6.89846 15.754 6.95715 15.7053C6.9865 15.6794 7.01909 15.6573 7.05411 15.6397C7.08339 15.6228 7.11491 15.5917 7.15603 15.5863C7.13187 15.6228 7.10275 15.6397 7.07843 15.6713C7.04931 15.6956 7.02499 15.7247 7.00083 15.7489C6.94739 15.8023 6.88675 15.8508 6.83331 15.8994C6.71923 15.9965 6.60035 16.0914 6.48627 16.193C6.37219 16.2946 6.26547 16.4042 6.15123 16.5061C6.02755 16.6106 5.91347 16.7125 5.79443 16.8101V16.8097ZM7.24595 15.8388C7.24595 15.8388 6.45475 16.6132 6.29203 16.7393L7.24595 15.8388Z" fill="#CFB66C"/>
<path fill-rule="evenodd" clip-rule="evenodd" d="M7.24591 15.8387C7.17474 15.9211 7.09842 15.9989 7.01743 16.0717L6.77743 16.2999C6.69983 16.3775 6.62687 16.4552 6.54447 16.5328C6.45951 16.6056 6.38191 16.6768 6.29199 16.744L6.52495 16.5159C6.60271 16.4383 6.68767 16.3728 6.77023 16.2951L7.00319 16.0669C7.08319 15.9869 7.16095 15.9091 7.24591 15.8387ZM7.28223 16.2586C7.2093 16.4621 7.12336 16.6608 7.02495 16.8533C6.82111 17.2611 6.51535 17.7707 6.38175 18.0306L7.28223 16.2586Z" fill="#CFB66C"/>
<path fill-rule="evenodd" clip-rule="evenodd" d="M7.28211 16.2588C7.28211 16.3485 7.25779 16.4263 7.22867 16.5039C7.20029 16.5816 7.16792 16.6577 7.13171 16.7321C7.09523 16.8049 7.05395 16.8826 7.01267 16.953C6.97139 17.0234 6.92291 17.0961 6.88643 17.169L6.64131 17.601C6.55635 17.745 6.47379 17.8898 6.38403 18.0282C6.44467 17.8729 6.52723 17.7273 6.60499 17.5841C6.68995 17.4401 6.76755 17.2961 6.84499 17.1471C6.8828 17.0729 6.91682 16.9968 6.94691 16.9191C6.98323 16.8413 7.01955 16.7685 7.04883 16.6981C7.08515 16.6205 7.11427 16.5476 7.15075 16.4773C7.19187 16.402 7.22595 16.3292 7.28179 16.2588H7.28211Z" fill="#CFB66C"/>
<path fill-rule="evenodd" clip-rule="evenodd" d="M8.1464 18.249C8.1464 18.249 7.9064 18.5669 7.9304 18.9698C7.99584 18.7588 8.0784 18.4359 8.1464 18.249ZM8.37456 18.5677C8.37456 18.5677 8.2896 19.4317 8.2192 19.8565C8.31872 19.3655 8.33808 19.4068 8.37456 18.5677ZM9.96432 19.9076C9.96432 19.9076 9.60512 20.9636 9.59776 21.257C9.67552 20.9553 9.82592 20.3388 9.96432 19.9068V19.9076Z" fill="#DEC270"/>
<path fill-rule="evenodd" clip-rule="evenodd" d="M10.8042 18.1837C10.8042 18.1837 11.3868 19.1448 11.8237 19.9652C11.7055 19.5524 11.4335 18.7952 10.8042 18.1837Z" fill="#CBAF59"/>
<path fill-rule="evenodd" clip-rule="evenodd" d="M12.3696 19.5986C12.6895 20.164 12.9779 20.7466 13.2336 21.3438C13.1851 20.9311 13.0539 20.2249 12.3696 19.5986Z" fill="#E3C677"/>
<path fill-rule="evenodd" clip-rule="evenodd" d="M16.9715 21.0158C17.0685 20.9551 17.2603 20.6249 17.4278 20.5425C17.5952 20.4575 17.7214 20.4406 17.872 20.2731C18.0224 20.0982 18.064 19.9915 18.3938 19.8532C18.855 19.654 18.5378 19.3967 18.5378 19.3967C18.5886 19.3468 18.6429 19.3006 18.7003 19.2585C18.8194 19.1687 18.9576 19.0595 18.9456 18.8676C18.9286 18.5449 18.868 18.0764 18.6034 17.8046C18.8606 17.7511 19.3533 17.7148 19.6594 17.6372C20.0136 17.5473 20.1763 17.4211 20.1763 17.4211C20.1763 17.4211 19.9725 17.074 20.3026 16.7246C20.6326 16.3751 20.9021 16.1663 21.1011 15.7755C20.873 15.7463 20.5251 15.6251 19.6374 15.9623C19.6854 15.9849 19.7316 16.0108 19.7758 16.0399C19.7758 16.0399 19.2298 16.1905 19.0307 16.358C18.6835 16.6516 18.6398 16.8919 18.2637 17.0716C17.8875 17.2513 17.5088 17.2027 17.1958 17.3483C16.8829 17.4939 16.8366 17.6177 16.7224 17.6711C16.7467 17.7003 16.7176 17.7487 16.7637 17.79C16.7346 17.8313 16.5646 18.1079 16.3923 18.1079C16.4093 18.1735 16.5549 18.222 16.5549 18.222C16.5549 18.222 16.4482 18.2998 16.1763 18.3191C16.3146 18.4631 16.4458 18.6201 16.8074 18.8483C16.7782 18.9089 16.6568 18.9988 16.7054 19.1129C16.7589 19.227 16.8974 19.3823 17.4506 19.5086C17.169 19.5206 16.839 19.5862 16.3946 19.5255C15.9504 19.4721 15.8776 19.4406 15.6034 19.5086C15.6325 19.5377 15.7101 19.5377 15.7781 19.6153C15.7053 19.6201 15.249 19.5619 15.0936 19.7659C14.931 19.9769 14.8606 20.3241 14.8728 20.5571C14.7878 20.5983 14.7053 20.6711 14.7466 20.8217C14.7878 20.9723 15.0038 21.0207 15.1422 21.1153C15.2805 21.2172 15.2926 21.2535 15.4238 21.2294C15.5621 21.2003 15.7659 21.062 15.885 21.062C16.004 21.062 16.0888 21.1518 16.0888 21.1518C16.0888 21.1518 16.4117 20.9964 16.4432 21.0255C16.4723 21.0547 16.448 21.2415 16.4795 21.2707C16.5115 21.2926 16.8752 21.0766 16.9723 21.0158H16.9715Z" fill="#ECD592"/>
<path fill-rule="evenodd" clip-rule="evenodd" d="M24.0275 11.3025C22.5106 7.38506 18.7605 6.6593 18.7605 6.6593H8.06144L8.10272 10.6495H10.2334V19.5598H8.06128V23.5428H18.4643C20.9715 23.5428 22.9813 21.0233 22.9813 21.0233C26.1997 16.4555 24.0274 11.3025 24.0274 11.3025H24.0275ZM18.5202 18.3388C18.5202 18.3388 17.7042 19.5161 16.8163 19.5161H15.0403L14.9982 10.6593H17.2774C17.2774 10.6593 18.3334 10.8801 19.0712 12.9699C19.0712 12.9699 20.0493 15.9619 18.5202 18.3388Z" fill="white" fill-opacity="0.8"/>
</g>
<defs>
<clipPath id="clip0_120_35712">
<rect width="30" height="30" fill="white" transform="translate(0.777832)"/>
</clipPath>
</defs>
</svg>
