<svg width="31" height="30" viewBox="0 0 31 30" fill="none" xmlns="http://www.w3.org/2000/svg">
<g clip-path="url(#clip0_120_35716)">
<path d="M15.8887 30C24.2012 30 30.8887 23.3125 30.8887 15C30.8887 6.68745 24.2012 0 15.8887 0C7.57612 0 0.888672 6.68745 0.888672 15C0.888672 23.3125 7.57612 30 15.8887 30Z" fill="#2775CA"/>
<path d="M20.0138 17.3748C20.0138 15.1873 18.7013 14.4373 16.0763 14.1249C14.2013 13.8748 13.8263 13.3749 13.8263 12.4998C13.8263 11.6247 14.4514 11.0623 15.7013 11.0623C16.8263 11.0623 17.4514 11.4373 17.7638 12.3748C17.8264 12.5623 18.0139 12.6873 18.2014 12.6873H19.2012C19.4513 12.6873 19.6388 12.4998 19.6388 12.2499V12.1873C19.3887 10.8123 18.2638 9.74981 16.8263 9.62486V8.12486C16.8263 7.87481 16.6388 7.68731 16.3264 7.62476H15.3889C15.1388 7.62476 14.9513 7.81226 14.8888 8.12486V9.56231C13.0138 9.81236 11.8264 11.0623 11.8264 12.6249C11.8264 14.6874 13.0764 15.4998 15.7013 15.8124C17.4514 16.1248 18.0139 16.4998 18.0139 17.4999C18.0139 18.4999 17.1388 19.1874 15.9514 19.1874C14.3263 19.1874 13.7638 18.4998 13.5763 17.5623C13.5139 17.3124 13.3264 17.1873 13.1389 17.1873H12.0763C11.8264 17.1873 11.6389 17.3748 11.6389 17.6248V17.6874C11.8888 19.2498 12.8889 20.3748 14.9513 20.6874V22.1874C14.9513 22.4373 15.1388 22.6248 15.4513 22.6873H16.3888C16.6388 22.6873 16.8263 22.4998 16.8889 22.1874V20.6874C18.7639 20.3748 20.0138 19.0623 20.0138 17.3748Z" fill="white"/>
<path d="M12.7012 23.9376C7.82617 22.1877 5.32612 16.7502 7.13872 11.9376C8.07622 9.31264 10.1387 7.31269 12.7012 6.37519C12.9512 6.25024 13.0762 6.06274 13.0762 5.75014V4.87519C13.0762 4.62514 12.9512 4.43764 12.7012 4.37524C12.6386 4.37524 12.5137 4.37524 12.4511 4.43764C6.51367 6.31264 3.26362 12.6252 5.13862 18.5627C6.26362 22.0626 8.95117 24.7502 12.4511 25.8752C12.7012 26.0001 12.9512 25.8752 13.0136 25.6251C13.0762 25.5627 13.0762 25.5002 13.0762 25.3752V24.5001C13.0762 24.3126 12.8887 24.0627 12.7012 23.9376ZM19.3262 4.43764C19.0762 4.31269 18.8261 4.43764 18.7637 4.68769C18.7012 4.75024 18.7012 4.81264 18.7012 4.93774V5.81269C18.7012 6.06274 18.8887 6.31264 19.0762 6.43774C23.9512 8.18764 26.4512 13.6251 24.6386 18.4377C23.7011 21.0627 21.6386 23.0627 19.0762 24.0002C18.8261 24.1251 18.7012 24.3126 18.7012 24.6252V25.5002C18.7012 25.7502 18.8261 25.9377 19.0762 26.0001C19.1387 26.0001 19.2637 26.0001 19.3262 25.9377C25.2637 24.0627 28.5137 17.7501 26.6387 11.8127C25.5137 8.25019 22.7636 5.56264 19.3262 4.43764Z" fill="white"/>
</g>
<defs>
<clipPath id="clip0_120_35716">
<rect width="30" height="30" fill="white" transform="translate(0.888672)"/>
</clipPath>
</defs>
</svg>
