<svg width="31" height="30" viewBox="0 0 31 30" fill="none" xmlns="http://www.w3.org/2000/svg">
<path d="M15.2222 30C23.5064 30 30.2222 23.2843 30.2222 15C30.2222 6.71573 23.5064 0 15.2222 0C6.9379 0 0.222168 6.71573 0.222168 15C0.222168 23.2843 6.9379 30 15.2222 30Z" fill="#26A17B"/>
<path fill-rule="evenodd" clip-rule="evenodd" d="M16.7428 16.4662V16.4644C16.6397 16.4719 16.1081 16.5037 14.9222 16.5037C13.9753 16.5037 13.3087 16.4756 13.0744 16.4644V16.4672C9.42935 16.3069 6.70873 15.6722 6.70873 14.9128C6.70873 14.1544 9.42935 13.5197 13.0744 13.3566V15.8353C13.3125 15.8522 13.995 15.8925 14.9381 15.8925C16.0697 15.8925 16.6369 15.8456 16.7428 15.8362V13.3584C20.3803 13.5206 23.0944 14.1553 23.0944 14.9128C23.0944 15.6722 20.3803 16.305 16.7428 16.4662ZM16.7428 13.1006V10.8825H21.8184V7.5H7.99873V10.8825H13.0744V13.0997C8.94935 13.2891 5.84717 14.1066 5.84717 15.0853C5.84717 16.0641 8.94935 16.8806 13.0744 17.0709V24.1791H16.7428V17.0691C20.8612 16.8797 23.9559 16.0631 23.9559 15.0853C23.9559 14.1075 20.8612 13.2909 16.7428 13.1006Z" fill="white"/>
</svg>
