<svg width="31" height="30" viewBox="0 0 31 30" fill="none" xmlns="http://www.w3.org/2000/svg">
<g clip-path="url(#clip0_120_35708)">
<path d="M15.1665 30C23.4508 30 30.1665 23.2843 30.1665 15C30.1665 6.71573 23.4508 0 15.1665 0C6.88223 0 0.166504 6.71573 0.166504 15C0.166504 23.2843 6.88223 30 15.1665 30Z" fill="#23292F"/>
<path d="M21.7946 7.5H24.504L18.8649 13.0847C17.879 14.0561 16.5505 14.6006 15.1665 14.6006C13.7825 14.6006 12.454 14.0561 11.4681 13.0847L5.82432 7.5H8.53838L12.8228 11.7403C13.4467 12.3561 14.288 12.7014 15.1646 12.7014C16.0413 12.7014 16.8826 12.3561 17.5065 11.7403L21.7946 7.5ZM8.50557 23.0278H5.7915L11.4681 17.4094C12.454 16.438 13.7825 15.8935 15.1665 15.8935C16.5505 15.8935 17.879 16.438 18.8649 17.4094L24.5415 23.0269H21.8274L17.5103 18.75C16.8864 18.1342 16.045 17.7889 15.1684 17.7889C14.2918 17.7889 13.4504 18.1342 12.8265 18.75L8.50463 23.0278H8.50557Z" fill="white"/>
</g>
<defs>
<clipPath id="clip0_120_35708">
<rect width="30" height="30" fill="white" transform="translate(0.166504)"/>
</clipPath>
</defs>
</svg>
