<svg width="12" height="12" viewBox="0 0 12 12" fill="none" xmlns="http://www.w3.org/2000/svg">
<path d="M5.83333 0C2.61858 0 0 2.61858 0 5.83333C0 9.04809 2.61858 11.6667 5.83333 11.6667C9.04809 11.6667 11.6667 9.04809 11.6667 5.83333C11.6667 2.61858 9.04809 0 5.83333 0ZM5.83333 1.16667C8.41757 1.16667 10.5 3.24909 10.5 5.83333C10.5 8.41757 8.41757 10.5 5.83333 10.5C3.24909 10.5 1.16667 8.41757 1.16667 5.83333C1.16667 3.24909 3.24909 1.16667 5.83333 1.16667ZM5.25 2.33333V6.07487L7.75423 8.5791L8.5791 7.75423L6.41667 5.5918V2.33333H5.25Z" fill="#76849D"/>
</svg>
