<svg width="17" height="21" viewBox="0 0 17 21" fill="none" xmlns="http://www.w3.org/2000/svg">
<path d="M8.55819 0.632812C3.9561 0.632812 0.224854 4.21481 0.224854 8.63281C0.224854 12.7115 3.40702 16.0714 7.51652 16.5645V18.4004C6.85429 18.0191 5.9362 17.6328 4.91235 17.6328C2.89881 17.6328 1.26652 19.1328 1.26652 19.1328C1.26652 19.1328 2.89881 20.6328 4.91235 20.6328C6.16303 20.6328 7.21178 20.0713 7.86849 19.6328H9.24788C9.90459 20.0713 10.9533 20.6328 12.204 20.6328C14.2176 20.6328 15.8499 19.1328 15.8499 19.1328C15.8499 19.1328 14.2176 17.6328 12.204 17.6328C11.1802 17.6328 10.2621 18.0191 9.59985 18.4004V16.5645C13.7094 16.0714 16.8915 12.7115 16.8915 8.63281C16.8915 4.21481 13.1603 0.632812 8.55819 0.632812ZM8.25911 2.23242H9.30892V3.68945C9.64329 3.75045 11.5143 4.16011 11.5143 6.78711H9.54492C9.54492 5.41411 8.9375 5.19727 8.68229 5.19727C8.54271 5.19727 7.89697 5.23238 7.89697 6.35938C7.89801 8.32638 11.5001 7.71297 11.5001 10.918C11.5001 13.246 9.50841 13.5615 9.15633 13.6035V14.9336H8.11263V13.6035C7.78763 13.5605 5.60205 13.3295 5.60205 10.4375H7.57145C7.57145 12.1455 8.48778 12.0742 8.62736 12.0742C8.78048 12.0742 9.53271 12.0476 9.53271 10.9316C9.53271 8.70264 5.92961 9.69256 5.92961 6.35156C5.92961 4.06156 7.90599 3.70316 8.25911 3.66016V2.23242Z" fill="#7886A0"/>
</svg>
