<svg width="19" height="20" viewBox="0 0 19 20" fill="none" xmlns="http://www.w3.org/2000/svg">
<path d="M9.52412 0.88942C9.46703 0.892424 9.40994 0.898434 9.35585 0.913458C9.11246 0.961535 8.90813 1.12079 8.80297 1.34615L6.30297 6.4423L0.629888 7.28365C0.350441 7.33473 0.119071 7.53605 0.034936 7.80949C-0.052204 8.08293 0.0199114 8.3804 0.221234 8.58173L4.28373 12.5721L3.34623 18.1971C3.29816 18.4826 3.41234 18.774 3.64672 18.9483C3.88109 19.1196 4.19359 19.1466 4.452 19.0144L9.50008 16.3461L14.5482 19.0144C14.8066 19.1466 15.1191 19.1196 15.3534 18.9483C15.5878 18.774 15.702 18.4826 15.6539 18.1971L14.7164 12.5721L18.7789 8.58173C18.9803 8.3804 19.0524 8.08293 18.9652 7.80949C18.8811 7.53605 18.6497 7.33473 18.3703 7.28365L12.6972 6.4423L10.1972 1.34615C10.077 1.07872 9.81859 0.901439 9.52412 0.88942Z" fill="#CE8300"/>
</svg>
