<svg width="16" height="16" viewBox="0 0 16 16" fill="none" xmlns="http://www.w3.org/2000/svg">
<path d="M8.06505 0.711548C8.01937 0.713952 7.9737 0.71876 7.93043 0.730779C7.73572 0.76924 7.57226 0.896644 7.48812 1.07693L5.48812 5.15386L0.949662 5.82693C0.726104 5.8678 0.541008 6.02886 0.473701 6.24761C0.403989 6.46636 0.461681 6.70434 0.622739 6.86539L3.87274 10.0577L3.12274 14.5577C3.08428 14.7861 3.17562 15.0192 3.36312 15.1587C3.55062 15.2957 3.80062 15.3173 4.00735 15.2115L8.04582 13.0769L12.0843 15.2115C12.291 15.3173 12.541 15.2957 12.7285 15.1587C12.916 15.0192 13.0074 14.7861 12.9689 14.5577L12.2189 10.0577L15.4689 6.86539C15.63 6.70434 15.6876 6.46636 15.6179 6.24761C15.5506 6.02886 15.3655 5.8678 15.142 5.82693L10.6035 5.15386L8.60351 1.07693C8.50735 0.86299 8.30062 0.721163 8.06505 0.711548Z" fill="#F6C051"/>
</svg>
