<svg width="21" height="21" viewBox="0 0 21 21" fill="none" xmlns="http://www.w3.org/2000/svg">
<path d="M7.5 0.5C3.63281 0.5 0.5 2.73828 0.5 5.5V18.5C0.5 19.6055 1.39453 20.5 2.5 20.5H12.5C13.6055 20.5 14.5 19.6055 14.5 18.5V5.5C14.5 2.73828 11.3672 0.5 7.5 0.5ZM18.5312 2.5C18.375 2.49609 18.2227 2.49609 18.0625 2.53125C17.3359 2.68359 16.7383 3.28125 16.5625 4C16.332 4.94531 16.7734 5.79688 17.5 6.21875V10.5C17.5 11.0508 17.0508 11.5 16.5 11.5H15.5V13.5H17.5C18.6055 13.5 19.5 12.6055 19.5 11.5V6.21875C20.0938 5.87109 20.5 5.23828 20.5 4.5C20.5 3.41016 19.6172 2.52344 18.5312 2.5ZM3.5 5.5H11.5C12.0508 5.5 12.5 5.94922 12.5 6.5V10.5C12.5 11.0508 12.0508 11.5 11.5 11.5H3.5C2.94922 11.5 2.5 11.0508 2.5 10.5V6.5C2.5 5.94922 2.94922 5.5 3.5 5.5ZM3.5 6.5V10.5H5.5V6.5H3.5ZM6.5 6.5V10.5H8.5V6.5H6.5ZM9.5 6.5V10.5H11.5V6.5H9.5ZM4.5 14.5H10.5L12.5 17.5H2.5L4.5 14.5Z" fill="#7886A0"/>
</svg>
