<svg width="28" height="14" viewBox="0 0 28 14" fill="none" xmlns="http://www.w3.org/2000/svg">
<path d="M20.7529 0.26908C20.2979 0.25158 19.8757 0.511893 19.6898 0.927518C19.5017 1.34314 19.5826 1.82877 19.8976 2.16127L23.3385 5.88002H1.68011C1.27542 5.87346 0.901358 6.08564 0.69792 6.43564C0.492295 6.78345 0.492295 7.21658 0.69792 7.56439C0.901358 7.91439 1.27542 8.12658 1.68011 8.12002H23.3385L19.8976 11.8388C19.6176 12.1319 19.5192 12.5519 19.6373 12.9391C19.7554 13.3263 20.0726 13.6194 20.4664 13.7069C20.8623 13.7944 21.2735 13.661 21.5426 13.3613L27.4248 7.00002L21.5426 0.638768C21.3414 0.415643 21.0548 0.280018 20.7529 0.26908Z" fill="#DADADA"/>
</svg>
