<svg width="24" height="22" viewBox="0 0 24 22" fill="none" xmlns="http://www.w3.org/2000/svg">
<path d="M12.0293 0.0673828C11.9608 0.0709884 11.8923 0.0782004 11.8274 0.096229C11.5353 0.153921 11.2901 0.345027 11.1639 0.61546L8.16395 6.73084L1.35626 7.74046C1.02092 7.80176 0.743275 8.04334 0.642314 8.37147C0.537746 8.69959 0.624284 9.05657 0.865871 9.29815L5.74087 14.0866L4.61587 20.8366C4.55818 21.1792 4.6952 21.5289 4.97645 21.7381C5.2577 21.9436 5.6327 21.976 5.94279 21.8174L12.0005 18.6155L18.0582 21.8174C18.3683 21.976 18.7433 21.9436 19.0245 21.7381C19.3058 21.5289 19.4428 21.1792 19.3851 20.8366L18.2601 14.0866L23.1351 9.29815C23.3767 9.05657 23.4632 8.69959 23.3587 8.37147C23.2577 8.04334 22.9801 7.80176 22.6447 7.74046L15.837 6.73084L12.837 0.61546C12.6928 0.294546 12.3827 0.0818059 12.0293 0.0673828ZM12.0005 3.12508L14.4236 8.00008C14.5606 8.2669 14.8202 8.4508 15.1159 8.49046L20.5101 9.29815L16.6159 13.1058C16.3923 13.3114 16.2841 13.6143 16.3274 13.9135L17.2505 19.3078L12.4332 16.7693C12.1627 16.6251 11.8382 16.6251 11.5678 16.7693L6.75049 19.3078L7.67356 13.9135C7.71683 13.6143 7.60866 13.3114 7.3851 13.1058L3.49087 9.29815L8.8851 8.49046C9.18078 8.4508 9.44039 8.2669 9.57741 8.00008L12.0005 3.12508Z" fill="#7886A0"/>
</svg>
