<svg width="21" height="21" viewBox="0 0 21 21" fill="none" xmlns="http://www.w3.org/2000/svg">
<path d="M10.4998 0.399994C4.98576 0.399994 0.499756 4.88599 0.499756 10.4C0.499756 15.914 4.98576 20.4 10.4998 20.4C16.0138 20.4 20.4998 15.914 20.4998 10.4C20.4998 4.88599 16.0138 0.399994 10.4998 0.399994ZM10.4998 16.4C9.94726 16.4 9.49976 15.9525 9.49976 15.4C9.49976 14.8475 9.94726 14.4 10.4998 14.4C11.0523 14.4 11.4998 14.8475 11.4998 15.4C11.4998 15.9525 11.0523 16.4 10.4998 16.4ZM11.9948 10.8885C11.4988 11.275 11.2498 11.469 11.2498 12.15C11.2498 12.5645 10.9143 12.9 10.4998 12.9C10.0853 12.9 9.74976 12.5645 9.74976 12.15C9.74976 10.736 10.5143 10.1405 11.0728 9.70549C11.6108 9.28599 11.9998 8.98299 11.9998 7.89999C11.9998 7.07299 11.3268 6.39999 10.4998 6.39999C9.67276 6.39999 8.99976 7.07299 8.99976 7.89999V8.14999C8.99976 8.56449 8.66426 8.89999 8.24976 8.89999C7.83526 8.89999 7.49976 8.56449 7.49976 8.14999V7.89999C7.49976 6.24549 8.84526 4.89999 10.4998 4.89999C12.1543 4.89999 13.4998 6.24549 13.4998 7.89999C13.4998 9.71549 12.6298 10.3935 11.9948 10.8885Z" fill="#7886A0"/>
</svg>
