<svg width="18" height="18" viewBox="0 0 18 18" fill="none" xmlns="http://www.w3.org/2000/svg">
<path d="M9.00033 0.666992C4.40782 0.666992 0.666992 4.40782 0.666992 9.00033C0.666992 13.5928 4.40782 17.3337 9.00033 17.3337C13.5928 17.3337 17.3337 13.5928 17.3337 9.00033C17.3337 4.40782 13.5928 0.666992 9.00033 0.666992ZM9.00033 2.33366C12.6921 2.33366 15.667 5.30856 15.667 9.00033C15.667 12.6921 12.6921 15.667 9.00033 15.667C5.30855 15.667 2.33366 12.6921 2.33366 9.00033C2.33366 5.30856 5.30855 2.33366 9.00033 2.33366ZM8.16699 4.83366V6.50033H9.83366V4.83366H8.16699ZM8.16699 8.16699V13.167H9.83366V8.16699H8.16699Z" fill="#76849D"/>
</svg>
