<svg width="23" height="21" viewBox="0 0 23 21" fill="none" xmlns="http://www.w3.org/2000/svg">
<path d="M9.69629 0.500019C9.49655 0.501571 9.30326 0.594842 9.14876 0.76423C8.99427 0.933618 8.88793 1.16885 8.84754 1.43057L7.36542 11.096L6.63926 8.48889C6.57971 8.27531 6.47469 8.08975 6.33718 7.95515C6.19967 7.82056 6.03569 7.74282 5.86552 7.73155C5.69534 7.72028 5.52643 7.77598 5.37966 7.89175C5.23288 8.00752 5.11468 8.17829 5.03966 8.38297L4.10238 10.9377H1.81237C1.69686 10.9355 1.58217 10.9641 1.47497 11.0217C1.36778 11.0794 1.27021 11.1649 1.18795 11.2734C1.10568 11.382 1.04036 11.5113 0.995771 11.6539C0.951183 11.7965 0.928223 11.9495 0.928223 12.104C0.928223 12.2586 0.951183 12.4116 0.995771 12.5542C1.04036 12.6968 1.10568 12.8261 1.18795 12.9347C1.27021 13.0432 1.36778 13.1287 1.47497 13.1864C1.58217 13.244 1.69686 13.2726 1.81237 13.2704H4.64551C4.80847 13.2703 4.96815 13.2091 5.10644 13.0937C5.24472 12.9784 5.35607 12.8135 5.42786 12.6177L5.71219 11.8421L6.79249 15.7192C6.85857 15.9566 6.98059 16.1587 7.14013 16.2951C7.29967 16.4314 7.48805 16.4946 7.6768 16.4751C7.86556 16.4555 8.04442 16.3543 8.18637 16.1867C8.32831 16.0191 8.42563 15.7942 8.4636 15.5461L9.6418 7.86131L11.1971 19.5394C11.2308 19.7904 11.3249 20.0197 11.4652 20.1923C11.6055 20.3648 11.7842 20.4711 11.974 20.4949C12.1637 20.5187 12.3541 20.4586 12.5159 20.3239C12.6777 20.1892 12.8021 19.9872 12.8699 19.7489L15.011 12.2088L15.9891 15.7192C16.0461 15.9238 16.1449 16.1028 16.2743 16.236C16.4036 16.3691 16.5583 16.451 16.7207 16.4724C16.8831 16.4938 17.0467 16.4537 17.1929 16.3568C17.3392 16.2599 17.4621 16.11 17.5479 15.9242L18.7737 13.2704H21.8623C21.9778 13.2726 22.0925 13.244 22.1997 13.1864C22.3068 13.1287 22.4044 13.0432 22.4867 12.9347C22.5689 12.8261 22.6343 12.6968 22.6789 12.5542C22.7234 12.4116 22.7464 12.2586 22.7464 12.104C22.7464 11.9495 22.7234 11.7965 22.6789 11.6539C22.6343 11.5113 22.5689 11.382 22.4867 11.2734C22.4044 11.1649 22.3068 11.0794 22.1997 11.0217C22.0925 10.9641 21.9778 10.9355 21.8623 10.9377H18.2885C18.1399 10.9378 17.9937 10.9887 17.864 11.0856C17.7342 11.1824 17.6251 11.3221 17.547 11.4913L17.0013 12.6724L15.8359 8.48889C15.774 8.2666 15.6629 8.07485 15.5174 7.93922C15.3719 7.80359 15.199 7.73053 15.0217 7.72979C14.8444 7.72905 14.6711 7.80066 14.525 7.93506C14.3789 8.06947 14.2669 8.26029 14.2039 8.48206L12.36 14.9777L10.5595 1.46133C10.5234 1.19068 10.4169 0.945806 10.259 0.769922C10.1011 0.594038 9.90177 0.498447 9.69629 0.500019Z" fill="#7886A0"/>
</svg>
