<svg width="16" height="15" viewBox="0 0 16 15" fill="none" xmlns="http://www.w3.org/2000/svg">
<path d="M3 0C1.62879 0 0.5 1.12879 0.5 2.5V12.5C0.5 13.8712 1.62879 15 3 15H10.0833C11.2551 15 12.2958 14.2365 12.5614 13.1079C12.5865 13.0014 12.5904 12.8909 12.5728 12.7829C12.5552 12.6748 12.5165 12.5713 12.459 12.4782C12.4014 12.3851 12.326 12.3042 12.2372 12.2402C12.1484 12.1762 12.0478 12.1304 11.9413 12.1053C11.8347 12.0802 11.7242 12.0763 11.6162 12.0938C11.5081 12.1114 11.4046 12.1501 11.3115 12.2077C11.2184 12.2653 11.1376 12.3406 11.0736 12.4295C11.0096 12.5183 10.9638 12.6189 10.9386 12.7254C10.8708 13.0135 10.4949 13.3333 10.0833 13.3333H3C2.53788 13.3333 2.16667 12.9621 2.16667 12.5V2.5C2.16667 2.03788 2.53788 1.66667 3 1.66667H10.0833C10.4949 1.66667 10.8708 1.98646 10.9386 2.27458C10.9638 2.38113 11.0096 2.48169 11.0736 2.57053C11.1376 2.65936 11.2184 2.73472 11.3115 2.79231C11.4046 2.84989 11.5081 2.88858 11.6162 2.90615C11.7242 2.92372 11.8347 2.91984 11.9413 2.89473C12.0478 2.86961 12.1484 2.82376 12.2372 2.75978C12.326 2.6958 12.4014 2.61495 12.459 2.52184C12.5165 2.42874 12.5552 2.3252 12.5728 2.21715C12.5904 2.1091 12.5865 1.99864 12.5614 1.89209C12.2958 0.763538 11.2551 0 10.0833 0H3ZM12.1577 4.15853C11.992 4.15873 11.8301 4.20833 11.6927 4.30099C11.5554 4.39365 11.4487 4.52515 11.3864 4.67871C11.3242 4.83227 11.3091 5.00091 11.3431 5.16309C11.3771 5.32527 11.4587 5.47362 11.5775 5.58919L12.6549 6.66667H5.08333C4.97291 6.6651 4.86327 6.68551 4.7608 6.72668C4.65832 6.76786 4.56506 6.829 4.48642 6.90653C4.40777 6.98407 4.34533 7.07646 4.3027 7.17834C4.26008 7.28023 4.23813 7.38956 4.23813 7.5C4.23813 7.61044 4.26008 7.71977 4.3027 7.82166C4.34533 7.92354 4.40777 8.01593 4.48642 8.09347C4.56506 8.171 4.65832 8.23214 4.7608 8.27332C4.86327 8.31449 4.97291 8.3349 5.08333 8.33333H12.6549L11.5775 9.41081C11.4975 9.48759 11.4336 9.57957 11.3897 9.68134C11.3457 9.78312 11.3224 9.89264 11.3213 10.0035C11.3202 10.1144 11.3412 10.2244 11.3831 10.327C11.425 10.4297 11.487 10.5229 11.5654 10.6013C11.6438 10.6797 11.737 10.7417 11.8397 10.7836C11.9423 10.8255 12.0523 10.8465 12.1632 10.8454C12.274 10.8442 12.3836 10.821 12.4853 10.777C12.5871 10.733 12.6791 10.6692 12.7559 10.5892L15.2559 8.08919C15.4121 7.93291 15.4998 7.72098 15.4998 7.5C15.4998 7.27902 15.4121 7.06709 15.2559 6.91081L12.7559 4.41081C12.6781 4.33088 12.5851 4.26737 12.4824 4.22404C12.3796 4.1807 12.2692 4.15843 12.1577 4.15853Z" fill="#7886A0"/>
</svg>
