<svg width="21" height="21" viewBox="0 0 21 21" fill="none" xmlns="http://www.w3.org/2000/svg">
<path d="M1.45238 0.5C0.927143 0.5 0.5 0.927143 0.5 1.45238V5.2619C0.5 5.78714 0.927143 6.21429 1.45238 6.21429H5.2619C5.78714 6.21429 6.21429 5.78714 6.21429 5.2619V1.45238C6.21429 0.927143 5.78714 0.5 5.2619 0.5H1.45238ZM8.59524 0.5C8.07 0.5 7.64286 0.927143 7.64286 1.45238V5.2619C7.64286 5.78714 8.07 6.21429 8.59524 6.21429H12.4048C12.93 6.21429 13.3571 5.78714 13.3571 5.2619V1.45238C13.3571 0.927143 12.93 0.5 12.4048 0.5H8.59524ZM15.7381 0.5C15.2129 0.5 14.7857 0.927143 14.7857 1.45238V5.2619C14.7857 5.78714 15.2129 6.21429 15.7381 6.21429H19.5476C20.0729 6.21429 20.5 5.78714 20.5 5.2619V1.45238C20.5 0.927143 20.0729 0.5 19.5476 0.5H15.7381ZM1.45238 7.64286C0.927143 7.64286 0.5 8.07 0.5 8.59524V12.4048C0.5 12.93 0.927143 13.3571 1.45238 13.3571H5.2619C5.78714 13.3571 6.21429 12.93 6.21429 12.4048V8.59524C6.21429 8.07 5.78714 7.64286 5.2619 7.64286H1.45238ZM8.59524 7.64286C8.07 7.64286 7.64286 8.07 7.64286 8.59524V12.4048C7.64286 12.93 8.07 13.3571 8.59524 13.3571H12.4048C12.93 13.3571 13.3571 12.93 13.3571 12.4048V8.59524C13.3571 8.07 12.93 7.64286 12.4048 7.64286H8.59524ZM15.7381 7.64286C15.2129 7.64286 14.7857 8.07 14.7857 8.59524V12.4048C14.7857 12.93 15.2129 13.3571 15.7381 13.3571H19.5476C20.0729 13.3571 20.5 12.93 20.5 12.4048V8.59524C20.5 8.07 20.0729 7.64286 19.5476 7.64286H15.7381ZM1.45238 14.7857C0.927143 14.7857 0.5 15.2129 0.5 15.7381V19.5476C0.5 20.0729 0.927143 20.5 1.45238 20.5H5.2619C5.78714 20.5 6.21429 20.0729 6.21429 19.5476V15.7381C6.21429 15.2129 5.78714 14.7857 5.2619 14.7857H1.45238ZM8.59524 14.7857C8.07 14.7857 7.64286 15.2129 7.64286 15.7381V19.5476C7.64286 20.0729 8.07 20.5 8.59524 20.5H12.4048C12.93 20.5 13.3571 20.0729 13.3571 19.5476V15.7381C13.3571 15.2129 12.93 14.7857 12.4048 14.7857H8.59524ZM15.7381 14.7857C15.2129 14.7857 14.7857 15.2129 14.7857 15.7381V19.5476C14.7857 20.0729 15.2129 20.5 15.7381 20.5H19.5476C20.0729 20.5 20.5 20.0729 20.5 19.5476V15.7381C20.5 15.2129 20.0729 14.7857 19.5476 14.7857H15.7381Z" fill="#00AEFF"/>
</svg>
