<svg width="19" height="20" viewBox="0 0 19 20" fill="none" xmlns="http://www.w3.org/2000/svg">
<path d="M9.13856 0.00877755C5.09682 0.199147 1.99988 3.67168 1.99988 7.69042V11.3242L0.674688 13.9902C0.672357 13.9951 0.670078 14 0.667852 14.0049C0.134724 15.1386 0.997737 16.5 2.25086 16.5H6.49988C6.49988 18.1479 7.85195 19.5 9.49988 19.5C11.1478 19.5 12.4999 18.1479 12.4999 16.5H16.7479C18.0011 16.5 18.8652 15.1389 18.3319 14.0049C18.3297 14 18.3274 13.9951 18.3251 13.9902L16.9999 11.3242V7.49999C16.9999 3.24689 13.4315 -0.193329 9.13856 0.00877755ZM9.20887 1.50682C12.6689 1.34393 15.4999 4.08109 15.4999 7.49999V11.5C15.4998 11.6159 15.5265 11.7302 15.578 11.834L16.9745 14.6445C17.0643 14.837 16.9604 15 16.7479 15H2.25086C2.0384 15 1.93534 14.8373 2.02527 14.6445V14.6435L3.42176 11.834C3.47325 11.7302 3.49999 11.6159 3.49988 11.5V7.69042C3.49988 4.44015 5.98961 1.65845 9.20887 1.50682ZM7.99988 16.5H10.9999C10.9999 17.3371 10.337 18 9.49988 18C8.66282 18 7.99988 17.3371 7.99988 16.5Z" fill="#A7A7A7"/>
</svg>
