<svg width="21" height="21" viewBox="0 0 21 21" fill="none" xmlns="http://www.w3.org/2000/svg">
<path d="M4.06148 0.5C2.21904 0.5 0.728149 1.99089 0.728149 3.83333C0.728149 6.18685 2.25159 7.77865 3.74898 9.09375C4.79065 10.0085 5.83883 10.8418 6.58752 11.75C6.60054 11.7663 6.60054 11.7858 6.61357 11.8021C7.27763 13.498 8.11096 14.8587 9.03544 15.6302C11.5582 18.3971 5.65002 18.0195 5.65002 20.5H15.7281C15.7281 18.0553 10.025 18.3939 12.2646 15.7604C13.2672 15.0085 14.1624 13.5697 14.8688 11.75C15.6175 10.8418 16.6656 10.0085 17.7073 9.09375C19.2047 7.77865 20.7281 6.18685 20.7281 3.83333C20.7281 1.99089 19.2373 0.5 17.3948 0.5C16.1611 0.5 15.1064 1.17057 14.5302 2.16667H6.92607C6.34989 1.17057 5.29521 0.5 4.06148 0.5ZM4.06148 2.16667C4.37724 2.16667 4.65393 2.24805 4.89482 2.375C4.91109 4.42253 5.18127 6.54818 5.62398 8.49479C5.36357 8.27344 5.09013 8.06185 4.84273 7.84375C3.42346 6.597 2.39482 5.48047 2.39482 3.83333C2.39482 2.84049 3.06864 2.16667 4.06148 2.16667ZM17.3948 2.16667C18.3877 2.16667 19.0615 2.84049 19.0615 3.83333C19.0615 5.48047 18.0328 6.597 16.6136 7.84375C16.3662 8.06185 16.0927 8.27344 15.8323 8.49479C16.275 6.54818 16.5452 4.42253 16.5615 2.375C16.8024 2.24805 17.0791 2.16667 17.3948 2.16667ZM10.2334 5.5H11.5615V11.3333H9.89482V8H8.64482V6.90625C9.64417 6.90625 10.1487 5.91667 10.2334 5.5Z" fill="#7886A0"/>
</svg>
