<svg width="12" height="12" viewBox="0 0 12 12" fill="none" xmlns="http://www.w3.org/2000/svg">
<path d="M5.99987 0C2.79734 0 0.175162 2.51367 0.00129011 5.66719C-0.0128076 5.88281 0.0894007 6.08906 0.270321 6.20859C0.451242 6.32695 0.68268 6.33984 0.875348 6.24141C1.06802 6.14297 1.19372 5.94844 1.20195 5.73281C1.34175 3.20273 3.42586 1.2 5.99987 1.2C7.37909 1.2 8.61617 1.77773 9.4914 2.7H8.70663C8.48929 2.69648 8.2884 2.81016 8.17914 2.99766C8.06871 3.18398 8.06871 3.41602 8.17914 3.60234C8.2884 3.78984 8.48929 3.90352 8.70663 3.9H10.5898C10.658 3.91172 10.7273 3.91172 10.7966 3.9H11.7141V0.9C11.7165 0.738281 11.6531 0.582422 11.5379 0.467578C11.4228 0.352734 11.2665 0.289453 11.1032 0.291797C10.7719 0.296484 10.5064 0.568359 10.5111 0.9V2.0332C9.40799 0.786328 7.7938 0 5.99987 0ZM11.4228 5.6918C11.0903 5.67773 10.8107 5.93555 10.7978 6.26719C10.658 8.79727 8.57388 10.8 5.99987 10.8C4.62064 10.8 3.38474 10.2223 2.50833 9.3H3.29311C3.51045 9.30352 3.71134 9.18984 3.8206 9.00234C3.93103 8.81602 3.93103 8.58398 3.8206 8.39766C3.71134 8.21016 3.51045 8.09648 3.29311 8.1H1.40401C1.34057 8.09063 1.27713 8.09063 1.21369 8.1H0.285594V11.1C0.282069 11.3168 0.396026 11.5172 0.583996 11.6262C0.77079 11.7363 1.0034 11.7363 1.1902 11.6262C1.37817 11.5172 1.49212 11.3168 1.4886 11.1V9.9668C2.59175 11.2137 4.20593 12 5.99987 12C9.2024 12 11.8246 9.48633 11.9984 6.33281C12.0102 6.17109 11.955 6.01172 11.8469 5.89102C11.7376 5.77031 11.5849 5.69883 11.4228 5.6918Z" fill="#7886A0"/>
</svg>
