<svg width="42" height="64" viewBox="0 0 42 64" fill="none" xmlns="http://www.w3.org/2000/svg">
<path d="M21 0.666992C21 0.666992 7 10.0003 7 31.0003C7 31.371 7.03186 31.7422 7.05469 32.1123C4.64186 34.0631 0 38.2419 0 41.6051C0 45.8495 4.24284 54.3337 4.24284 54.3337L11.9447 44.7041L14 49.667H28L30.0553 44.7041L37.7572 54.3337C37.7572 54.3337 42 45.8495 42 41.6051C42 38.2419 37.3581 34.0631 34.9453 32.1123C34.9681 31.7422 35 31.371 35 31.0003C35 10.0003 21 0.666992 21 0.666992ZM21 17.0003C23.5783 17.0003 25.6667 19.0887 25.6667 21.667C25.6667 24.2453 23.5783 26.3337 21 26.3337C18.4217 26.3337 16.3333 24.2453 16.3333 21.667C16.3333 19.0887 18.4217 17.0003 21 17.0003ZM14.9753 52.0003C14.3709 52.7797 14 53.6752 14 54.6436C14 59.0839 21 63.667 21 63.667C21 63.667 28 59.1446 28 54.6436C28 53.6752 27.6313 52.782 27.0293 52.0003H25.056C25.098 52.18 25.2018 52.34 25.2018 52.529C25.2018 55.7 21 57.2868 21 57.2868C21 57.2868 16.7982 55.7 16.7982 52.529C16.7982 52.3423 16.902 52.18 16.944 52.0003H14.9753Z" fill="white"/>
</svg>
