<svg width="20" height="20" viewBox="0 0 20 20" fill="none" xmlns="http://www.w3.org/2000/svg">
<path d="M7.66602 0L7.21484 2.47656L7.22852 2.4707L7.35742 2.42969C7.30712 2.44226 7.26396 2.46265 7.21484 2.47656C6.29702 2.73658 5.57632 3.21797 4.95898 3.73242L4.92578 3.76172H4.92383L2.53516 3.00391L0.238281 6.98633L2.11133 8.74805L2.11914 8.70312L2.12891 8.6582C1.99086 9.21038 2 9.7 2 10C2 10.3 1.99903 10.7959 2.11914 11.3965L2.10742 11.332L0.224609 12.9922L2.55273 17.0273L4.94336 16.1582L4.96289 16.1777L5.04492 16.2324C5.68759 16.6609 6.43308 17.0882 7.20703 17.4199L7.21094 17.4219L7.6582 20H12.334L12.7852 17.5234L12.7715 17.5293L12.6426 17.5703C12.6929 17.5577 12.736 17.5374 12.7852 17.5234C13.703 17.2634 14.4237 16.782 15.041 16.2676L15.0742 16.2383H15.0762L17.4766 17.002L19.7656 12.8828L17.8926 11.2305L17.8809 11.2969L17.8711 11.3418C18.0091 10.7896 18 10.3 18 10C18 9.7 18.0091 9.21038 17.8711 8.6582L17.877 8.68359L19.7754 7.00781L17.4473 2.97266L15.0566 3.8418L15.0371 3.82227L14.9551 3.76758C14.3124 3.33913 13.5669 2.91177 12.793 2.58008L12.7891 2.57812L12.3418 0H7.66602ZM9.33398 2H10.6582L11.0098 4.02148L12.0293 4.42773L12.0059 4.41992C12.6113 4.6794 13.24 5.03912 13.7852 5.39844L14.543 6.1582L16.5527 5.42578L17.2246 6.5918L15.7227 7.91797L15.9199 9.10352L15.9297 9.14258C15.9916 9.3904 16 9.7 16 10C16 10.3 15.9916 10.6096 15.9297 10.8574L15.9238 10.8809L15.707 11.9688L17.2344 13.3184L16.5234 14.5996L14.5234 13.9629L13.7461 14.7402C13.203 15.1914 12.7627 15.4778 12.1582 15.6289L12.0918 15.6465L11.0156 16.0762L10.666 18H9.3418L8.99023 15.9785L7.9707 15.5723L7.99414 15.5801C7.38868 15.3206 6.75998 14.9609 6.21484 14.6016L5.45703 13.8418L3.44727 14.5742L2.77539 13.4082L4.29297 12.0684L4.08008 11.0039C4.00019 10.6045 4 10.3 4 10C4 9.7 4.00836 9.3904 4.07031 9.14258L4.07617 9.11914L4.28906 8.05273L2.76172 6.61328L3.46484 5.39648L5.47656 6.03711L6.25391 5.25977C6.79702 4.80857 7.23725 4.52223 7.8418 4.37109L7.9082 4.35352L8.98438 3.92383L9.33398 2ZM10 6C8.75 6 7.68523 6.50476 7.00195 7.27344C6.31868 8.04212 6 9.02778 6 10C6 10.9722 6.31868 11.9579 7.00195 12.7266C7.68523 13.4952 8.75 14 10 14C11.25 14 12.3148 13.4952 12.998 12.7266C13.6813 11.9579 14 10.9722 14 10C14 9.02778 13.6813 8.04212 12.998 7.27344C12.3148 6.50476 11.25 6 10 6ZM10 8C10.75 8 11.1852 8.24524 11.502 8.60156C11.8187 8.95788 12 9.47222 12 10C12 10.5278 11.8187 11.0421 11.502 11.3984C11.1852 11.7548 10.75 12 10 12C9.25 12 8.81477 11.7548 8.49805 11.3984C8.18132 11.0421 8 10.5278 8 10C8 9.47222 8.18132 8.95788 8.49805 8.60156C8.81477 8.24524 9.25 8 10 8Z" fill="#7886A0"/>
</svg>
