<svg width="18" height="18" viewBox="0 0 18 18" fill="none" xmlns="http://www.w3.org/2000/svg">
<path fill-rule="evenodd" clip-rule="evenodd" d="M9.69236 6.30769C9.69236 7.41226 10.5878 8.30769 11.6924 8.30769H16C17.1046 8.30769 18 7.41226 18 6.30769V2C18 0.895431 17.1046 0 16.0001 0H11.6924C10.5878 0 9.69236 0.895431 9.69236 2V6.30769ZM2 18C0.895431 18 0 17.1046 0 16V11.6923C0 10.5877 0.895431 9.6923 2 9.6923H6.30769C7.41226 9.6923 8.30769 10.5877 8.30769 11.6923V16C8.30769 17.1046 7.41226 18 6.30769 18H2ZM11.6924 18C10.5878 18 9.69236 17.1046 9.69236 16V11.6923C9.69236 10.5877 10.5878 9.6923 11.6924 9.6923H16.0001C17.1046 9.6923 18 10.5877 18 11.6923V16C18 17.1046 17.1046 18 16 18H11.6924ZM2 8.30769C0.895431 8.30769 0 7.41226 0 6.30769V2C0 0.895431 0.895431 0 2 0H6.30769C7.41226 0 8.30769 0.895431 8.30769 2V6.30769C8.30769 7.41226 7.41226 8.30769 6.30769 8.30769H2Z" fill="#444851"/>
</svg>
