<svg width="18" height="16" viewBox="0 0 18 16" fill="none" xmlns="http://www.w3.org/2000/svg">
<path fill-rule="evenodd" clip-rule="evenodd" d="M0 2C0 2.82843 0.671573 3.5 1.5 3.5H16.5C17.3284 3.5 18 2.82843 18 2C18 1.17157 17.3284 0.5 16.5 0.5H1.5C0.671573 0.5 0 1.17157 0 2ZM0 8C0 8.82843 0.671573 9.5 1.5 9.5H16.5C17.3284 9.5 18 8.82843 18 8C18 7.17158 17.3284 6.5 16.5 6.5H1.5C0.671573 6.5 0 7.17158 0 8ZM1.5 15.5C0.671573 15.5 0 14.8284 0 14C0 13.1716 0.671573 12.5 1.5 12.5H16.5C17.3284 12.5 18 13.1716 18 14C18 14.8284 17.3284 15.5 16.5 15.5H1.5Z" fill="#C7C7C7"/>
</svg>
