<svg width="24" height="24" viewBox="0 0 24 24" fill="none" xmlns="http://www.w3.org/2000/svg">
<path d="M12 5C11.0807 5 10.1705 5.18106 9.32122 5.53284C8.47194 5.88463 7.70026 6.40024 7.05025 7.05025C6.40024 7.70026 5.88463 8.47194 5.53284 9.32122C5.18106 10.1705 5 11.0807 5 12C5 12.9193 5.18106 13.8295 5.53284 14.6788C5.88463 15.5281 6.40024 16.2997 7.05025 16.9497C7.70026 17.5998 8.47194 18.1154 9.32122 18.4672C10.1705 18.8189 11.0807 19 12 19C12.9193 19 13.8295 18.8189 14.6788 18.4672C15.5281 18.1154 16.2997 17.5998 16.9497 16.9497C17.5998 16.2997 18.1154 15.5281 18.4672 14.6788C18.8189 13.8295 19 12.9193 19 12C19 11.0807 18.8189 10.1705 18.4672 9.32122C18.1154 8.47194 17.5998 7.70026 16.9497 7.05025C16.2997 6.40024 15.5281 5.88463 14.6788 5.53284C13.8295 5.18106 12.9193 5 12 5ZM12 3C11.448 3 11 2.552 11 2V1C11 0.448 11.448 0 12 0C12.552 0 13 0.448 13 1V2C13 2.552 12.552 3 12 3ZM12 24C11.448 24 11 23.553 11 23V22C11 21.447 11.448 21 12 21C12.552 21 13 21.447 13 22V23C13 23.553 12.552 24 12 24ZM23 13H22C21.447 13 21 12.552 21 12C21 11.448 21.447 11 22 11H23C23.553 11 24 11.448 24 12C24 12.552 23.553 13 23 13ZM2 13H1C0.448 13 0 12.552 0 12C0 11.448 0.448 11 1 11H2C2.552 11 3 11.448 3 12C3 12.552 2.552 13 2 13ZM19.8 20.8C19.544 20.8 19.288 20.702 19.093 20.507L18.393 19.807C18.002 19.416 18.002 18.784 18.393 18.393C18.784 18.002 19.416 18.002 19.807 18.393L20.507 19.093C20.898 19.484 20.898 20.116 20.507 20.507C20.312 20.702 20.056 20.8 19.8 20.8ZM4.9 5.9C4.644 5.9 4.388 5.802 4.193 5.607L3.493 4.907C3.102 4.516 3.102 3.884 3.493 3.493C3.884 3.102 4.516 3.102 4.907 3.493L5.607 4.193C5.998 4.584 5.998 5.216 5.607 5.607C5.412 5.802 5.156 5.9 4.9 5.9ZM19.1 5.9C18.844 5.9 18.588 5.802 18.393 5.607C18.002 5.216 18.002 4.583 18.393 4.192L19.093 3.492C19.484 3.102 20.116 3.102 20.507 3.492C20.898 3.882 20.898 4.516 20.507 4.907L19.807 5.607C19.611 5.802 19.355 5.9 19.1 5.9ZM4.2 20.8C3.944 20.8 3.688 20.702 3.493 20.507C3.102 20.117 3.102 19.484 3.493 19.093L4.193 18.393C4.584 18.002 5.217 18.002 5.608 18.393C5.999 18.783 5.999 19.416 5.608 19.807L4.908 20.507C4.712 20.702 4.456 20.8 4.2 20.8Z" fill="#F6C051"/>
</svg>
